SplineFontDB: 1.0
FontName: ScidbSymbolInformant
FullName: Scidb Symbol Informant
FamilyName: Scidb Symbol Informant
Weight: Regular
Copyright: Beke
Version: Macromedia Fontographer 4.1 27/03/00
ItalicAngle: 0
UnderlinePosition: -272
UnderlineWidth: 40
Ascent: 1638
Descent: 410
Order2: 1
XUID: [1021 555 146130107 9489966]
FSType: 0
OS2Version: 1
OS2_WeightWidthSlopeOnly: 0
OS2_UseTypoMetrics: 1
CreationTime: 1328779735
ModificationTime: 1341677497
PfmFamily: 81
TTFWeight: 400
TTFWidth: 5
LineGap: 0
VLineGap: 0
Panose: 0 0 4 0 0 0 0 0 0 0
OS2TypoAscent: 0
OS2TypoAOffset: 1
OS2TypoDescent: 0
OS2TypoDOffset: 1
OS2TypoLinegap: 0
OS2WinAscent: -695
OS2WinAOffset: 1
OS2WinDescent: 37
OS2WinDOffset: 1
HheadAscent: -695
HheadAOffset: 1
HheadDescent: -37
HheadDOffset: 1
OS2SubXSize: 1434
OS2SubYSize: 1331
OS2SubXOff: 0
OS2SubYOff: 293
OS2SupXSize: 1434
OS2SupYSize: 1331
OS2SupXOff: 0
OS2SupYOff: 928
OS2StrikeYSize: 102
OS2StrikeYPos: 530
OS2Vendor: 'MACR'
ScriptLang: 1
 1 latn 1 dflt 
TtfTable: prep 270
\,lV`YQ9^`9<\[u=Kql-N`iVV"tNe!YRjr1YS9u;+g?K"*O#_u>Z_!1"<^.;""QdD"X$7>"F^D&
YQHCDYQc4=Z3<Ss/$K++7'Hn=7C!+]!\:JW.n$TI+@WR@3!(V7""QdD#p;[B#VlH3YQHCDYR2LA
Z3_fY/$K++7'I%A7C!7E!\:JW.n$TM+@WRD*Wdjr""QdD%3S*F$l]6uYQHCDYRVdEZ4.]R/$K++
7'I1E7C!C<!\:JW.msEB&0OEG""QdD&g0WK&4HXNYldI=.n$TR+@WRK0ENc0"%IGa7'I=I7CiI1
J,]KM/$T1GFt5tb'HfiM'-mW0YldI=.n!OE'Is.`
EndTtf
TtfTable: fpgm 613
YQ-5Y!#&#0.Ss6O8p4@A!$a]FYQcU[4]tF^.Ss5q=Wl4u!>@(&/[,7,+PO%..kRt,/5&lC73bqY
/[,=.Bc%ts5YtQ+YWu>CYQQM]"tNe!,9_A8h&FUA)bX(2=T'3+=W8S/YQZOZYXWe==PXq@=]nlE
/[,C0%:!'gYQcY`+p!Kr=Kip(>[/5P!*LnX#;!,*!JjQSYX""L>T9mI=Y6i`/.rO;3A2tg#qR3I
YQcU[`#Hs(+Ktqo8L#@^"=?aF!)QdTAVsn=YQ.L%3#a"a=W<6U@3DcS;HPmt+X'uk(bMs!/?f=/
=<S4p&0Y1.YR<!)d]a-1/[,X7+>9r(.pQ1!+@dYG@;6oe+Cnq@)^-A-)^/?9YRN,r&Ki2V0-H,p
7uBcE,DmV$,>,0?:fnsH!)cq'5WB]+=W8Ti!)Qe%5\2no+^%r"YRW4g"tNe=eefPR)^*^h92\k7
MBb\8YQ.[*3#a"a=W8M-=]m>\%kJqJefZWM#:j%],9U)];]?ma!EiN^YQQ:E,Dm]gMFi[M@5o2L
+X&"3)^-@J+X'u?YRi?.g9;2?/[,g<+O[J,.kRt</0HUM#:j%]+<X0!7U^%h+@dYG,@P=p+BTas

StartChar: exclam
Encoding: 33 33 4
Width: 681
GlyphClass: 2
Flags: W
Fore
225 1243 m 0,0,1
 225 1098 225 1098 262 809 c 2,2,-1
 319 358 l 1,3,-1
 360 358 l 1,4,-1
 455 1243 l 2,5,6
 461 1296 461 1296 427 1341 c 128,-1,7
 393 1386 393 1386 340 1386 c 0,8,9
 225 1386 225 1386 225 1243 c 0,0,1
229 82 m 256,10,11
 229 35 229 35 261 4 c 128,-1,12
 293 -27 293 -27 340 -27 c 256,13,14
 387 -27 387 -27 419 4 c 128,-1,15
 451 35 451 35 451 82 c 256,16,17
 451 129 451 129 419 161 c 128,-1,18
 387 193 387 193 340 193 c 256,19,20
 293 193 293 193 261 161 c 128,-1,21
 229 129 229 129 229 82 c 256,10,11
EndSplineSet
EndChar
StartChar: quotedbl
Encoding: 34 34 5
Width: 835
GlyphClass: 2
Flags: W
Fore
135 1276 m 0,0,1
 135 1165 135 1165 162 1038 c 2,2,-1
 211 803 l 1,3,-1
 260 803 l 1,4,5
 272 862 272 862 284.5 920.5 c 128,-1,6
 297 979 297 979 309 1038 c 0,7,8
 336 1169 336 1169 336 1276 c 0,9,10
 336 1387 336 1387 236 1386 c 0,11,12
 191 1386 191 1386 163 1354.5 c 128,-1,13
 135 1323 135 1323 135 1276 c 0,0,1
502 1276 m 0,14,15
 502 1165 502 1165 528 1038 c 2,16,-1
 578 803 l 1,17,-1
 627 803 l 1,18,19
 639 862 639 862 651.5 920.5 c 128,-1,20
 664 979 664 979 676 1038 c 0,21,22
 703 1169 703 1169 702 1276 c 0,23,24
 702 1387 702 1387 602 1386 c 0,25,26
 557 1386 557 1386 529.5 1354.5 c 128,-1,27
 502 1323 502 1323 502 1276 c 0,14,15
EndSplineSet
EndChar
StartChar: numbersign
Encoding: 35 35 6
Width: 1787
GlyphClass: 2
Flags: W
Fore
68 348 m 1,0,-1
 563 348 l 1,1,-1
 563 -125 l 1,2,-1
 662 -125 l 1,3,-1
 662 348 l 1,4,-1
 1126 348 l 1,5,-1
 1126 -125 l 1,6,-1
 1225 -125 l 1,7,-1
 1225 348 l 1,8,-1
 1718 348 l 1,9,-1
 1718 434 l 1,10,-1
 1225 434 l 1,11,-1
 1225 885 l 1,12,-1
 1718 885 l 1,13,-1
 1718 969 l 1,14,-1
 1225 969 l 1,15,-1
 1225 1460 l 1,16,-1
 1126 1460 l 1,17,-1
 1126 969 l 1,18,-1
 662 969 l 1,19,-1
 662 1460 l 1,20,-1
 563 1460 l 1,21,-1
 563 969 l 1,22,-1
 68 969 l 1,23,-1
 68 885 l 1,24,-1
 563 885 l 1,25,-1
 563 434 l 1,26,-1
 68 434 l 1,27,-1
 68 348 l 1,0,-1
662 434 m 1,28,-1
 662 885 l 1,29,-1
 1126 885 l 1,30,-1
 1126 434 l 1,31,-1
 662 434 l 1,28,-1
EndSplineSet
EndChar
StartChar: dollar
Encoding: 36 36 7
Width: 1024
GlyphClass: 2
Flags: W
Fore
106 51 m 1,0,1
 299 -27 299 -27 461 -27 c 1,2,-1
 461 -154 l 1,3,-1
 524 -154 l 1,4,-1
 524 -27 l 1,5,6
 682 -27 682 -27 801 76 c 0,7,8
 918 176 918 176 918 334 c 0,9,10
 918 512 918 512 698 672 c 0,11,12
 612 735 612 735 569 766 c 128,-1,13
 526 797 526 797 524 799 c 1,14,-1
 524 1313 l 1,15,16
 659 1299 659 1299 737 1212.5 c 128,-1,17
 815 1126 815 1126 815 991 c 1,18,-1
 854 991 l 1,19,-1
 854 1290 l 1,20,21
 645 1378 645 1378 524 1378 c 1,22,-1
 524 1470 l 1,23,-1
 461 1470 l 1,24,-1
 461 1378 l 1,25,26
 316 1378 316 1378 213 1288 c 0,27,28
 107 1196 107 1196 106 1051 c 0,29,30
 106 822 106 822 461 621 c 1,31,-1
 461 37 l 1,32,33
 393 37 393 37 336 58.5 c 128,-1,34
 279 80 279 80 238 119 c 128,-1,35
 197 158 197 158 173.5 212 c 128,-1,36
 150 266 150 266 150 334 c 1,37,-1
 106 334 l 1,38,-1
 106 51 l 1,0,1
264 1110 m 0,39,40
 264 1196 264 1196 319.5 1250.5 c 128,-1,41
 375 1305 375 1305 461 1313 c 1,42,-1
 461 840 l 1,43,44
 264 977 264 977 264 1110 c 0,39,40
524 37 m 1,45,-1
 524 580 l 1,46,47
 647 488 647 488 678 457 c 0,48,49
 760 375 760 375 760 287 c 0,50,51
 760 238 760 238 741.5 195 c 128,-1,52
 723 152 723 152 691 118 c 128,-1,53
 659 84 659 84 616 63.5 c 128,-1,54
 573 43 573 43 524 37 c 1,45,-1
EndSplineSet
EndChar
StartChar: percent
Encoding: 37 37 8
Width: 1705
GlyphClass: 2
Flags: W
Fore
70 1018 m 256,0,1
 70 868 70 868 139 768 c 0,2,3
 215 651 215 651 358 651 c 0,4,5
 499 651 499 651 578 768 c 0,6,7
 648 868 648 868 647 1018 c 0,8,9
 647 1168 647 1168 578 1268 c 0,10,11
 500 1385 500 1385 358 1384 c 0,12,13
 215 1384 215 1384 139 1268 c 0,14,15
 70 1168 70 1168 70 1018 c 256,0,1
229 1016 m 0,16,17
 229 1331 229 1331 360 1331 c 0,18,19
 487 1331 487 1331 487 1020 c 0,20,21
 487 705 487 705 356 705 c 0,22,23
 229 705 229 705 229 1016 c 0,16,17
330 -29 m 1,24,-1
 420 -29 l 1,25,-1
 1389 1386 l 1,26,-1
 1298 1386 l 1,27,-1
 330 -29 l 1,24,-1
1059 338 m 256,28,29
 1059 188 1059 188 1128 88 c 0,30,31
 1206 -27 1206 -27 1348 -27 c 0,32,33
 1489 -27 1489 -27 1567 88 c 0,34,35
 1637 188 1637 188 1636 338 c 0,36,37
 1636 488 1636 488 1567 588 c 0,38,39
 1489 705 1489 705 1348 705 c 0,40,41
 1205 705 1205 705 1128 588 c 0,42,43
 1059 488 1059 488 1059 338 c 256,28,29
1219 336 m 0,44,45
 1219 651 1219 651 1350 651 c 0,46,47
 1477 651 1477 651 1477 340 c 0,48,49
 1477 25 1477 25 1346 25 c 0,50,51
 1219 25 1219 25 1219 336 c 0,44,45
EndSplineSet
EndChar
StartChar: ampersand
Encoding: 38 38 9
Width: 1593
GlyphClass: 2
Flags: W
Fore
72 266 m 0,0,1
 72 127 72 127 182 45 c 0,2,3
 282 -29 282 -29 426 -29 c 0,4,5
 649 -29 649 -29 866 164 c 1,6,7
 1040 -29 1040 -29 1212 -29 c 0,8,9
 1337 -29 1337 -29 1421 47 c 0,10,11
 1499 117 1499 117 1528 244 c 1,12,-1
 1491 270 l 1,13,14
 1456 123 1456 123 1309 123 c 0,15,16
 1166 123 1166 123 1006 309 c 1,17,18
 1059 389 1059 389 1096 446.5 c 128,-1,19
 1133 504 1133 504 1153 539 c 0,20,21
 1200 617 1200 617 1230 665 c 128,-1,22
 1260 713 1260 713 1274 729 c 0,23,24
 1360 835 1360 835 1460 836 c 1,25,-1
 1460 872 l 1,26,-1
 1042 872 l 1,27,-1
 1042 836 l 1,28,29
 1081 836 1081 836 1108 799 c 128,-1,30
 1135 762 1135 762 1135 721 c 0,31,32
 1135 576 1135 576 958 369 c 1,33,34
 815 543 815 543 692 782 c 1,35,36
 1022 946 1022 946 1022 1141 c 0,37,38
 1022 1258 1022 1258 944 1322 c 128,-1,39
 866 1386 866 1386 750 1386 c 0,40,41
 676 1386 676 1386 612.5 1362.5 c 128,-1,42
 549 1339 549 1339 503 1296 c 128,-1,43
 457 1253 457 1253 431.5 1193 c 128,-1,44
 406 1133 406 1133 406 1059 c 0,45,46
 406 936 406 936 485 758 c 1,47,48
 72 534 72 534 72 266 c 0,0,1
279 358 m 0,49,50
 279 567 279 567 520 690 c 1,51,52
 694 360 694 360 815 221 c 1,53,54
 641 90 641 90 528 90 c 0,55,56
 419 90 419 90 348 168 c 0,57,58
 279 245 279 245 279 358 c 0,49,50
575 1130 m 0,59,60
 575 1208 575 1208 626.5 1260.5 c 128,-1,61
 678 1313 678 1313 756 1313 c 0,62,63
 824 1313 824 1313 864.5 1265 c 128,-1,64
 905 1217 905 1217 905 1149 c 0,65,66
 905 954 905 954 659 848 c 1,67,68
 575 1011 575 1011 575 1130 c 0,59,60
EndSplineSet
EndChar
StartChar: quotesingle
Encoding: 39 39 10
Width: 1351
GlyphClass: 2
Flags: W
Fore
68 -94 m 1,0,-1
 68 1356 l 1,1,-1
 168 1356 l 1,2,-1
 168 0 l 1,3,-1
 1282 0 l 1,4,-1
 1282 -94 l 1,5,-1
 68 -94 l 1,0,-1
EndSplineSet
EndChar
StartChar: parenleft
Encoding: 40 40 11
Width: 681
GlyphClass: 2
Flags: W
Fore
84 639 m 0,0,1
 84 487 84 487 121 350 c 128,-1,2
 158 213 158 213 228.5 94 c 128,-1,3
 299 -25 299 -25 401.5 -123 c 128,-1,4
 504 -221 504 -221 637 -291 c 1,5,-1
 637 -248 l 1,6,7
 277 -53 277 -53 276 639 c 0,8,9
 276 1333 276 1333 637 1528 c 1,10,-1
 637 1571 l 1,11,12
 367 1428 367 1428 225.5 1187 c 128,-1,13
 84 946 84 946 84 639 c 0,0,1
EndSplineSet
EndChar
StartChar: parenright
Encoding: 41 41 12
Width: 681
GlyphClass: 2
Flags: W
Fore
45 -248 m 1,0,-1
 45 -291 l 1,1,2
 315 -148 315 -148 456.5 92 c 128,-1,3
 598 332 598 332 598 639 c 0,4,5
 598 789 598 789 561 927 c 128,-1,6
 524 1065 524 1065 453.5 1185 c 128,-1,7
 383 1305 383 1305 279.5 1402 c 128,-1,8
 176 1499 176 1499 45 1571 c 1,9,-1
 45 1528 l 1,10,11
 405 1333 405 1333 406 639 c 0,12,13
 405 -53 405 -53 45 -248 c 1,0,-1
EndSplineSet
EndChar
StartChar: asterisk
Encoding: 42 42 13
Width: 1024
GlyphClass: 2
Flags: W
Fore
145 840 m 0,0,1
 145 809 145 809 167.5 788.5 c 128,-1,2
 190 768 190 768 221 768 c 0,3,4
 278 768 278 768 369 858 c 0,5,6
 473 962 473 962 494 971 c 1,7,8
 494 922 494 922 461 836 c 0,9,10
 430 750 430 750 430 702 c 0,11,12
 430 593 430 593 512 594 c 0,13,14
 594 594 594 594 594 702 c 0,15,16
 594 751 594 751 561 836 c 0,17,18
 530 924 530 924 530 971 c 1,19,20
 550 963 550 963 653 858 c 0,21,22
 739 768 739 768 803 768 c 0,23,24
 834 768 834 768 856.5 788.5 c 128,-1,25
 879 809 879 809 879 840 c 0,26,27
 879 914 879 914 748 952 c 0,28,29
 633 985 633 985 551 1008 c 1,30,-1
 748 1061 l 2,31,32
 879 1094 879 1094 879 1176 c 0,33,34
 879 1207 879 1207 856.5 1227 c 128,-1,35
 834 1247 834 1247 803 1247 c 0,36,37
 746 1247 746 1247 655 1157 c 0,38,39
 551 1053 551 1053 530 1044 c 1,40,41
 530 1091 530 1091 561 1178 c 0,42,43
 594 1264 594 1264 594 1313 c 0,44,45
 594 1422 594 1422 512 1421 c 0,46,47
 430 1421 430 1421 430 1313 c 0,48,49
 430 1266 430 1266 461 1178 c 0,50,51
 494 1094 494 1094 494 1044 c 1,52,-1
 367 1167 l 2,53,54
 283 1247 283 1247 221 1247 c 0,55,56
 190 1247 190 1247 167.5 1226.5 c 128,-1,57
 145 1206 145 1206 145 1176 c 0,58,59
 145 1102 145 1102 276 1063 c 0,60,61
 382 1028 382 1028 473 1008 c 1,62,-1
 276 954 l 2,63,64
 145 922 145 922 145 840 c 0,0,1
EndSplineSet
EndChar
StartChar: plus
Encoding: 43 43 14
Width: 1501
GlyphClass: 2
Flags: W
Fore
68 633 m 1,0,-1
 698 633 l 1,1,-1
 698 0 l 1,2,-1
 797 0 l 1,3,-1
 797 633 l 1,4,-1
 1430 633 l 1,5,-1
 1430 731 l 1,6,-1
 797 731 l 1,7,-1
 797 1364 l 1,8,-1
 698 1364 l 1,9,-1
 698 731 l 1,10,-1
 68 731 l 1,11,-1
 68 633 l 1,0,-1
EndSplineSet
EndChar
StartChar: comma
Encoding: 44 44 15
Width: 512
GlyphClass: 2
Flags: W
Fore
111 80 m 0,0,1
 111 -26 111 -26 213 -27 c 0,2,3
 221 -27 221 -27 234.5 -22.5 c 128,-1,4
 248 -18 248 -18 262 -13 c 128,-1,5
 276 -8 276 -8 286.5 -4 c 128,-1,6
 297 0 297 0 299 0 c 0,7,8
 326 0 326 0 326 -39 c 0,9,10
 326 -82 326 -82 308.5 -123 c 128,-1,11
 291 -164 291 -164 262 -197.5 c 128,-1,12
 233 -231 233 -231 193.5 -257 c 128,-1,13
 154 -283 154 -283 111 -295 c 1,14,-1
 111 -338 l 1,15,16
 236 -305 236 -305 317 -223 c 0,17,18
 407 -133 407 -133 408 -10 c 0,19,20
 408 70 408 70 365 131 c 0,21,22
 320 201 320 201 240 201 c 0,23,24
 187 201 187 201 149 167 c 128,-1,25
 111 133 111 133 111 80 c 0,0,1
EndSplineSet
EndChar
StartChar: hyphen
Encoding: 45 45 16
Width: 669
GlyphClass: 2
Flags: W
Fore
82 381 m 1,0,-1
 600 381 l 1,1,-1
 600 539 l 1,2,-1
 82 539 l 1,3,-1
 82 381 l 1,0,-1
EndSplineSet
EndChar
StartChar: period
Encoding: 46 46 17
Width: 512
GlyphClass: 2
Flags: W
Fore
145 82 m 256,0,1
 145 35 145 35 177 4 c 128,-1,2
 209 -27 209 -27 256 -27 c 256,3,4
 303 -27 303 -27 335 4 c 128,-1,5
 367 35 367 35 367 82 c 256,6,7
 367 129 367 129 335 161 c 128,-1,8
 303 193 303 193 256 193 c 256,9,10
 209 193 209 193 177 161 c 128,-1,11
 145 129 145 129 145 82 c 256,0,1
EndSplineSet
EndChar
StartChar: slash
Encoding: 47 47 18
Width: 569
GlyphClass: 2
Flags: W
Fore
0 -27 m 1,0,-1
 80 -27 l 1,1,-1
 569 1421 l 1,2,-1
 492 1421 l 1,3,-1
 0 -27 l 1,0,-1
EndSplineSet
EndChar
StartChar: zero
Encoding: 48 48 19
Width: 1024
GlyphClass: 2
Flags: W
Fore
74 678 m 256,0,1
 74 422 74 422 168 225 c 0,2,3
 287 -27 287 -27 512 -27 c 0,4,5
 735 -27 735 -27 856 225 c 0,6,7
 950 422 950 422 950 678 c 256,8,9
 950 934 950 934 856 1130 c 0,10,11
 737 1384 737 1384 512 1384 c 256,12,13
 287 1384 287 1384 168 1130 c 0,14,15
 74 934 74 934 74 678 c 256,0,1
270 612 m 0,16,17
 270 1323 270 1323 512 1323 c 0,18,19
 659 1323 659 1323 717 1094 c 0,20,21
 754 953 754 953 754 745 c 0,22,23
 754 32 754 32 512 33 c 0,24,25
 373 33 373 33 311 264 c 0,26,27
 270 422 270 422 270 612 c 0,16,17
EndSplineSet
EndChar
StartChar: one
Encoding: 49 49 20
Width: 1024
GlyphClass: 2
Flags: W
Fore
240 1223 m 1,0,-1
 254 1192 l 1,1,2
 322 1223 322 1223 358 1223 c 0,3,4
 413 1223 413 1223 430 1155 c 0,5,6
 438 1124 438 1124 438 1044 c 2,7,-1
 438 215 l 2,8,9
 438 104 438 104 406 72 c 0,10,11
 371 37 371 37 264 37 c 1,12,-1
 264 0 l 1,13,-1
 774 0 l 1,14,-1
 774 37 l 1,15,16
 655 37 655 37 625 98 c 0,17,18
 605 137 605 137 604 268 c 2,19,-1
 604 1384 l 1,20,-1
 569 1384 l 1,21,-1
 240 1223 l 1,0,-1
EndSplineSet
EndChar
StartChar: two
Encoding: 50 50 21
Width: 1024
GlyphClass: 2
Flags: W
Fore
43 0 m 1,0,-1
 844 0 l 1,1,-1
 938 260 l 1,2,-1
 901 260 l 1,3,4
 852 151 852 151 680 152 c 2,5,-1
 258 152 l 1,6,7
 555 451 555 451 635 553 c 0,8,9
 856 829 856 829 856 1028 c 0,10,11
 856 1186 856 1186 741 1288 c 0,12,13
 628 1384 628 1384 471 1384 c 0,14,15
 141 1384 141 1384 84 1001 c 1,16,-1
 121 1001 l 1,17,18
 150 1105 150 1105 230.5 1169 c 128,-1,19
 311 1233 311 1233 422 1233 c 0,20,21
 543 1233 543 1233 614 1143 c 0,22,23
 682 1059 682 1059 682 936 c 0,24,25
 682 735 682 735 442 446 c 0,26,27
 401 399 401 399 302 297 c 128,-1,28
 203 195 203 195 43 37 c 1,29,-1
 43 0 l 1,0,-1
EndSplineSet
EndChar
StartChar: three
Encoding: 51 51 22
Width: 1024
GlyphClass: 2
Flags: W
Fore
82 80 m 0,0,1
 82 -26 82 -26 311 -27 c 0,2,3
 540 -27 540 -27 692 90 c 0,4,5
 854 215 854 215 854 444 c 0,6,7
 854 704 854 704 600 803 c 1,8,9
 786 953 786 953 786 1106 c 0,10,11
 786 1231 786 1231 690 1309 c 0,12,13
 596 1385 596 1385 467 1384 c 0,14,15
 207 1384 207 1384 104 1098 c 1,16,-1
 135 1081 l 1,17,18
 229 1247 229 1247 391 1247 c 0,19,20
 495 1247 495 1247 558 1183.5 c 128,-1,21
 621 1120 621 1120 621 1016 c 0,22,23
 621 887 621 887 528 801 c 0,24,25
 446 721 446 721 311 702 c 1,26,-1
 311 672 l 1,27,28
 477 672 477 672 586 592 c 0,29,30
 705 504 705 504 705 340 c 0,31,32
 705 227 705 227 635 145 c 128,-1,33
 565 63 565 63 455 63 c 0,34,35
 402 63 402 63 303 109 c 0,36,37
 199 156 199 156 166 156 c 0,38,39
 82 156 82 156 82 80 c 0,0,1
EndSplineSet
EndChar
StartChar: four
Encoding: 52 52 23
Width: 1024
GlyphClass: 2
Flags: W
Fore
31 356 m 1,0,-1
 604 356 l 1,1,-1
 604 0 l 1,2,-1
 770 0 l 1,3,-1
 770 356 l 1,4,-1
 952 356 l 1,5,-1
 952 500 l 1,6,-1
 770 500 l 1,7,-1
 770 1384 l 1,8,-1
 662 1384 l 1,9,-1
 31 485 l 1,10,-1
 31 356 l 1,0,-1
129 500 m 1,11,-1
 604 1167 l 1,12,-1
 604 500 l 1,13,-1
 129 500 l 1,11,-1
EndSplineSet
EndChar
StartChar: five
Encoding: 53 53 24
Width: 1024
GlyphClass: 2
Flags: W
Fore
98 106 m 0,0,1
 98 34 98 34 182 0 c 0,2,3
 241 -27 241 -27 328 -27 c 0,4,5
 553 -27 553 -27 709 117 c 0,6,7
 867 262 867 262 866 483 c 0,8,9
 866 700 866 700 694 846 c 0,10,11
 542 975 542 975 313 1004 c 1,12,-1
 408 1192 l 1,13,-1
 815 1192 l 1,14,-1
 889 1356 l 1,15,-1
 403 1356 l 1,16,-1
 143 827 l 1,17,18
 379 827 379 827 543 723 c 0,19,20
 738 600 738 600 737 379 c 0,21,22
 737 254 737 254 649 166 c 0,23,24
 563 78 563 78 438 78 c 0,25,26
 395 78 395 78 301 129 c 128,-1,27
 207 180 207 180 178 180 c 0,28,29
 98 180 98 180 98 106 c 0,0,1
EndSplineSet
EndChar
StartChar: six
Encoding: 54 54 25
Width: 1024
GlyphClass: 2
Flags: W
Fore
88 535 m 0,0,1
 88 320 88 320 195 158 c 0,2,3
 314 -26 314 -26 520 -27 c 0,4,5
 704 -27 704 -27 827 123 c 0,6,7
 944 264 944 264 944 453 c 0,8,9
 944 619 944 619 856 731 c 0,10,11
 762 856 762 856 600 856 c 0,12,13
 440 856 440 856 313 756 c 1,14,15
 368 998 368 998 516 1161 c 0,16,17
 688 1347 688 1347 918 1348 c 1,18,-1
 918 1384 l 1,19,20
 560 1384 560 1384 324 1139 c 0,21,22
 88 895 88 895 88 535 c 0,0,1
281 477 m 0,23,24
 281 569 281 569 299 684 c 1,25,26
 428 770 428 770 506 770 c 0,27,28
 641 770 641 770 711 621 c 0,29,30
 766 500 766 500 766 352 c 0,31,32
 766 227 766 227 715 139 c 0,33,34
 654 33 654 33 537 33 c 0,35,36
 406 33 406 33 336 199 c 0,37,38
 281 323 281 323 281 477 c 0,23,24
EndSplineSet
EndChar
StartChar: seven
Encoding: 55 55 26
Width: 1024
GlyphClass: 2
Flags: W
Fore
76 1034 m 1,0,-1
 104 1024 l 1,1,2
 157 1116 157 1116 221 1154 c 128,-1,3
 285 1192 285 1192 389 1192 c 2,4,-1
 774 1192 l 1,5,-1
 369 -27 l 1,6,-1
 481 -27 l 1,7,-1
 932 1319 l 1,8,-1
 932 1356 l 1,9,-1
 205 1356 l 1,10,-1
 76 1034 l 1,0,-1
EndSplineSet
EndChar
StartChar: eight
Encoding: 56 56 27
Width: 1024
GlyphClass: 2
Flags: W
Fore
123 303 m 0,0,1
 123 149 123 149 244 57 c 0,2,3
 357 -27 357 -27 512 -27 c 0,4,5
 674 -27 674 -27 786 63 c 0,6,7
 905 161 905 161 905 324 c 0,8,9
 905 449 905 449 803 569 c 0,10,11
 750 630 750 630 596 752 c 1,12,13
 721 828 721 828 782 889 c 0,14,15
 876 983 876 983 877 1090 c 0,16,17
 877 1227 877 1227 756 1311 c 0,18,19
 647 1385 647 1385 506 1384 c 0,20,21
 352 1384 352 1384 252 1303 c 0,22,23
 141 1213 141 1213 141 1065 c 0,24,25
 141 948 141 948 221 848 c 0,26,27
 266 793 266 793 393 684 c 1,28,29
 123 493 123 493 123 303 c 0,0,1
276 315 m 0,30,31
 276 520 276 520 438 645 c 1,32,33
 588 522 588 522 643 465 c 0,34,35
 762 340 762 340 762 236 c 0,36,37
 762 189 762 189 743.5 152 c 128,-1,38
 725 115 725 115 692 88 c 128,-1,39
 659 61 659 61 617 47 c 128,-1,40
 575 33 575 33 528 33 c 0,41,42
 411 33 411 33 340 117 c 0,43,44
 276 192 276 192 276 315 c 0,30,31
285 1130 m 0,45,46
 285 1216 285 1216 356 1272 c 0,47,48
 419 1323 419 1323 510 1323 c 0,49,50
 614 1323 614 1323 673.5 1265.5 c 128,-1,51
 733 1208 733 1208 733 1104 c 0,52,53
 733 1004 733 1004 680 926 c 0,54,55
 664 899 664 899 630 865 c 128,-1,56
 596 831 596 831 549 788 c 1,57,58
 479 845 479 845 437 882.5 c 128,-1,59
 395 920 395 920 379 936 c 0,60,61
 285 1036 285 1036 285 1130 c 0,45,46
EndSplineSet
EndChar
StartChar: nine
Encoding: 57 57 28
Width: 1024
GlyphClass: 2
Flags: W
Fore
80 899 m 0,0,1
 80 739 80 739 170 621 c 0,2,3
 266 494 266 494 424 494 c 0,4,5
 559 494 559 494 711 594 c 1,6,7
 648 346 648 346 506 193 c 0,8,9
 340 9 340 9 109 8 c 1,10,-1
 109 -27 l 1,11,12
 461 -27 461 -27 698.5 217 c 128,-1,13
 936 461 936 461 936 817 c 0,14,15
 936 1034 936 1034 829 1196 c 0,16,17
 706 1384 706 1384 504 1384 c 0,18,19
 309 1384 309 1384 190 1235 c 0,20,21
 80 1096 80 1096 80 899 c 0,0,1
258 997 m 0,22,23
 258 1124 258 1124 307 1214 c 0,24,25
 366 1323 366 1323 487 1323 c 0,26,27
 620 1323 620 1323 690 1155 c 0,28,29
 745 1026 745 1026 745 872 c 0,30,31
 745 804 745 804 727 670 c 1,32,33
 637 584 637 584 506 584 c 0,34,35
 373 584 373 584 309 733 c 0,36,37
 258 847 258 847 258 997 c 0,22,23
EndSplineSet
EndChar
StartChar: colon
Encoding: 58 58 29
Width: 569
GlyphClass: 2
Flags: W
Fore
174 82 m 256,0,1
 174 35 174 35 206 4 c 128,-1,2
 238 -27 238 -27 285 -27 c 256,3,4
 332 -27 332 -27 363.5 4 c 128,-1,5
 395 35 395 35 395 82 c 256,6,7
 395 129 395 129 363.5 161 c 128,-1,8
 332 193 332 193 285 193 c 256,9,10
 238 193 238 193 206 161 c 128,-1,11
 174 129 174 129 174 82 c 256,0,1
174 834 m 256,12,13
 174 787 174 787 206 755 c 128,-1,14
 238 723 238 723 285 723 c 256,15,16
 332 723 332 723 363.5 754.5 c 128,-1,17
 395 786 395 786 395 834 c 0,18,19
 395 881 395 881 363.5 912.5 c 128,-1,20
 332 944 332 944 285 944 c 256,21,22
 238 944 238 944 206 912.5 c 128,-1,23
 174 881 174 881 174 834 c 256,12,13
EndSplineSet
EndChar
StartChar: semicolon
Encoding: 59 59 30
Width: 569
GlyphClass: 2
Flags: W
Fore
139 80 m 0,0,1
 139 -26 139 -26 242 -27 c 0,2,3
 250 -27 250 -27 263 -22.5 c 128,-1,4
 276 -18 276 -18 290.5 -13 c 128,-1,5
 305 -8 305 -8 315.5 -4 c 128,-1,6
 326 0 326 0 328 0 c 0,7,8
 355 0 355 0 354 -39 c 0,9,10
 354 -82 354 -82 336.5 -123 c 128,-1,11
 319 -164 319 -164 290.5 -197.5 c 128,-1,12
 262 -231 262 -231 222 -257 c 128,-1,13
 182 -283 182 -283 139 -295 c 1,14,-1
 139 -338 l 1,15,16
 264 -305 264 -305 346 -223 c 0,17,18
 436 -133 436 -133 436 -10 c 0,19,20
 436 70 436 70 393 131 c 0,21,22
 348 201 348 201 268 201 c 0,23,24
 215 201 215 201 177 167 c 128,-1,25
 139 133 139 133 139 80 c 0,0,1
174 834 m 256,26,27
 174 787 174 787 206 755 c 128,-1,28
 238 723 238 723 285 723 c 256,29,30
 332 723 332 723 363.5 754.5 c 128,-1,31
 395 786 395 786 395 834 c 0,32,33
 395 881 395 881 363.5 912.5 c 128,-1,34
 332 944 332 944 285 944 c 256,35,36
 238 944 238 944 206 912.5 c 128,-1,37
 174 881 174 881 174 834 c 256,26,27
EndSplineSet
EndChar
StartChar: less
Encoding: 60 60 31
Width: 978
GlyphClass: 2
Flags: W
Fore
68 266 m 0,0,1
 68 94 68 94 193 -25 c 0,2,3
 320 -146 320 -146 487 -145 c 0,4,5
 655 -145 655 -145 782 -25 c 0,6,7
 907 94 907 94 907 266 c 0,8,9
 907 420 907 420 801 547 c 0,10,11
 688 684 688 684 539 684 c 1,12,-1
 539 1264 l 1,13,-1
 578 1264 l 1,14,-1
 688 1112 l 1,15,-1
 764 1112 l 1,16,-1
 492 1497 l 1,17,-1
 215 1112 l 1,18,-1
 287 1112 l 1,19,-1
 401 1264 l 1,20,-1
 440 1264 l 1,21,-1
 440 684 l 1,22,23
 286 684 286 684 174 549 c 0,24,25
 68 424 68 424 68 266 c 0,0,1
158 264 m 0,26,27
 158 397 158 397 256 500 c 0,28,29
 354 604 354 604 485 604 c 0,30,31
 622 604 622 604 721 504 c 0,32,33
 819 402 819 402 819 264 c 0,34,35
 819 135 819 135 717 39 c 0,36,37
 617 -55 617 -55 487 -55 c 0,38,39
 358 -55 358 -55 258 39 c 128,-1,40
 158 133 158 133 158 264 c 0,26,27
EndSplineSet
EndChar
StartChar: equal
Encoding: 61 61 32
Width: 1746
GlyphClass: 2
Flags: W
Fore
68 410 m 1,0,-1
 1675 410 l 1,1,-1
 1675 510 l 1,2,-1
 68 510 l 1,3,-1
 68 410 l 1,0,-1
68 762 m 1,4,-1
 1675 762 l 1,5,-1
 1675 860 l 1,6,-1
 68 860 l 1,7,-1
 68 762 l 1,4,-1
EndSplineSet
EndChar
StartChar: greater
Encoding: 62 62 33
Width: 1693
GlyphClass: 2
Flags: W
Fore
68 0 m 1,0,-1
 1624 610 l 1,1,-1
 1624 717 l 1,2,-1
 68 1313 l 1,3,-1
 68 1221 l 1,4,-1
 1505 664 l 1,5,-1
 68 88 l 1,6,-1
 68 0 l 1,0,-1
EndSplineSet
EndChar
StartChar: question
Encoding: 63 63 34
Width: 909
GlyphClass: 2
Flags: W
Fore
88 1098 m 0,0,1
 88 1043 88 1043 115 997 c 0,2,3
 146 944 146 944 199 944 c 0,4,5
 234 944 234 944 256.5 969.5 c 128,-1,6
 279 995 279 995 279 1030 c 0,7,8
 279 1053 279 1053 248 1114.5 c 128,-1,9
 217 1176 217 1176 217 1202 c 0,10,11
 217 1268 217 1268 283 1303 c 0,12,13
 336 1332 336 1332 408 1331 c 0,14,15
 519 1331 519 1331 582 1243 c 0,16,17
 637 1165 637 1165 637 1051 c 0,18,19
 637 973 637 973 522 709 c 0,20,21
 407 449 407 449 408 319 c 1,22,-1
 449 319 l 1,23,24
 449 469 449 469 545 596 c 0,25,26
 604 668 604 668 650 723 c 128,-1,27
 696 778 696 778 727 813 c 0,28,29
 823 934 823 934 823 1069 c 0,30,31
 823 1223 823 1223 713 1309 c 0,32,33
 611 1387 611 1387 455 1386 c 0,34,35
 305 1386 305 1386 205 1317 c 0,36,37
 88 1239 88 1239 88 1098 c 0,0,1
319 82 m 256,38,39
 319 35 319 35 351 4 c 128,-1,40
 383 -27 383 -27 430 -27 c 256,41,42
 477 -27 477 -27 509 4 c 128,-1,43
 541 35 541 35 541 82 c 256,44,45
 541 129 541 129 509 161 c 128,-1,46
 477 193 477 193 430 193 c 256,47,48
 383 193 383 193 351 161 c 128,-1,49
 319 129 319 129 319 82 c 256,38,39
EndSplineSet
EndChar
StartChar: at
Encoding: 64 64 35
Width: 1886
GlyphClass: 2
Flags: W
Fore
100 440 m 0,0,1
 100 53 100 53 344 -195 c 0,2,3
 586 -441 586 -441 977 -440 c 0,4,5
 1272 -440 1272 -440 1509 -272 c 0,6,7
 1755 -106 1755 -106 1839 172 c 1,8,-1
 1782 172 l 1,9,10
 1671 -88 1671 -88 1462 -233.5 c 128,-1,11
 1253 -379 1253 -379 973 -379 c 0,12,13
 621 -379 621 -379 408 -160 c 128,-1,14
 195 59 195 59 195 414 c 0,15,16
 195 809 195 809 424 1081 c 0,17,18
 666 1370 666 1370 1057 1370 c 0,19,20
 1340 1370 1340 1370 1520 1200 c 0,21,22
 1700 1032 1700 1032 1700 750 c 0,23,24
 1700 545 1700 545 1591 344 c 0,25,26
 1458 104 1458 104 1280 104 c 0,27,28
 1202 104 1202 104 1202 180 c 0,29,30
 1202 301 1202 301 1284 561 c 0,31,32
 1325 694 1325 694 1357 792.5 c 128,-1,33
 1389 891 1389 891 1411 956 c 1,34,-1
 1255 936 l 1,35,-1
 1221 831 l 1,36,37
 1213 890 1213 890 1163.5 926.5 c 128,-1,38
 1114 963 1114 963 1053 963 c 0,39,40
 846 963 846 963 666 711 c 0,41,42
 500 480 500 480 500 258 c 0,43,44
 500 170 500 170 547 104 c 0,45,46
 598 30 598 30 684 31 c 0,47,48
 842 31 842 31 1069 309 c 1,49,-1
 1073 305 l 1,50,51
 1065 266 1065 266 1061 232.5 c 128,-1,52
 1057 199 1057 199 1057 168 c 0,53,54
 1057 31 1057 31 1210 31 c 0,55,56
 1464 31 1464 31 1622 262 c 0,57,58
 1761 469 1761 469 1761 735 c 0,59,60
 1761 1057 1761 1057 1565 1239 c 0,61,62
 1370 1421 1370 1421 1044 1421 c 0,63,64
 628 1421 628 1421 365 1139 c 0,65,66
 100 858 100 858 100 440 c 0,0,1
659 295 m 0,67,68
 659 447 659 447 786 672 c 0,69,70
 923 918 923 918 1061 918 c 0,71,72
 1120 918 1120 918 1153 876 c 128,-1,73
 1186 834 1186 834 1186 772 c 0,74,75
 1186 592 1186 592 1067 387 c 0,76,77
 932 151 932 151 774 152 c 0,78,79
 719 152 719 152 689 195 c 128,-1,80
 659 238 659 238 659 295 c 0,67,68
EndSplineSet
EndChar
StartChar: A
Encoding: 65 65 36
Width: 1478
GlyphClass: 2
Flags: W
Fore
20 0 m 1,0,-1
 446 0 l 1,1,-1
 446 37 l 1,2,3
 288 37 288 37 289 127 c 0,4,5
 289 176 289 176 416 455 c 1,6,-1
 940 455 l 1,7,8
 1063 172 1063 172 1063 129 c 0,9,10
 1063 37 1063 37 924 37 c 1,11,-1
 924 0 l 1,12,-1
 1458 0 l 1,13,-1
 1458 37 l 1,14,15
 1358 37 1358 37 1298 115 c 0,16,17
 1284 133 1284 133 1263.5 174 c 128,-1,18
 1243 215 1243 215 1217 281 c 2,19,-1
 756 1386 l 1,20,-1
 719 1386 l 1,21,-1
 231 244 l 2,22,23
 211 195 211 195 191.5 161 c 128,-1,24
 172 127 172 127 156 106 c 0,25,26
 105 47 105 47 20 37 c 1,27,-1
 20 0 l 1,0,-1
446 528 m 1,28,-1
 682 1075 l 1,29,-1
 913 528 l 1,30,-1
 446 528 l 1,28,-1
EndSplineSet
EndChar
StartChar: B
Encoding: 66 66 37
Width: 1366
GlyphClass: 2
Flags: W
Fore
39 0 m 1,0,-1
 733 0 l 2,1,2
 946 0 946 0 1085 80 c 0,3,4
 1255 178 1255 178 1255 377 c 0,5,6
 1255 500 1255 500 1163 590 c 0,7,8
 1081 672 1081 672 952 694 c 1,9,10
 1058 725 1058 725 1125 803 c 128,-1,11
 1192 881 1192 881 1192 991 c 0,12,13
 1192 1188 1192 1188 1018 1282 c 0,14,15
 879 1356 879 1356 666 1356 c 2,16,-1
 39 1356 l 1,17,-1
 39 1319 l 1,18,19
 170 1319 170 1319 205 1270 c 0,20,21
 232 1235 232 1235 231 1096 c 2,22,-1
 231 260 l 2,23,24
 231 127 231 127 203 86 c 0,25,26
 168 37 168 37 39 37 c 1,27,-1
 39 0 l 1,0,-1
424 100 m 1,28,-1
 424 653 l 1,29,30
 453 657 453 657 496 660.5 c 128,-1,31
 539 664 539 664 596 664 c 0,32,33
 770 664 770 664 885 598 c 0,34,35
 1026 518 1026 518 1026 354 c 0,36,37
 1026 211 1026 211 907 137 c 0,38,39
 807 74 807 74 655 74 c 0,40,41
 528 73 528 73 424 100 c 1,28,-1
424 745 m 1,42,-1
 424 1266 l 1,43,44
 508 1289 508 1289 600 1288 c 0,45,46
 754 1288 754 1288 860 1223 c 0,47,48
 983 1145 983 1145 983 999 c 0,49,50
 983 864 983 864 881 793 c 0,51,52
 791 732 791 732 649 731 c 0,53,54
 571 731 571 731 515 734 c 128,-1,55
 459 737 459 737 424 745 c 1,42,-1
EndSplineSet
EndChar
StartChar: C
Encoding: 67 67 38
Width: 1366
GlyphClass: 2
Flags: W
Fore
76 651 m 0,0,1
 76 350 76 350 254 164 c 0,2,3
 434 -29 434 -29 733 -29 c 0,4,5
 1108 -29 1108 -29 1294 317 c 1,6,-1
 1264 338 l 1,7,8
 1172 201 1172 201 1075 133 c 0,9,10
 966 57 966 57 811 57 c 0,11,12
 557 57 557 57 424 233 c 0,13,14
 305 389 305 389 305 653 c 0,15,16
 305 927 305 927 403 1100 c 0,17,18
 522 1315 522 1315 778 1315 c 0,19,20
 1128 1315 1128 1315 1233 926 c 1,21,-1
 1264 926 l 1,22,-1
 1233 1386 l 1,23,-1
 1198 1386 l 1,24,25
 1186 1292 1186 1292 1118 1292 c 0,26,27
 1091 1292 1091 1292 965 1337 c 0,28,29
 834 1384 834 1384 770 1384 c 0,30,31
 459 1384 459 1384 264 1171 c 0,32,33
 76 964 76 964 76 651 c 0,0,1
EndSplineSet
EndChar
StartChar: D
Encoding: 68 68 39
Width: 1478
GlyphClass: 2
Flags: W
Fore
39 0 m 1,0,-1
 670 0 l 2,1,2
 998 0 998 0 1196 176 c 0,3,4
 1403 358 1403 358 1403 684 c 0,5,6
 1403 1057 1403 1057 1159 1221 c 0,7,8
 956 1356 956 1356 563 1356 c 2,9,-1
 39 1356 l 1,10,-1
 39 1319 l 1,11,12
 170 1319 170 1319 205 1270 c 0,13,14
 232 1235 232 1235 231 1096 c 2,15,-1
 231 260 l 2,16,17
 231 127 231 127 203 86 c 0,18,19
 168 37 168 37 39 37 c 1,20,-1
 39 0 l 1,0,-1
424 100 m 1,21,-1
 424 1253 l 1,22,23
 528 1282 528 1282 629 1282 c 0,24,25
 893 1282 893 1282 1036 1108 c 0,26,27
 1173 946 1173 946 1174 678 c 0,28,29
 1174 414 1174 414 1038 252 c 0,30,31
 893 74 893 74 637 74 c 0,32,33
 533 73 533 73 424 100 c 1,21,-1
EndSplineSet
EndChar
StartChar: E
Encoding: 69 69 40
Width: 1251
GlyphClass: 2
Flags: W
Fore
39 0 m 1,0,-1
 1090 0 l 1,1,-1
 1204 340 l 1,2,-1
 1165 340 l 1,3,4
 1124 270 1124 270 1090.5 223 c 128,-1,5
 1057 176 1057 176 1028 152 c 0,6,7
 940 74 940 74 813 74 c 2,8,-1
 535 74 l 2,9,10
 474 74 474 74 449 95.5 c 128,-1,11
 424 117 424 117 424 176 c 2,12,-1
 424 672 l 1,13,-1
 696 672 l 2,14,15
 825 672 825 672 872 637 c 0,16,17
 921 596 921 596 934 471 c 1,18,-1
 971 471 l 1,19,-1
 971 944 l 1,20,-1
 934 944 l 1,21,22
 934 819 934 819 874 778 c 0,23,24
 827 745 827 745 696 745 c 2,25,-1
 424 745 l 1,26,-1
 424 1282 l 1,27,-1
 770 1282 l 2,28,29
 915 1282 915 1282 971 1239 c 0,30,31
 1028 1200 1028 1200 1057 1059 c 1,32,-1
 1098 1059 l 1,33,-1
 1079 1356 l 1,34,-1
 39 1356 l 1,35,-1
 39 1319 l 1,36,37
 170 1319 170 1319 205 1270 c 0,38,39
 232 1235 232 1235 231 1096 c 2,40,-1
 231 260 l 2,41,42
 231 127 231 127 203 86 c 0,43,44
 168 37 168 37 39 37 c 1,45,-1
 39 0 l 1,0,-1
EndSplineSet
EndChar
StartChar: F
Encoding: 70 70 41
Width: 1138
GlyphClass: 2
Flags: W
Fore
39 0 m 1,0,-1
 616 0 l 1,1,-1
 616 37 l 1,2,3
 483 37 483 37 451 86 c 0,4,5
 424 121 424 121 424 260 c 2,6,-1
 424 666 l 1,7,-1
 645 666 l 2,8,9
 758 666 758 666 803 627 c 128,-1,10
 848 588 848 588 848 477 c 1,11,-1
 885 477 l 1,12,-1
 885 936 l 1,13,-1
 848 936 l 1,14,15
 848 825 848 825 803 786.5 c 128,-1,16
 758 748 758 748 645 748 c 2,17,-1
 424 748 l 1,18,-1
 424 1282 l 1,19,-1
 698 1282 l 2,20,21
 845 1282 845 1282 911 1241 c 0,22,23
 983 1196 983 1196 1024 1059 c 1,24,-1
 1059 1059 l 1,25,-1
 1047 1356 l 1,26,-1
 39 1356 l 1,27,-1
 39 1319 l 1,28,29
 170 1319 170 1319 205 1270 c 0,30,31
 232 1235 232 1235 231 1096 c 2,32,-1
 231 260 l 2,33,34
 231 127 231 127 203 86 c 0,35,36
 168 37 168 37 39 37 c 1,37,-1
 39 0 l 1,0,-1
EndSplineSet
EndChar
StartChar: G
Encoding: 71 71 42
Width: 1478
GlyphClass: 2
Flags: W
Fore
76 655 m 0,0,1
 76 331 76 331 297 145 c 0,2,3
 504 -29 504 -29 831 -29 c 0,4,5
 1083 -29 1083 -29 1298 88 c 1,6,-1
 1298 512 l 2,7,8
 1298 612 1298 612 1323 653 c 0,9,10
 1356 702 1356 702 1452 702 c 1,11,-1
 1452 739 l 1,12,-1
 913 739 l 1,13,-1
 913 702 l 1,14,15
 1044 702 1044 702 1079 653 c 0,16,17
 1106 618 1106 618 1106 479 c 2,18,-1
 1106 113 l 1,19,20
 991 39 991 39 831 39 c 0,21,22
 575 39 575 39 432 250 c 0,23,24
 305 436 305 436 305 700 c 0,25,26
 305 956 305 956 424 1124 c 0,27,28
 559 1317 559 1317 805 1317 c 0,29,30
 1151 1317 1151 1317 1257 958 c 1,31,-1
 1294 958 l 1,32,-1
 1260 1386 l 1,33,-1
 1223 1386 l 1,34,35
 1224 1376 1224 1376 1224 1367 c 0,36,37
 1224 1301 1224 1301 1171 1300 c 0,38,39
 1114 1300 1114 1300 985 1343 c 128,-1,40
 856 1386 856 1386 793 1386 c 0,41,42
 480 1386 480 1386 276 1178 c 0,43,44
 76 966 76 966 76 655 c 0,0,1
EndSplineSet
EndChar
StartChar: H
Encoding: 72 72 43
Width: 1478
GlyphClass: 2
Flags: W
Fore
39 0 m 1,0,-1
 616 0 l 1,1,-1
 616 37 l 1,2,3
 483 37 483 37 451 86 c 0,4,5
 424 121 424 121 424 260 c 2,6,-1
 424 653 l 1,7,-1
 1055 653 l 1,8,-1
 1055 260 l 2,9,10
 1055 127 1055 127 1026 86 c 0,11,12
 991 37 991 37 862 37 c 1,13,-1
 862 0 l 1,14,-1
 1440 0 l 1,15,-1
 1440 37 l 1,16,17
 1307 37 1307 37 1274 86 c 0,18,19
 1247 121 1247 121 1247 260 c 2,20,-1
 1247 1096 l 2,21,22
 1247 1229 1247 1229 1276 1270 c 0,23,24
 1309 1319 1309 1319 1440 1319 c 1,25,-1
 1440 1356 l 1,26,-1
 862 1356 l 1,27,-1
 862 1319 l 1,28,29
 993 1319 993 1319 1028 1270 c 0,30,31
 1055 1235 1055 1235 1055 1096 c 2,32,-1
 1055 727 l 1,33,-1
 424 727 l 1,34,-1
 424 1096 l 2,35,36
 424 1229 424 1229 453 1270 c 0,37,38
 486 1319 486 1319 616 1319 c 1,39,-1
 616 1356 l 1,40,-1
 39 1356 l 1,41,-1
 39 1319 l 1,42,43
 170 1319 170 1319 205 1270 c 0,44,45
 232 1235 232 1235 231 1096 c 2,46,-1
 231 260 l 2,47,48
 231 127 231 127 203 86 c 0,49,50
 168 37 168 37 39 37 c 1,51,-1
 39 0 l 1,0,-1
EndSplineSet
EndChar
StartChar: I
Encoding: 73 73 44
Width: 681
GlyphClass: 2
Flags: W
Fore
51 0 m 1,0,-1
 629 0 l 1,1,-1
 629 37 l 1,2,3
 496 37 496 37 463 86 c 0,4,5
 436 121 436 121 436 260 c 2,6,-1
 436 1096 l 2,7,8
 436 1229 436 1229 465 1270 c 0,9,10
 498 1319 498 1319 629 1319 c 1,11,-1
 629 1356 l 1,12,-1
 51 1356 l 1,13,-1
 51 1319 l 1,14,15
 182 1319 182 1319 217 1270 c 0,16,17
 244 1235 244 1235 244 1096 c 2,18,-1
 244 260 l 2,19,20
 244 127 244 127 215 86 c 0,21,22
 180 37 180 37 51 37 c 1,23,-1
 51 0 l 1,0,-1
EndSplineSet
EndChar
StartChar: J
Encoding: 74 74 45
Width: 796
GlyphClass: 2
Flags: W
Fore
45 121 m 0,0,1
 45 43 45 43 115 4 c 0,2,3
 172 -29 172 -29 252 -29 c 0,4,5
 426 -29 426 -29 518 119 c 0,6,7
 594 240 594 240 594 428 c 2,8,-1
 594 1096 l 2,9,10
 594 1229 594 1229 623 1270 c 0,11,12
 656 1319 656 1319 786 1319 c 1,13,-1
 786 1356 l 1,14,-1
 209 1356 l 1,15,-1
 209 1319 l 1,16,17
 340 1319 340 1319 375 1270 c 0,18,19
 402 1235 402 1235 401 1096 c 2,20,-1
 401 215 l 2,21,22
 401 39 401 39 334 39 c 0,23,24
 318 39 318 39 254 133 c 128,-1,25
 190 227 190 227 147 227 c 0,26,27
 45 227 45 227 45 121 c 0,0,1
EndSplineSet
EndChar
StartChar: K
Encoding: 75 75 46
Width: 1478
GlyphClass: 2
Flags: W
Fore
39 0 m 1,0,-1
 616 0 l 1,1,-1
 616 37 l 1,2,3
 483 37 483 37 451 86 c 0,4,5
 424 121 424 121 424 260 c 2,6,-1
 424 676 l 1,7,-1
 874 231 l 2,8,9
 964 141 964 141 965 100 c 0,10,11
 965 37 965 37 856 37 c 1,12,-1
 856 0 l 1,13,-1
 1501 0 l 1,14,-1
 1501 37 l 1,15,16
 1392 37 1392 37 1278 115 c 0,17,18
 1243 138 1243 138 1199 177.5 c 128,-1,19
 1155 217 1155 217 1098 272 c 2,20,-1
 614 752 l 1,21,-1
 967 1104 l 2,22,23
 1182 1319 1182 1319 1323 1319 c 1,24,-1
 1323 1356 l 1,25,-1
 825 1356 l 1,26,-1
 825 1319 l 1,27,28
 948 1319 948 1319 948 1257 c 0,29,30
 948 1187 948 1187 760 1012 c 2,31,-1
 424 700 l 1,32,-1
 424 1096 l 2,33,34
 424 1229 424 1229 453 1270 c 0,35,36
 486 1319 486 1319 616 1319 c 1,37,-1
 616 1356 l 1,38,-1
 39 1356 l 1,39,-1
 39 1319 l 1,40,41
 170 1319 170 1319 205 1270 c 0,42,43
 232 1235 232 1235 231 1096 c 2,44,-1
 231 260 l 2,45,46
 231 127 231 127 203 86 c 0,47,48
 168 37 168 37 39 37 c 1,49,-1
 39 0 l 1,0,-1
EndSplineSet
EndChar
StartChar: L
Encoding: 76 76 47
Width: 1251
GlyphClass: 2
Flags: W
Fore
39 0 m 1,0,-1
 1087 0 l 1,1,-1
 1204 369 l 1,2,-1
 1171 375 l 1,3,4
 1114 232 1114 232 1044 168 c 0,5,6
 958 88 958 88 819 88 c 2,7,-1
 516 88 l 2,8,9
 450 88 450 88 432 150 c 0,10,11
 424 175 424 175 424 266 c 2,12,-1
 424 1075 l 2,13,14
 424 1225 424 1225 465 1272 c 128,-1,15
 506 1319 506 1319 651 1319 c 1,16,-1
 651 1356 l 1,17,-1
 39 1356 l 1,18,-1
 39 1319 l 1,19,20
 170 1319 170 1319 205 1270 c 0,21,22
 232 1235 232 1235 231 1096 c 2,23,-1
 231 260 l 2,24,25
 231 127 231 127 203 86 c 0,26,27
 168 37 168 37 39 37 c 1,28,-1
 39 0 l 1,0,-1
EndSplineSet
EndChar
StartChar: M
Encoding: 77 77 48
Width: 1820
GlyphClass: 2
Flags: W
Fore
37 0 m 1,0,-1
 510 0 l 1,1,-1
 510 37 l 1,2,3
 387 37 387 37 350 82 c 0,4,5
 317 121 317 121 317 248 c 2,6,-1
 322 1135 l 1,7,-1
 842 0 l 1,8,-1
 874 0 l 1,9,-1
 1397 1135 l 1,10,-1
 1397 260 l 2,11,12
 1397 127 1397 127 1368 86 c 0,13,14
 1333 37 1333 37 1204 37 c 1,15,-1
 1204 0 l 1,16,-1
 1782 0 l 1,17,-1
 1782 37 l 1,18,19
 1649 37 1649 37 1616 86 c 0,20,21
 1589 121 1589 121 1589 260 c 2,22,-1
 1589 1096 l 2,23,24
 1589 1229 1589 1229 1618 1270 c 0,25,26
 1651 1319 1651 1319 1782 1319 c 1,27,-1
 1782 1356 l 1,28,-1
 1399 1356 l 1,29,-1
 913 295 l 1,30,-1
 422 1356 l 1,31,-1
 37 1356 l 1,32,-1
 37 1319 l 1,33,34
 160 1319 160 1319 201 1264 c 0,35,36
 230 1223 230 1223 229 1098 c 2,37,-1
 229 260 l 2,38,39
 229 127 229 127 201 86 c 0,40,41
 166 37 166 37 37 37 c 1,42,-1
 37 0 l 1,0,-1
EndSplineSet
EndChar
StartChar: N
Encoding: 78 78 49
Width: 1478
GlyphClass: 2
Flags: W
Fore
-23 1319 m 1,0,1
 65 1319 65 1319 129 1284 c 0,2,3
 184 1251 184 1251 244 1178 c 1,4,-1
 244 260 l 2,5,6
 244 127 244 127 215 86 c 0,7,8
 180 37 180 37 51 37 c 1,9,-1
 51 0 l 1,10,-1
 524 0 l 1,11,-1
 524 37 l 1,12,13
 391 37 391 37 358 86 c 0,14,15
 331 121 331 121 332 252 c 2,16,-1
 336 1067 l 1,17,-1
 1225 -20 l 1,18,-1
 1262 -20 l 1,19,-1
 1262 1096 l 2,20,21
 1262 1229 1262 1229 1290 1270 c 0,22,23
 1323 1319 1323 1319 1454 1319 c 1,24,-1
 1454 1356 l 1,25,-1
 981 1356 l 1,26,-1
 981 1319 l 1,27,28
 1112 1319 1112 1319 1147 1270 c 0,29,30
 1174 1235 1174 1235 1174 1104 c 2,31,-1
 1169 342 l 1,32,-1
 344 1356 l 1,33,-1
 -23 1356 l 1,34,-1
 -23 1319 l 1,0,1
EndSplineSet
EndChar
StartChar: O
Encoding: 79 79 50
Width: 1478
GlyphClass: 2
Flags: W
Fore
76 678 m 256,0,1
 76 373 76 373 254 176 c 0,2,3
 438 -29 438 -29 739 -29 c 256,4,5
 1040 -29 1040 -29 1225 176 c 0,6,7
 1403 373 1403 373 1403 678 c 256,8,9
 1403 983 1403 983 1225 1180 c 0,10,11
 1041 1387 1041 1387 739 1386 c 0,12,13
 438 1386 438 1386 254 1180 c 0,14,15
 76 983 76 983 76 678 c 256,0,1
305 678 m 0,16,17
 305 938 305 938 391 1102 c 0,18,19
 502 1313 502 1313 739 1313 c 0,20,21
 977 1313 977 1313 1087 1102 c 0,22,23
 1173 938 1173 938 1174 678 c 0,24,25
 1174 416 1174 416 1087 254 c 0,26,27
 976 43 976 43 739 43 c 0,28,29
 501 43 501 43 391 254 c 0,30,31
 305 416 305 416 305 678 c 0,16,17
EndSplineSet
EndChar
StartChar: P
Encoding: 80 80 51
Width: 1138
GlyphClass: 2
Flags: W
Fore
39 0 m 1,0,-1
 616 0 l 1,1,-1
 616 37 l 1,2,3
 483 37 483 37 451 86 c 0,4,5
 424 121 424 121 424 260 c 2,6,-1
 424 635 l 1,7,8
 561 604 561 604 651 604 c 0,9,10
 835 604 835 604 948 698 c 0,11,12
 1073 798 1073 798 1073 977 c 0,13,14
 1073 1165 1073 1165 922 1268 c 0,15,16
 791 1356 791 1356 592 1356 c 2,17,-1
 39 1356 l 1,18,-1
 39 1319 l 1,19,20
 170 1319 170 1319 205 1270 c 0,21,22
 232 1235 232 1235 231 1096 c 2,23,-1
 231 260 l 2,24,25
 231 127 231 127 203 86 c 0,26,27
 168 37 168 37 39 37 c 1,28,-1
 39 0 l 1,0,-1
424 694 m 1,29,-1
 424 1255 l 1,30,31
 492 1273 492 1273 563 1274 c 0,32,33
 626 1274 626 1274 678.5 1250.5 c 128,-1,34
 731 1227 731 1227 768 1186 c 128,-1,35
 805 1145 805 1145 824.5 1088.5 c 128,-1,36
 844 1032 844 1032 844 967 c 0,37,38
 844 856 844 856 786 772 c 0,39,40
 720 674 720 674 618 674 c 0,41,42
 569 674 569 674 520 679 c 128,-1,43
 471 684 471 684 424 694 c 1,29,-1
EndSplineSet
EndChar
StartChar: Q
Encoding: 81 81 52
Width: 1478
GlyphClass: 2
Flags: W
Fore
76 678 m 0,0,1
 76 426 76 426 201 248 c 128,-1,2
 326 70 326 70 561 -12 c 1,3,4
 952 -403 952 -403 1395 -403 c 1,5,-1
 1395 -367 l 1,6,7
 1100 -367 1100 -367 905 -12 c 1,8,9
 1136 54 1136 54 1272 246 c 0,10,11
 1403 432 1403 432 1403 678 c 0,12,13
 1403 983 1403 983 1225 1180 c 0,14,15
 1041 1387 1041 1387 739 1386 c 0,16,17
 438 1386 438 1386 254 1180 c 0,18,19
 76 983 76 983 76 678 c 0,0,1
305 678 m 256,20,21
 305 938 305 938 391 1102 c 0,22,23
 502 1313 502 1313 739 1313 c 0,24,25
 977 1313 977 1313 1087 1102 c 0,26,27
 1173 938 1173 938 1174 678 c 0,28,29
 1174 420 1174 420 1085 252 c 0,30,31
 974 37 974 37 739 37 c 0,32,33
 501 37 501 37 391 252 c 0,34,35
 305 418 305 418 305 678 c 256,20,21
EndSplineSet
EndChar
StartChar: R
Encoding: 82 82 53
Width: 1366
GlyphClass: 2
Flags: W
Fore
39 0 m 1,0,-1
 616 0 l 1,1,-1
 616 37 l 1,2,3
 483 37 483 37 451 86 c 0,4,5
 424 121 424 121 424 260 c 2,6,-1
 424 633 l 1,7,-1
 563 633 l 1,8,-1
 1024 0 l 1,9,-1
 1386 0 l 1,10,-1
 1386 37 l 1,11,12
 1261 37 1261 37 1174 113 c 0,13,14
 1121 156 1121 156 1026 291 c 2,15,-1
 762 659 l 1,16,17
 907 690 907 690 995 772 c 0,18,19
 1097 868 1097 868 1098 1004 c 0,20,21
 1098 1186 1098 1186 946 1278 c 0,22,23
 819 1356 819 1356 627 1356 c 2,24,-1
 39 1356 l 1,25,-1
 39 1319 l 1,26,27
 170 1319 170 1319 205 1270 c 0,28,29
 232 1235 232 1235 231 1096 c 2,30,-1
 231 260 l 2,31,32
 231 127 231 127 203 86 c 0,33,34
 168 37 168 37 39 37 c 1,35,-1
 39 0 l 1,0,-1
424 698 m 1,36,-1
 424 1264 l 1,37,-1
 547 1276 l 2,38,39
 608 1282 608 1282 592 1282 c 1,40,41
 717 1282 717 1282 792.5 1201 c 128,-1,42
 868 1120 868 1120 868 995 c 0,43,44
 868 837 868 837 741 760 c 0,45,46
 639 699 639 699 469 698 c 2,47,-1
 424 698 l 1,36,-1
EndSplineSet
EndChar
StartChar: S
Encoding: 83 83 54
Width: 1138
GlyphClass: 2
Flags: W
Fore
133 1024 m 0,0,1
 133 834 133 834 319 717 c 0,2,3
 354 694 354 694 380 681 c 128,-1,4
 406 668 406 668 420 659 c 0,5,6
 504 612 504 612 565.5 576.5 c 128,-1,7
 627 541 627 541 668 514 c 0,8,9
 854 395 854 395 854 270 c 0,10,11
 854 161 854 161 770 102 c 0,12,13
 694 49 694 49 584 49 c 0,14,15
 410 49 410 49 304.5 152.5 c 128,-1,16
 199 256 199 256 182 434 c 1,17,-1
 145 434 l 1,18,-1
 145 -29 l 1,19,-1
 182 -29 l 1,20,21
 190 45 190 45 244 45 c 0,22,23
 303 45 303 45 424 8 c 0,24,25
 543 -29 543 -29 604 -29 c 0,26,27
 784 -29 784 -29 905 74 c 0,28,29
 1032 183 1032 183 1032 360 c 0,30,31
 1032 501 1032 501 901 614 c 0,32,33
 858 651 858 651 840 662 c 2,34,-1
 483 866 l 2,35,36
 290 977 290 977 291 1096 c 0,37,38
 291 1186 291 1186 362 1245 c 0,39,40
 432 1306 432 1306 526 1307 c 0,41,42
 696 1307 696 1307 801 1196 c 0,43,44
 905 1087 905 1087 905 918 c 1,45,-1
 942 918 l 1,46,-1
 942 1386 l 1,47,-1
 905 1386 l 1,48,49
 889 1308 889 1308 836 1309 c 0,50,51
 795 1309 795 1309 692 1348 c 0,52,53
 594 1387 594 1387 535 1386 c 0,54,55
 369 1386 369 1386 256 1288 c 0,56,57
 133 1186 133 1186 133 1024 c 0,0,1
EndSplineSet
EndChar
StartChar: T
Encoding: 84 84 55
Width: 1251
GlyphClass: 2
Flags: W
Fore
57 1038 m 1,0,-1
 94 1038 l 1,1,2
 94 1267 94 1267 326 1268 c 2,3,-1
 528 1268 l 1,4,-1
 528 260 l 2,5,6
 528 127 528 127 500 86 c 0,7,8
 465 37 465 37 336 37 c 1,9,-1
 336 0 l 1,10,-1
 913 0 l 1,11,-1
 913 37 l 1,12,13
 780 37 780 37 748 86 c 0,14,15
 721 121 721 121 721 260 c 2,16,-1
 721 1268 l 1,17,-1
 924 1268 l 2,18,19
 1155 1268 1155 1268 1155 1038 c 1,20,-1
 1192 1038 l 1,21,-1
 1178 1356 l 1,22,-1
 72 1356 l 1,23,-1
 57 1038 l 1,0,-1
EndSplineSet
EndChar
StartChar: U
Encoding: 85 85 56
Width: 1478
GlyphClass: 2
Flags: W
Fore
18 1319 m 1,0,1
 151 1319 151 1319 186 1272 c 0,2,3
 211 1237 211 1237 211 1096 c 2,4,-1
 211 485 l 2,5,6
 211 -29 211 -29 743 -29 c 0,7,8
 1265 -29 1265 -29 1266 492 c 2,9,-1
 1266 1096 l 2,10,11
 1266 1237 1266 1237 1290 1272 c 0,12,13
 1327 1319 1327 1319 1458 1319 c 1,14,-1
 1458 1356 l 1,15,-1
 985 1356 l 1,16,-1
 985 1319 l 1,17,18
 1116 1319 1116 1319 1151 1270 c 0,19,20
 1178 1235 1178 1235 1178 1096 c 2,21,-1
 1178 592 l 2,22,23
 1178 334 1178 334 1098 211 c 0,24,25
 1000 57 1000 57 754 57 c 0,26,27
 537 57 537 57 459 209 c 0,28,29
 404 315 404 315 403 555 c 2,30,-1
 403 1096 l 2,31,32
 403 1229 403 1229 432 1270 c 0,33,34
 465 1319 465 1319 596 1319 c 1,35,-1
 596 1356 l 1,36,-1
 18 1356 l 1,37,-1
 18 1319 l 1,0,1
EndSplineSet
EndChar
StartChar: V
Encoding: 86 86 57
Width: 1478
GlyphClass: 2
Flags: W
Fore
20 1319 m 1,0,1
 120 1319 120 1319 170 1262 c 0,2,3
 193 1237 193 1237 246 1114 c 2,4,-1
 743 -29 l 1,5,-1
 780 -29 l 1,6,-1
 1243 1100 l 2,7,8
 1263 1151 1263 1151 1283 1186 c 128,-1,9
 1303 1221 1303 1221 1319 1243 c 0,10,11
 1370 1309 1370 1309 1456 1319 c 1,12,-1
 1456 1356 l 1,13,-1
 1038 1356 l 1,14,-1
 1038 1319 l 1,15,16
 1181 1305 1181 1305 1182 1217 c 0,17,18
 1182 1176 1182 1176 1126 1040 c 2,19,-1
 815 276 l 1,20,21
 424 1130 424 1130 424 1223 c 0,22,23
 424 1276 424 1276 477 1298 c 0,24,25
 489 1302 489 1302 514 1308.5 c 128,-1,26
 539 1315 539 1315 575 1319 c 1,27,-1
 575 1356 l 1,28,-1
 20 1356 l 1,29,-1
 20 1319 l 1,0,1
EndSplineSet
EndChar
StartChar: W
Encoding: 87 87 58
Width: 1933
GlyphClass: 2
Flags: W
Fore
25 1319 m 1,0,1
 111 1319 111 1319 154 1268 c 0,2,3
 177 1237 177 1237 213 1139 c 2,4,-1
 631 -29 l 1,5,-1
 672 -29 l 1,6,-1
 977 829 l 1,7,-1
 1284 -29 l 1,8,-1
 1323 -29 l 1,9,-1
 1712 1098 l 2,10,11
 1732 1155 1732 1155 1747.5 1193 c 128,-1,12
 1763 1231 1763 1231 1776 1247 c 0,13,14
 1825 1319 1825 1319 1913 1319 c 1,15,-1
 1913 1356 l 1,16,-1
 1507 1356 l 1,17,-1
 1507 1319 l 1,18,19
 1657 1319 1657 1319 1657 1223 c 0,20,21
 1657 1176 1657 1176 1608 1038 c 2,22,-1
 1354 328 l 1,23,-1
 1104 1028 l 2,24,25
 1051 1182 1051 1182 1051 1227 c 0,26,27
 1051 1290 1051 1290 1096 1309 c 0,28,29
 1127 1319 1127 1319 1196 1319 c 1,30,-1
 1196 1356 l 1,31,-1
 666 1356 l 1,32,-1
 666 1319 l 1,33,34
 779 1319 779 1319 848 1188 c 0,35,36
 871 1147 871 1147 930 961 c 1,37,-1
 700 328 l 1,38,-1
 424 1116 l 2,39,40
 393 1204 393 1204 393 1233 c 0,41,42
 393 1319 393 1319 526 1319 c 1,43,-1
 526 1356 l 1,44,-1
 25 1356 l 1,45,-1
 25 1319 l 1,0,1
EndSplineSet
EndChar
StartChar: X
Encoding: 88 88 59
Width: 1478
GlyphClass: 2
Flags: W
Fore
18 0 m 1,0,-1
 500 0 l 1,1,-1
 500 37 l 1,2,3
 369 37 369 37 369 115 c 0,4,5
 369 166 369 166 518 352 c 0,6,7
 584 434 584 434 633 494.5 c 128,-1,8
 682 555 682 555 715 596 c 1,9,10
 1010 174 1010 174 1010 115 c 0,11,12
 1010 37 1010 37 877 37 c 1,13,-1
 877 0 l 1,14,-1
 1458 0 l 1,15,-1
 1458 37 l 1,16,17
 1362 45 1362 45 1305 92 c 0,18,19
 1282 110 1282 110 1254.5 141 c 128,-1,20
 1227 172 1227 172 1198 217 c 2,21,-1
 840 752 l 1,22,-1
 1094 1075 l 2,23,24
 1141 1134 1141 1134 1176.5 1175.5 c 128,-1,25
 1212 1217 1212 1217 1235 1237 c 0,26,27
 1325 1319 1325 1319 1427 1319 c 1,28,-1
 1427 1356 l 1,29,-1
 946 1356 l 1,30,-1
 946 1319 l 1,31,32
 1091 1319 1091 1319 1092 1241 c 0,33,34
 1092 1184 1092 1184 788 823 c 1,35,36
 532 1183 532 1183 532 1239 c 0,37,38
 532 1319 532 1319 672 1319 c 1,39,-1
 672 1356 l 1,40,-1
 45 1356 l 1,41,-1
 45 1319 l 1,42,43
 166 1319 166 1319 266 1229 c 0,44,45
 295 1202 295 1202 334 1154 c 128,-1,46
 373 1106 373 1106 420 1036 c 2,47,-1
 672 668 l 1,48,-1
 369 283 l 2,49,50
 187 52 187 52 18 37 c 1,51,-1
 18 0 l 1,0,-1
EndSplineSet
EndChar
StartChar: Y
Encoding: 89 89 60
Width: 1478
GlyphClass: 2
Flags: W
Fore
27 1319 m 1,0,1
 144 1319 144 1319 223 1196 c 2,2,-1
 643 557 l 1,3,-1
 643 260 l 2,4,5
 643 127 643 127 614 86 c 0,6,7
 579 37 579 37 451 37 c 1,8,-1
 451 0 l 1,9,-1
 1028 0 l 1,10,-1
 1028 37 l 1,11,12
 895 37 895 37 862 86 c 0,13,14
 835 121 835 121 836 260 c 2,15,-1
 836 575 l 1,16,-1
 1180 1118 l 2,17,18
 1307 1319 1307 1319 1456 1319 c 1,19,-1
 1456 1356 l 1,20,-1
 983 1356 l 1,21,-1
 983 1319 l 1,22,23
 1120 1319 1120 1319 1120 1221 c 0,24,25
 1120 1155 1120 1155 963 918 c 2,26,-1
 795 664 l 1,27,28
 729 758 729 758 681 828.5 c 128,-1,29
 633 899 633 899 600 946 c 0,30,31
 448 1171 448 1171 449 1229 c 0,32,33
 449 1319 449 1319 606 1319 c 1,34,-1
 606 1356 l 1,35,-1
 27 1356 l 1,36,-1
 27 1319 l 1,0,1
EndSplineSet
EndChar
StartChar: Z
Encoding: 90 90 61
Width: 1251
GlyphClass: 2
Flags: W
Fore
23 0 m 1,0,-1
 1126 0 l 1,1,-1
 1190 358 l 1,2,-1
 1153 358 l 1,3,4
 1124 282 1124 282 1098.5 232 c 128,-1,5
 1073 182 1073 182 1051 158 c 0,6,7
 981 82 981 82 844 82 c 2,8,-1
 283 82 l 1,9,-1
 1176 1356 l 1,10,-1
 172 1356 l 1,11,-1
 143 1016 l 1,12,-1
 182 1016 l 1,13,14
 202 1168 202 1168 266 1221 c 128,-1,15
 330 1274 330 1274 483 1274 c 2,16,-1
 891 1274 l 1,17,-1
 23 37 l 1,18,-1
 23 0 l 1,0,-1
EndSplineSet
EndChar
StartChar: bracketleft
Encoding: 91 91 62
Width: 681
GlyphClass: 2
Flags: W
Fore
168 -254 m 1,0,-1
 608 -254 l 1,1,-1
 608 -166 l 1,2,-1
 328 -166 l 1,3,-1
 328 1448 l 1,4,-1
 608 1448 l 1,5,-1
 608 1536 l 1,6,-1
 168 1536 l 1,7,-1
 168 -254 l 1,0,-1
EndSplineSet
EndChar
StartChar: backslash
Encoding: 92 92 63
Width: 1519
GlyphClass: 2
Flags: W
Fore
68 102 m 1,0,-1
 129 45 l 1,1,-1
 1167 1296 l 1,2,-1
 1321 1325 l 1,3,-1
 1313 1163 l 1,4,-1
 274 -84 l 1,5,-1
 338 -143 l 1,6,-1
 1307 1028 l 1,7,-1
 1292 737 l 1,8,-1
 1329 731 l 1,9,-1
 1436 1452 l 1,10,-1
 754 1253 l 1,11,-1
 760 1219 l 1,12,-1
 1040 1274 l 1,13,-1
 68 102 l 1,0,-1
EndSplineSet
EndChar
StartChar: bracketright
Encoding: 93 93 64
Width: 681
GlyphClass: 2
Flags: W
Fore
74 -166 m 1,0,-1
 74 -254 l 1,1,-1
 514 -254 l 1,2,-1
 514 1536 l 1,3,-1
 74 1536 l 1,4,-1
 74 1448 l 1,5,-1
 354 1448 l 1,6,-1
 354 -166 l 1,7,-1
 74 -166 l 1,0,-1
EndSplineSet
EndChar
StartChar: asciicircum
Encoding: 94 94 65
Width: 1646
GlyphClass: 2
Flags: W
Fore
70 -18 m 1,0,-1
 152 -100 l 1,1,-1
 823 569 l 1,2,-1
 1495 -100 l 1,3,-1
 1577 -18 l 1,4,-1
 905 651 l 1,5,-1
 1577 1323 l 1,6,-1
 1495 1405 l 1,7,-1
 823 733 l 1,8,-1
 152 1405 l 1,9,-1
 70 1323 l 1,10,-1
 741 651 l 1,11,-1
 70 -18 l 1,0,-1
EndSplineSet
EndChar
StartChar: underscore
Encoding: 95 95 66
Width: 1351
GlyphClass: 2
Flags: W
Fore
68 0 m 1,0,-1
 68 -92 l 1,1,-1
 1282 -92 l 1,2,-1
 1282 1356 l 1,3,-1
 1184 1356 l 1,4,-1
 1184 0 l 1,5,-1
 68 0 l 1,0,-1
EndSplineSet
EndChar
StartChar: a
Encoding: 97 97 67
Width: 909
GlyphClass: 2
Flags: W
Fore
70 211 m 0,0,1
 70 107 70 107 127 40 c 128,-1,2
 184 -27 184 -27 289 -27 c 0,3,4
 367 -27 367 -27 442 25 c 0,5,6
 481 52 481 52 515 75 c 128,-1,7
 549 98 549 98 578 121 c 1,8,9
 578 -26 578 -26 688 -27 c 0,10,11
 786 -27 786 -27 901 121 c 1,12,-1
 901 178 l 1,13,14
 821 98 821 98 795 98 c 0,15,16
 754 98 754 98 745 162 c 0,17,18
 743 172 743 172 743 256 c 2,19,-1
 743 696 l 2,20,21
 743 944 743 944 442 944 c 0,22,23
 315 944 315 944 221 893 c 0,24,25
 104 832 104 832 104 715 c 0,26,27
 104 617 104 617 188 616 c 0,28,29
 245 616 245 616 264 692 c 0,30,31
 274 737 274 737 281 771 c 2,32,-1
 291 827 l 1,33,34
 311 882 311 882 410 883 c 0,35,36
 521 883 521 883 557 786 c 0,37,38
 577 737 577 737 578 596 c 1,39,40
 447 545 447 545 368 511 c 128,-1,41
 289 477 289 477 260 461 c 0,42,43
 70 350 70 350 70 211 c 0,0,1
236 254 m 0,44,45
 236 352 236 352 362 436 c 0,46,47
 385 450 385 450 438.5 476 c 128,-1,48
 492 502 492 502 578 537 c 1,49,-1
 578 186 l 1,50,51
 453 86 453 86 381 86 c 0,52,53
 315 86 315 86 274 139 c 0,54,55
 236 184 236 184 236 254 c 0,44,45
EndSplineSet
EndChar
StartChar: b
Encoding: 98 98 68
Width: 1024
GlyphClass: 2
Flags: W
Fore
-4 1309 m 1,0,-1
 8 1274 l 1,1,2
 51 1290 51 1290 78 1290 c 0,3,4
 150 1290 150 1290 150 1151 c 2,5,-1
 150 88 l 1,6,7
 318 -27 318 -27 485 -27 c 0,8,9
 694 -27 694 -27 827 133 c 0,10,11
 954 285 954 285 954 498 c 0,12,13
 954 676 954 676 872 801 c 0,14,15
 778 944 778 944 606 944 c 0,16,17
 444 944 444 944 315 758 c 1,18,-1
 315 1421 l 1,19,-1
 270 1421 l 1,20,-1
 -4 1309 l 1,0,-1
315 145 m 1,21,-1
 315 694 l 1,22,23
 415 800 415 800 520 801 c 0,24,25
 649 801 649 801 721 680 c 0,26,27
 780 578 780 578 780 440 c 0,28,29
 780 299 780 299 727 186 c 0,30,31
 659 45 659 45 530 45 c 0,32,33
 409 45 409 45 315 145 c 1,21,-1
EndSplineSet
EndChar
StartChar: c
Encoding: 99 99 69
Width: 909
GlyphClass: 2
Flags: W
Fore
70 461 m 0,0,1
 70 260 70 260 164 127 c 0,2,3
 270 -27 270 -27 461 -27 c 0,4,5
 608 -27 608 -27 717 88 c 0,6,7
 815 194 815 194 842 348 c 1,8,-1
 813 362 l 1,9,10
 727 126 727 126 528 127 c 0,11,12
 381 127 381 127 299 268 c 0,13,14
 229 387 229 387 229 545 c 0,15,16
 229 678 229 678 285 768 c 0,17,18
 348 874 348 874 475 874 c 0,19,20
 563 874 563 874 592 813 c 1,21,22
 600 784 600 784 607 756.5 c 128,-1,23
 614 729 614 729 623 700 c 0,24,25
 648 639 648 639 725 639 c 0,26,27
 815 639 815 639 815 723 c 0,28,29
 815 821 815 821 707 887 c 0,30,31
 613 944 613 944 508 944 c 0,32,33
 309 944 309 944 186 799 c 0,34,35
 70 664 70 664 70 461 c 0,0,1
EndSplineSet
EndChar
StartChar: d
Encoding: 100 100 70
Width: 1024
GlyphClass: 2
Flags: W
Fore
70 424 m 0,0,1
 70 244 70 244 164 117 c 0,2,3
 268 -26 268 -26 440 -27 c 0,4,5
 585 -27 585 -27 713 102 c 1,6,-1
 713 -27 l 1,7,-1
 758 -27 l 1,8,-1
 1034 84 l 1,9,-1
 1020 119 l 1,10,11
 977 103 977 103 950 102 c 0,12,13
 878 102 878 102 879 242 c 2,14,-1
 879 1421 l 1,15,-1
 834 1421 l 1,16,-1
 557 1309 l 1,17,-1
 571 1274 l 1,18,19
 614 1290 614 1290 641 1290 c 0,20,21
 713 1290 713 1290 713 1151 c 2,22,-1
 713 866 l 1,23,24
 639 944 639 944 510 944 c 0,25,26
 311 944 311 944 186 778 c 0,27,28
 70 627 70 627 70 424 c 0,0,1
256 496 m 0,29,30
 256 641 256 641 307 745 c 0,31,32
 370 882 370 882 500 883 c 0,33,34
 598 883 598 883 657 799 c 0,35,36
 712 721 712 721 713 621 c 2,37,-1
 713 174 l 1,38,39
 629 82 629 82 537 82 c 0,40,41
 394 82 394 82 317 225 c 0,42,43
 256 338 256 338 256 496 c 0,29,30
EndSplineSet
EndChar
StartChar: e
Encoding: 101 101 71
Width: 909
GlyphClass: 2
Flags: W
Fore
70 442 m 0,0,1
 70 247 70 247 170 117 c 0,2,3
 281 -26 281 -26 469 -27 c 0,4,5
 616 -27 616 -27 721 82 c 0,6,7
 815 180 815 180 844 334 c 1,8,-1
 813 354 l 1,9,10
 735 135 735 135 539 135 c 0,11,12
 375 135 375 135 287 276 c 0,13,14
 209 397 209 397 209 569 c 1,15,-1
 844 569 l 1,16,17
 844 735 844 735 750 838 c 0,18,19
 656 944 656 944 494 944 c 0,20,21
 287 944 287 944 172 793 c 0,22,23
 70 655 70 655 70 442 c 0,0,1
211 631 m 1,24,25
 211 725 211 725 272 797 c 0,26,27
 333 871 333 871 426 870 c 0,28,29
 530 870 530 870 582.5 803.5 c 128,-1,30
 635 737 635 737 635 631 c 1,31,-1
 211 631 l 1,24,25
EndSplineSet
EndChar
StartChar: f
Encoding: 102 102 72
Width: 681
GlyphClass: 2
Flags: W
Fore
78 842 m 1,0,-1
 256 842 l 1,1,-1
 256 268 l 2,2,3
 256 139 256 139 233 98 c 0,4,5
 198 37 198 37 82 37 c 1,6,-1
 82 0 l 1,7,-1
 592 0 l 1,8,-1
 592 37 l 1,9,10
 475 37 475 37 442 98 c 0,11,12
 422 137 422 137 422 268 c 2,13,-1
 422 842 l 1,14,-1
 657 842 l 1,15,-1
 657 915 l 1,16,-1
 422 915 l 1,17,-1
 422 1081 l 2,18,19
 422 1196 422 1196 438 1251 c 0,20,21
 469 1347 469 1347 559 1348 c 0,22,23
 604 1348 604 1348 694 1257 c 0,24,25
 782 1169 782 1169 807 1169 c 0,26,27
 838 1169 838 1169 863.5 1195 c 128,-1,28
 889 1221 889 1221 889 1251 c 0,29,30
 889 1329 889 1329 801 1378 c 0,31,32
 723 1421 723 1421 641 1421 c 0,33,34
 256 1421 256 1421 256 915 c 1,35,-1
 78 915 l 1,36,-1
 78 842 l 1,0,-1
EndSplineSet
EndChar
StartChar: g
Encoding: 103 103 73
Width: 1024
GlyphClass: 2
Flags: W
Fore
57 -246 m 0,0,1
 57 -344 57 -344 217 -399 c 0,2,3
 336 -440 336 -440 461 -440 c 0,4,5
 633 -440 633 -440 788 -356 c 0,6,7
 970 -254 970 -254 971 -96 c 0,8,9
 971 74 971 74 780 121 c 0,10,11
 708 137 708 137 455 137 c 0,12,13
 279 137 279 137 279 199 c 0,14,15
 279 258 279 258 354 315 c 1,16,17
 422 295 422 295 485 295 c 0,18,19
 637 295 637 295 739 373 c 0,20,21
 852 459 852 459 852 606 c 0,22,23
 852 719 852 719 803 791 c 1,24,25
 961 791 961 791 979 799 c 1,26,27
 987 813 987 813 987 836 c 0,28,29
 987 856 987 856 979 870 c 1,30,31
 961 878 961 878 723 879 c 1,32,33
 633 945 633 945 502 944 c 0,34,35
 344 944 344 944 242 856 c 0,36,37
 131 764 131 764 131 610 c 0,38,39
 131 409 131 409 305 334 c 1,40,41
 211 252 211 252 201 240 c 0,42,43
 144 181 144 181 143 117 c 0,44,45
 143 58 143 58 244 14 c 1,46,47
 57 -178 57 -178 57 -246 c 0,0,1
205 -174 m 0,48,49
 205 -113 205 -113 293 0 c 1,50,51
 416 -4 416 -4 501 -8 c 128,-1,52
 586 -12 586 -12 637 -16 c 0,53,54
 897 -34 897 -34 897 -121 c 0,55,56
 897 -230 897 -230 766 -281 c 0,57,58
 674 -320 674 -320 541 -319 c 0,59,60
 424 -319 424 -319 336 -293 c 0,61,62
 205 -256 205 -256 205 -174 c 0,48,49
305 655 m 0,63,64
 305 895 305 895 475 895 c 0,65,66
 579 895 579 895 635 786 c 0,67,68
 678 702 678 702 678 586 c 0,69,70
 678 344 678 344 506 344 c 0,71,72
 400 344 400 344 346 453 c 0,73,74
 305 538 305 538 305 655 c 0,63,64
EndSplineSet
EndChar
StartChar: h
Encoding: 104 104 74
Width: 1024
GlyphClass: 2
Flags: W
Fore
10 1309 m 1,0,-1
 25 1274 l 1,1,2
 68 1290 68 1290 94 1290 c 0,3,4
 166 1290 166 1290 166 1151 c 2,5,-1
 166 174 l 2,6,7
 166 94 166 94 135 65.5 c 128,-1,8
 104 37 104 37 25 37 c 1,9,-1
 25 0 l 1,10,-1
 473 0 l 1,11,-1
 473 37 l 1,12,13
 395 37 395 37 363.5 66.5 c 128,-1,14
 332 96 332 96 332 174 c 2,15,-1
 332 690 l 1,16,17
 457 821 457 821 563 821 c 0,18,19
 708 821 708 821 709 598 c 2,20,-1
 709 174 l 2,21,22
 709 94 709 94 678 65.5 c 128,-1,23
 647 37 647 37 567 37 c 1,24,-1
 567 0 l 1,25,-1
 1016 0 l 1,26,-1
 1016 37 l 1,27,28
 938 37 938 37 906 66.5 c 128,-1,29
 874 96 874 96 874 174 c 2,30,-1
 874 635 l 2,31,32
 874 762 874 762 823 844 c 0,33,34
 762 944 762 944 643 944 c 0,35,36
 551 944 551 944 469 883 c 0,37,38
 422 848 422 848 332 752 c 1,39,-1
 332 1421 l 1,40,-1
 287 1421 l 1,41,-1
 10 1309 l 1,0,-1
EndSplineSet
EndChar
StartChar: i
Encoding: 105 105 75
Width: 569
GlyphClass: 2
Flags: W
Fore
55 831 m 1,0,-1
 70 797 l 1,1,2
 113 813 113 813 139 813 c 0,3,4
 211 813 211 813 211 674 c 2,5,-1
 211 174 l 2,6,7
 211 94 211 94 180.5 65.5 c 128,-1,8
 150 37 150 37 70 37 c 1,9,-1
 70 0 l 1,10,-1
 518 0 l 1,11,-1
 518 37 l 1,12,13
 438 37 438 37 407.5 65.5 c 128,-1,14
 377 94 377 94 377 174 c 2,15,-1
 377 944 l 1,16,-1
 332 944 l 1,17,-1
 55 831 l 1,0,-1
193 1321 m 256,18,19
 193 1278 193 1278 221.5 1249.5 c 128,-1,20
 250 1221 250 1221 293 1221 c 256,21,22
 336 1221 336 1221 364.5 1249.5 c 128,-1,23
 393 1278 393 1278 393 1321 c 256,24,25
 393 1364 393 1364 364.5 1392.5 c 128,-1,26
 336 1421 336 1421 293 1421 c 256,27,28
 250 1421 250 1421 221.5 1392.5 c 128,-1,29
 193 1364 193 1364 193 1321 c 256,18,19
EndSplineSet
EndChar
StartChar: j
Encoding: 106 106 76
Width: 569
GlyphClass: 2
Flags: W
Fore
-160 -340 m 0,0,1
 -160 -393 -160 -393 -96 -420 c 0,2,3
 -49 -440 -49 -440 12 -440 c 0,4,5
 205 -440 205 -440 297 -303 c 0,6,7
 377 -184 377 -184 377 14 c 2,8,-1
 377 944 l 1,9,-1
 332 944 l 1,10,-1
 55 831 l 1,11,-1
 70 797 l 1,12,13
 113 813 113 813 139 813 c 0,14,15
 211 813 211 813 211 674 c 2,16,-1
 211 -188 l 2,17,18
 211 -360 211 -360 121 -360 c 0,19,20
 103 -360 103 -360 25 -307 c 128,-1,21
 -53 -254 -53 -254 -78 -254 c 0,22,23
 -113 -254 -113 -254 -136.5 -279.5 c 128,-1,24
 -160 -305 -160 -305 -160 -340 c 0,0,1
193 1321 m 256,25,26
 193 1278 193 1278 221.5 1249.5 c 128,-1,27
 250 1221 250 1221 293 1221 c 256,28,29
 336 1221 336 1221 364.5 1249.5 c 128,-1,30
 393 1278 393 1278 393 1321 c 256,31,32
 393 1364 393 1364 364.5 1392.5 c 128,-1,33
 336 1421 336 1421 293 1421 c 256,34,35
 250 1421 250 1421 221.5 1392.5 c 128,-1,36
 193 1364 193 1364 193 1321 c 256,25,26
EndSplineSet
EndChar
StartChar: k
Encoding: 107 107 77
Width: 1024
GlyphClass: 2
Flags: W
Fore
10 1309 m 1,0,-1
 25 1274 l 1,1,2
 68 1290 68 1290 94 1290 c 0,3,4
 166 1290 166 1290 166 1151 c 2,5,-1
 166 174 l 2,6,7
 166 94 166 94 135 65.5 c 128,-1,8
 104 37 104 37 25 37 c 1,9,-1
 25 0 l 1,10,-1
 473 0 l 1,11,-1
 473 37 l 1,12,13
 393 37 393 37 362.5 65.5 c 128,-1,14
 332 94 332 94 332 174 c 2,15,-1
 332 1421 l 1,16,-1
 287 1421 l 1,17,-1
 10 1309 l 1,0,-1
334 510 m 1,18,19
 656 121 656 121 655 76 c 0,20,21
 655 60 655 60 639 43 c 1,22,23
 621 37 621 37 592 37 c 1,24,-1
 592 0 l 1,25,-1
 1036 0 l 1,26,-1
 1036 37 l 1,27,28
 954 37 954 37 885 90 c 0,29,30
 852 117 852 117 776 211 c 2,31,-1
 498 561 l 1,32,33
 701 758 701 758 717 770 c 0,34,35
 844 879 844 879 989 879 c 1,36,-1
 989 915 l 1,37,-1
 588 915 l 1,38,-1
 588 879 l 1,39,40
 662 879 662 879 662 834 c 0,41,42
 662 793 662 793 334 510 c 1,18,19
EndSplineSet
EndChar
StartChar: l
Encoding: 108 108 78
Width: 569
GlyphClass: 2
Flags: W
Fore
55 1309 m 1,0,-1
 70 1274 l 1,1,2
 113 1290 113 1290 139 1290 c 0,3,4
 211 1290 211 1290 211 1151 c 2,5,-1
 211 174 l 2,6,7
 211 94 211 94 180.5 65.5 c 128,-1,8
 150 37 150 37 70 37 c 1,9,-1
 70 0 l 1,10,-1
 518 0 l 1,11,-1
 518 37 l 1,12,13
 438 37 438 37 407.5 65.5 c 128,-1,14
 377 94 377 94 377 174 c 2,15,-1
 377 1421 l 1,16,-1
 332 1421 l 1,17,-1
 55 1309 l 1,0,-1
EndSplineSet
EndChar
StartChar: m
Encoding: 109 109 79
Width: 1593
GlyphClass: 2
Flags: W
Fore
10 831 m 1,0,-1
 25 797 l 1,1,2
 68 813 68 813 94 813 c 0,3,4
 166 813 166 813 166 674 c 2,5,-1
 166 174 l 2,6,7
 166 94 166 94 135 65.5 c 128,-1,8
 104 37 104 37 25 37 c 1,9,-1
 25 0 l 1,10,-1
 473 0 l 1,11,-1
 473 37 l 1,12,13
 395 37 395 37 363.5 66.5 c 128,-1,14
 332 96 332 96 332 174 c 2,15,-1
 332 698 l 1,16,17
 463 821 463 821 569 821 c 0,18,19
 665 821 665 821 700 743 c 0,20,21
 720 696 720 696 721 580 c 2,22,-1
 721 174 l 2,23,24
 721 94 721 94 690 65.5 c 128,-1,25
 659 37 659 37 580 37 c 1,26,-1
 580 0 l 1,27,-1
 1028 0 l 1,28,-1
 1028 37 l 1,29,30
 950 37 950 37 918.5 66.5 c 128,-1,31
 887 96 887 96 887 174 c 2,32,-1
 887 698 l 1,33,34
 1018 821 1018 821 1124 821 c 0,35,36
 1220 821 1220 821 1255 743 c 0,37,38
 1275 696 1275 696 1276 580 c 2,39,-1
 1276 174 l 2,40,41
 1276 94 1276 94 1245 65.5 c 128,-1,42
 1214 37 1214 37 1135 37 c 1,43,-1
 1135 0 l 1,44,-1
 1583 0 l 1,45,-1
 1583 37 l 1,46,47
 1505 37 1505 37 1473.5 66.5 c 128,-1,48
 1442 96 1442 96 1442 174 c 2,49,-1
 1442 635 l 2,50,51
 1442 764 1442 764 1386 848 c 0,52,53
 1320 944 1320 944 1200 944 c 0,54,55
 1102 944 1102 944 1018 885 c 0,56,57
 991 865 991 865 956.5 831 c 128,-1,58
 922 797 922 797 881 745 c 1,59,60
 875 788 875 788 855.5 825 c 128,-1,61
 836 862 836 862 805 887.5 c 128,-1,62
 774 913 774 913 734 928.5 c 128,-1,63
 694 944 694 944 651 944 c 0,64,65
 561 944 561 944 473 881 c 0,66,67
 424 844 424 844 332 750 c 1,68,-1
 332 944 l 1,69,-1
 287 944 l 1,70,-1
 10 831 l 1,0,-1
EndSplineSet
EndChar
StartChar: n
Encoding: 110 110 80
Width: 1024
GlyphClass: 2
Flags: W
Fore
10 831 m 1,0,-1
 25 797 l 1,1,2
 68 813 68 813 94 813 c 0,3,4
 166 813 166 813 166 674 c 2,5,-1
 166 174 l 2,6,7
 166 94 166 94 135 65.5 c 128,-1,8
 104 37 104 37 25 37 c 1,9,-1
 25 0 l 1,10,-1
 473 0 l 1,11,-1
 473 37 l 1,12,13
 395 37 395 37 363.5 66.5 c 128,-1,14
 332 96 332 96 332 174 c 2,15,-1
 332 690 l 1,16,17
 457 821 457 821 563 821 c 0,18,19
 708 821 708 821 709 598 c 2,20,-1
 709 174 l 2,21,22
 709 94 709 94 678 65.5 c 128,-1,23
 647 37 647 37 567 37 c 1,24,-1
 567 0 l 1,25,-1
 1016 0 l 1,26,-1
 1016 37 l 1,27,28
 938 37 938 37 906 66.5 c 128,-1,29
 874 96 874 96 874 174 c 2,30,-1
 874 635 l 2,31,32
 874 762 874 762 823 844 c 0,33,34
 762 944 762 944 643 944 c 0,35,36
 551 944 551 944 469 883 c 0,37,38
 422 848 422 848 332 752 c 1,39,-1
 332 944 l 1,40,-1
 287 944 l 1,41,-1
 10 831 l 1,0,-1
EndSplineSet
EndChar
StartChar: o
Encoding: 111 111 81
Width: 1024
GlyphClass: 2
Flags: W
Fore
70 449 m 0,0,1
 70 254 70 254 186 117 c 0,2,3
 305 -26 305 -26 500 -27 c 0,4,5
 707 -27 707 -27 834 125 c 0,6,7
 955 270 955 270 954 479 c 0,8,9
 954 678 954 678 831 811 c 0,10,11
 710 944 710 944 514 944 c 0,12,13
 317 944 317 944 188 793 c 0,14,15
 70 650 70 650 70 449 c 0,0,1
256 537 m 0,16,17
 256 875 256 875 479 874 c 0,18,19
 633 874 633 874 711 702 c 0,20,21
 768 575 768 575 768 393 c 0,22,23
 768 41 768 41 547 41 c 0,24,25
 391 41 391 41 315 221 c 0,26,27
 256 363 256 363 256 537 c 0,16,17
EndSplineSet
EndChar
StartChar: p
Encoding: 112 112 82
Width: 1024
GlyphClass: 2
Flags: W
Fore
-6 -397 m 1,0,-1
 -6 -434 l 1,1,-1
 473 -434 l 1,2,-1
 473 -397 l 1,3,4
 385 -397 385 -397 352 -375 c 0,5,6
 315 -348 315 -348 315 -260 c 2,7,-1
 315 53 l 1,8,9
 391 -27 391 -27 528 -27 c 0,10,11
 735 -27 735 -27 848 135 c 0,12,13
 950 280 950 280 950 494 c 0,14,15
 950 672 950 672 868 797 c 0,16,17
 772 944 772 944 606 944 c 0,18,19
 446 944 446 944 315 733 c 1,20,-1
 315 944 l 1,21,-1
 270 944 l 1,22,-1
 -4 831 l 1,23,-1
 8 797 l 1,24,25
 51 813 51 813 78 813 c 0,26,27
 150 813 150 813 150 674 c 2,28,-1
 150 -260 l 2,29,30
 150 -344 150 -344 114 -370.5 c 128,-1,31
 78 -397 78 -397 -6 -397 c 1,0,-1
315 285 m 2,32,-1
 315 666 l 1,33,34
 434 801 434 801 526 801 c 0,35,36
 655 801 655 801 723 659 c 0,37,38
 776 546 776 546 776 403 c 0,39,40
 776 262 776 262 725 162 c 0,41,42
 659 33 659 33 532 33 c 0,43,44
 315 33 315 33 315 285 c 2,32,-1
EndSplineSet
EndChar
StartChar: q
Encoding: 113 113 83
Width: 1024
GlyphClass: 2
Flags: W
Fore
70 412 m 0,0,1
 70 240 70 240 156 115 c 0,2,3
 250 -26 250 -26 416 -27 c 0,4,5
 555 -27 555 -27 713 158 c 1,6,-1
 713 -260 l 2,7,8
 713 -344 713 -344 677 -370.5 c 128,-1,9
 641 -397 641 -397 555 -397 c 1,10,-1
 555 -434 l 1,11,-1
 1036 -434 l 1,12,-1
 1036 -397 l 1,13,14
 948 -397 948 -397 915 -375 c 0,15,16
 878 -348 878 -348 879 -260 c 2,17,-1
 879 944 l 1,18,-1
 844 944 l 1,19,-1
 733 877 l 1,20,21
 653 945 653 945 545 944 c 0,22,23
 326 944 326 944 195 784 c 0,24,25
 70 635 70 635 70 412 c 0,0,1
244 483 m 0,26,27
 244 637 244 637 299 739 c 0,28,29
 369 870 369 870 508 870 c 0,30,31
 713 870 713 870 713 655 c 2,32,-1
 713 221 l 1,33,34
 633 115 633 115 512 115 c 0,35,36
 373 115 373 115 301 236 c 0,37,38
 244 331 244 331 244 483 c 0,26,27
EndSplineSet
EndChar
StartChar: r
Encoding: 114 114 84
Width: 681
GlyphClass: 2
Flags: W
Fore
10 831 m 1,0,-1
 25 797 l 1,1,2
 68 813 68 813 94 813 c 0,3,4
 166 813 166 813 166 674 c 2,5,-1
 166 174 l 2,6,7
 166 94 166 94 135 65.5 c 128,-1,8
 104 37 104 37 25 37 c 1,9,-1
 25 0 l 1,10,-1
 502 0 l 1,11,-1
 502 37 l 1,12,13
 383 37 383 37 352 92 c 0,14,15
 332 127 332 127 332 258 c 2,16,-1
 332 653 l 1,17,18
 406 807 406 807 463 807 c 1,19,20
 576 739 576 739 608 739 c 0,21,22
 645 739 645 739 670.5 767 c 128,-1,23
 696 795 696 795 696 831 c 0,24,25
 696 880 696 880 657 912 c 128,-1,26
 618 944 618 944 567 944 c 0,27,28
 461 944 461 944 332 748 c 1,29,-1
 332 944 l 1,30,-1
 287 944 l 1,31,-1
 10 831 l 1,0,-1
EndSplineSet
EndChar
StartChar: s
Encoding: 115 115 85
Width: 796
GlyphClass: 2
Flags: W
Fore
104 670 m 0,0,1
 104 553 104 553 227 471 c 0,2,3
 305 430 305 430 362.5 398.5 c 128,-1,4
 420 367 420 367 459 346 c 0,5,6
 582 274 582 274 582 172 c 0,7,8
 582 106 582 106 537 69.5 c 128,-1,9
 492 33 492 33 424 33 c 0,10,11
 311 33 311 33 231 119 c 0,12,13
 159 195 159 195 143 313 c 1,14,-1
 106 313 l 1,15,-1
 106 -12 l 1,16,-1
 143 -12 l 1,17,18
 149 13 149 13 180 12 c 0,19,20
 219 12 219 12 297 -6 c 0,21,22
 371 -26 371 -26 416 -27 c 0,23,24
 541 -27 541 -27 631 45 c 0,25,26
 729 121 729 121 729 246 c 0,27,28
 729 398 729 398 598 467 c 0,29,30
 510 514 510 514 449.5 546 c 128,-1,31
 389 578 389 578 354 594 c 0,32,33
 223 664 223 664 223 758 c 0,34,35
 223 817 223 817 270 850 c 128,-1,36
 317 883 317 883 379 883 c 0,37,38
 569 883 569 883 625 631 c 1,39,-1
 662 631 l 1,40,-1
 662 944 l 1,41,-1
 625 944 l 1,42,-1
 608 913 l 1,43,-1
 582 905 l 1,44,45
 547 909 547 909 487 926 c 0,46,47
 421 944 421 944 389 944 c 0,48,49
 260 944 260 944 182 871.5 c 128,-1,50
 104 799 104 799 104 670 c 0,0,1
EndSplineSet
EndChar
StartChar: t
Encoding: 116 116 86
Width: 569
GlyphClass: 2
Flags: W
Fore
16 842 m 1,0,-1
 160 842 l 1,1,-1
 160 207 l 2,2,3
 160 117 160 117 201 57 c 0,4,5
 246 -11 246 -11 334 -10 c 0,6,7
 496 -10 496 -10 569 184 c 1,8,-1
 528 184 l 1,9,10
 501 102 501 102 422 102 c 0,11,12
 356 102 356 102 336 164 c 0,13,14
 326 199 326 199 326 279 c 2,15,-1
 326 842 l 1,16,-1
 541 842 l 1,17,-1
 541 915 l 1,18,-1
 326 915 l 1,19,-1
 326 1217 l 1,20,-1
 295 1217 l 1,21,22
 189 953 189 953 16 883 c 1,23,-1
 16 842 l 1,0,-1
EndSplineSet
EndChar
StartChar: u
Encoding: 117 117 87
Width: 1024
GlyphClass: 2
Flags: W
Fore
6 879 m 1,0,1
 102 879 102 879 131 848 c 0,2,3
 158 819 158 819 158 719 c 2,4,-1
 158 272 l 2,5,6
 158 149 158 149 211 66 c 0,7,8
 272 -26 272 -26 391 -27 c 0,9,10
 524 -27 524 -27 702 166 c 1,11,-1
 702 -27 l 1,12,-1
 748 -27 l 1,13,-1
 1024 84 l 1,14,-1
 1010 119 l 1,15,16
 967 103 967 103 940 102 c 0,17,18
 868 102 868 102 868 242 c 2,19,-1
 868 915 l 1,20,-1
 551 915 l 1,21,-1
 551 879 l 1,22,23
 647 879 647 879 676 848 c 0,24,25
 703 819 703 819 702 719 c 2,26,-1
 702 225 l 1,27,28
 577 94 577 94 477 94 c 0,29,30
 323 94 323 94 324 279 c 2,31,-1
 324 915 l 1,32,-1
 6 915 l 1,33,-1
 6 879 l 1,0,1
EndSplineSet
EndChar
StartChar: v
Encoding: 118 118 88
Width: 1024
GlyphClass: 2
Flags: W
Fore
18 879 m 1,0,1
 92 869 92 869 129 829 c 0,2,3
 143 815 143 815 157.5 788.5 c 128,-1,4
 172 762 172 762 188 723 c 2,5,-1
 504 -27 l 1,6,-1
 545 -27 l 1,7,-1
 860 735 l 2,8,9
 917 878 917 878 1006 879 c 1,10,-1
 1006 915 l 1,11,-1
 707 915 l 1,12,-1
 707 879 l 1,13,14
 811 879 811 879 811 825 c 0,15,16
 811 774 811 774 573 219 c 1,17,18
 340 737 340 737 340 805 c 0,19,20
 340 879 340 879 449 879 c 1,21,-1
 449 915 l 1,22,-1
 18 915 l 1,23,-1
 18 879 l 1,0,1
EndSplineSet
EndChar
StartChar: w
Encoding: 119 119 89
Width: 1478
GlyphClass: 2
Flags: W
Fore
16 879 m 1,0,1
 86 867 86 867 119 823 c 0,2,3
 139 800 139 800 170 717 c 2,4,-1
 455 -27 l 1,5,-1
 492 -27 l 1,6,-1
 760 557 l 1,7,-1
 987 -27 l 1,8,-1
 1030 -27 l 1,9,-1
 1325 739 l 2,10,11
 1378 878 1378 878 1462 879 c 1,12,-1
 1462 915 l 1,13,-1
 1174 915 l 1,14,-1
 1174 879 l 1,15,16
 1270 879 1270 879 1270 823 c 0,17,18
 1270 739 1270 739 1057 236 c 1,19,20
 842 728 842 728 842 803 c 0,21,22
 842 879 842 879 963 879 c 1,23,-1
 963 915 l 1,24,-1
 526 915 l 1,25,-1
 526 879 l 1,26,27
 628 879 628 879 664 805 c 0,28,29
 680 768 680 768 682 754 c 1,30,31
 692 725 692 725 702.5 698.5 c 128,-1,32
 713 672 713 672 723 643 c 1,33,-1
 528 215 l 1,34,35
 313 745 313 745 313 815 c 0,36,37
 313 878 313 878 399 879 c 1,38,-1
 399 915 l 1,39,-1
 16 915 l 1,40,-1
 16 879 l 1,0,1
EndSplineSet
EndChar
StartChar: x
Encoding: 120 120 90
Width: 1024
GlyphClass: 2
Flags: W
Fore
27 879 m 1,0,1
 142 879 142 879 260 705 c 0,2,3
 287 664 287 664 326 604.5 c 128,-1,4
 365 545 365 545 416 463 c 1,5,6
 344 363 344 363 300 302.5 c 128,-1,7
 256 242 256 242 240 219 c 0,8,9
 95 37 95 37 35 37 c 1,10,-1
 35 0 l 1,11,-1
 334 0 l 1,12,-1
 334 37 l 1,13,14
 244 37 244 37 244 90 c 256,15,16
 244 143 244 143 457 406 c 1,17,18
 656 127 656 127 655 84 c 0,19,20
 655 37 655 37 567 37 c 1,21,-1
 567 0 l 1,22,-1
 999 0 l 1,23,-1
 999 37 l 1,24,25
 925 37 925 37 864 102 c 0,26,27
 854 112 854 112 772 229 c 2,28,-1
 557 537 l 1,29,30
 682 711 682 711 707 741 c 0,31,32
 820 878 820 878 901 879 c 1,33,-1
 901 915 l 1,34,-1
 592 915 l 1,35,-1
 592 879 l 1,36,37
 664 879 664 879 664 829 c 0,38,39
 664 802 664 802 516 600 c 1,40,41
 383 799 383 799 383 827 c 0,42,43
 383 878 383 878 459 879 c 1,44,-1
 459 915 l 1,45,-1
 27 915 l 1,46,-1
 27 879 l 1,0,1
EndSplineSet
EndChar
StartChar: y
Encoding: 121 121 91
Width: 1024
GlyphClass: 2
Flags: W
Fore
12 879 m 1,0,1
 106 871 106 871 184 705 c 2,2,-1
 504 37 l 1,3,4
 475 -39 475 -39 456.5 -84 c 128,-1,5
 438 -129 438 -129 430 -145 c 0,6,7
 364 -272 364 -272 299 -272 c 0,8,9
 276 -272 276 -272 231 -254 c 0,10,11
 184 -236 184 -236 164 -236 c 0,12,13
 60 -236 60 -236 59 -326 c 0,14,15
 59 -379 59 -379 100 -409.5 c 128,-1,16
 141 -440 141 -440 197 -440 c 0,17,18
 291 -440 291 -440 381 -356 c 0,19,20
 457 -286 457 -286 498 -184 c 2,21,-1
 889 772 l 2,22,23
 932 878 932 878 1012 879 c 1,24,-1
 1012 915 l 1,25,-1
 713 915 l 1,26,-1
 713 879 l 1,27,28
 805 879 805 879 805 827 c 0,29,30
 805 745 805 745 707 522 c 2,31,-1
 584 242 l 1,32,33
 531 346 531 346 493 416.5 c 128,-1,34
 455 487 455 487 434 528 c 0,35,36
 328 739 328 739 328 805 c 0,37,38
 328 879 328 879 438 879 c 1,39,-1
 438 915 l 1,40,-1
 12 915 l 1,41,-1
 12 879 l 1,0,1
EndSplineSet
EndChar
StartChar: z
Encoding: 122 122 92
Width: 909
GlyphClass: 2
Flags: W
Fore
37 0 m 1,0,-1
 846 0 l 1,1,-1
 858 281 l 1,2,-1
 821 281 l 1,3,4
 807 146 807 146 758 106 c 0,5,6
 711 69 711 69 569 70 c 2,7,-1
 260 70 l 1,8,-1
 872 879 l 1,9,-1
 872 915 l 1,10,-1
 102 915 l 1,11,-1
 102 662 l 1,12,-1
 139 662 l 1,13,14
 151 787 151 787 201 819 c 0,15,16
 240 846 240 846 371 846 c 2,17,-1
 645 846 l 1,18,-1
 37 37 l 1,19,-1
 37 0 l 1,0,-1
EndSplineSet
EndChar
StartChar: braceleft
Encoding: 123 123 93
Width: 1374
GlyphClass: 2
Flags: W
Fore
68 655 m 1,0,-1
 807 -133 l 1,1,-1
 922 -133 l 1,2,-1
 190 655 l 1,3,-1
 907 1454 l 1,4,-1
 793 1454 l 1,5,-1
 68 655 l 1,0,-1
455 655 m 1,6,-1
 1190 -133 l 1,7,-1
 1305 -133 l 1,8,-1
 578 655 l 1,9,-1
 1290 1454 l 1,10,-1
 1176 1454 l 1,11,-1
 455 655 l 1,6,-1
EndSplineSet
EndChar
StartChar: bar
Encoding: 124 124 94
Width: 1759
GlyphClass: 2
Flags: W
Fore
68 229 m 1,0,-1
 1421 229 l 2,1,2
 1448 229 1448 229 1448 201 c 1,3,-1
 1436 176 l 1,4,-1
 1169 -14 l 1,5,-1
 1192 -39 l 1,6,-1
 1690 276 l 1,7,-1
 1192 586 l 1,8,-1
 1169 563 l 1,9,-1
 1436 365 l 1,10,-1
 1448 342 l 1,11,12
 1448 315 1448 315 1421 315 c 2,13,-1
 68 315 l 1,14,-1
 68 229 l 1,0,-1
68 807 m 1,15,-1
 567 485 l 1,16,-1
 592 512 l 1,17,-1
 324 707 l 1,18,-1
 311 727 l 1,19,20
 311 754 311 754 338 754 c 2,21,-1
 1690 754 l 1,22,-1
 1690 844 l 1,23,-1
 338 844 l 2,24,25
 311 844 311 844 311 870 c 1,26,-1
 324 893 l 1,27,-1
 592 1092 l 1,28,-1
 567 1116 l 1,29,-1
 68 807 l 1,15,-1
EndSplineSet
EndChar
StartChar: braceright
Encoding: 125 125 95
Width: 1374
GlyphClass: 2
Flags: W
Fore
68 -133 m 1,0,-1
 186 -133 l 1,1,-1
 922 655 l 1,2,-1
 201 1454 l 1,3,-1
 82 1454 l 1,4,-1
 797 655 l 1,5,-1
 68 -133 l 1,0,-1
455 -133 m 1,6,-1
 569 -133 l 1,7,-1
 1305 655 l 1,8,-1
 584 1454 l 1,9,-1
 469 1454 l 1,10,-1
 1184 655 l 1,11,-1
 455 -133 l 1,6,-1
EndSplineSet
EndChar
StartChar: asciitilde
Encoding: 126 126 96
Width: 1751
GlyphClass: 2
Flags: W
Fore
68 467 m 1,0,-1
 567 16 l 1,1,-1
 598 55 l 1,2,-1
 440 213 l 1,3,-1
 444 262 l 1,4,-1
 1311 262 l 1,5,-1
 1311 213 l 1,6,-1
 1149 55 l 1,7,-1
 1184 16 l 1,8,-1
 1679 467 l 1,9,-1
 1184 901 l 1,10,-1
 1149 862 l 1,11,-1
 1311 705 l 1,12,-1
 1311 657 l 1,13,-1
 444 657 l 1,14,-1
 440 705 l 1,15,-1
 598 862 l 1,16,-1
 567 901 l 1,17,-1
 68 467 l 1,0,-1
186 467 m 1,18,-1
 313 573 l 1,19,-1
 1440 573 l 1,20,-1
 1563 467 l 1,21,-1
 1436 346 l 1,22,-1
 315 346 l 1,23,-1
 186 467 l 1,18,-1
EndSplineSet
EndChar
StartChar: exclamdown
Encoding: 161 161 98
Width: 1251
GlyphClass: 2
Flags: W
Fore
25 377 m 1,0,-1
 231 543 l 1,1,-1
 231 260 l 2,2,3
 231 127 231 127 203 86 c 0,4,5
 168 37 168 37 39 37 c 1,6,-1
 39 0 l 1,7,-1
 1087 0 l 1,8,-1
 1204 369 l 1,9,-1
 1171 375 l 1,10,11
 1114 232 1114 232 1044 168 c 0,12,13
 958 88 958 88 819 88 c 2,14,-1
 516 88 l 2,15,16
 450 88 450 88 432 150 c 0,17,18
 424 175 424 175 424 266 c 2,19,-1
 424 700 l 1,20,-1
 651 893 l 1,21,-1
 651 987 l 1,22,-1
 424 801 l 1,23,-1
 424 1075 l 2,24,25
 424 1225 424 1225 465 1272 c 128,-1,26
 506 1319 506 1319 651 1319 c 1,27,-1
 651 1356 l 1,28,-1
 39 1356 l 1,29,-1
 39 1319 l 1,30,31
 170 1319 170 1319 205 1270 c 0,32,33
 232 1235 232 1235 231 1096 c 2,34,-1
 231 641 l 1,35,-1
 25 469 l 1,36,-1
 25 377 l 1,0,-1
EndSplineSet
EndChar
StartChar: cent
Encoding: 162 162 99
Width: 1331
GlyphClass: 2
Flags: W
Fore
68 -31 m 1,0,-1
 68 -127 l 1,1,-1
 1262 -127 l 1,2,-1
 1262 -31 l 1,3,-1
 68 -31 l 1,0,-1
68 141 m 1,4,-1
 1262 141 l 1,5,-1
 1262 242 l 1,6,-1
 68 242 l 1,7,-1
 68 141 l 1,4,-1
68 895 m 1,8,-1
 614 895 l 1,9,-1
 614 426 l 1,10,-1
 713 426 l 1,11,-1
 713 895 l 1,12,-1
 1262 895 l 1,13,-1
 1262 995 l 1,14,-1
 713 995 l 1,15,-1
 713 1468 l 1,16,-1
 614 1468 l 1,17,-1
 614 995 l 1,18,-1
 68 995 l 1,19,-1
 68 895 l 1,8,-1
EndSplineSet
EndChar
StartChar: sterling
Encoding: 163 163 100
Width: 1331
GlyphClass: 2
Flags: W
Fore
68 330 m 1,0,-1
 614 330 l 1,1,-1
 614 -141 l 1,2,-1
 713 -141 l 1,3,-1
 713 330 l 1,4,-1
 1262 330 l 1,5,-1
 1262 428 l 1,6,-1
 713 428 l 1,7,-1
 713 895 l 1,8,-1
 614 895 l 1,9,-1
 614 428 l 1,10,-1
 68 428 l 1,11,-1
 68 330 l 1,0,-1
68 1083 m 1,12,-1
 1262 1083 l 1,13,-1
 1262 1184 l 1,14,-1
 68 1184 l 1,15,-1
 68 1083 l 1,12,-1
68 1358 m 1,16,-1
 1262 1358 l 1,17,-1
 1262 1456 l 1,18,-1
 68 1456 l 1,19,-1
 68 1358 l 1,16,-1
EndSplineSet
EndChar
StartChar: currency
Encoding: 164 164 101
Width: 1331
GlyphClass: 2
Flags: W
Fore
68 475 m 1,0,-1
 614 475 l 1,1,-1
 614 0 l 1,2,-1
 713 0 l 1,3,-1
 713 475 l 1,4,-1
 1262 475 l 1,5,-1
 1262 575 l 1,6,-1
 713 575 l 1,7,-1
 713 1042 l 1,8,-1
 614 1042 l 1,9,-1
 614 575 l 1,10,-1
 68 575 l 1,11,-1
 68 475 l 1,0,-1
68 1225 m 1,12,-1
 1262 1225 l 1,13,-1
 1262 1325 l 1,14,-1
 68 1325 l 1,15,-1
 68 1225 l 1,12,-1
EndSplineSet
EndChar
StartChar: yen
Encoding: 165 165 102
Width: 1331
GlyphClass: 2
Flags: W
Fore
68 0 m 1,0,-1
 1262 0 l 1,1,-1
 1262 98 l 1,2,-1
 68 98 l 1,3,-1
 68 0 l 1,0,-1
68 754 m 1,4,-1
 614 754 l 1,5,-1
 614 285 l 1,6,-1
 713 285 l 1,7,-1
 713 754 l 1,8,-1
 1262 754 l 1,9,-1
 1262 854 l 1,10,-1
 713 854 l 1,11,-1
 713 1329 l 1,12,-1
 614 1329 l 1,13,-1
 614 854 l 1,14,-1
 68 854 l 1,15,-1
 68 754 l 1,4,-1
EndSplineSet
EndChar
StartChar: section
Encoding: 167 167 103
Width: 1755
GlyphClass: 2
Flags: W
Fore
68 442 m 0,0,1
 68 292 68 292 180 168 c 0,2,3
 295 35 295 35 440 35 c 0,4,5
 553 35 553 35 629 86 c 0,6,7
 652 100 652 100 684.5 133 c 128,-1,8
 717 166 717 166 762 219 c 0,9,10
 848 317 848 317 879 332 c 1,11,12
 936 260 936 260 973 201 c 0,13,14
 1053 76 1053 76 1104 33 c 0,15,16
 1180 -30 1180 -30 1303 -31 c 0,17,18
 1504 -31 1504 -31 1602 125 c 0,19,20
 1686 258 1686 258 1686 469 c 0,21,22
 1686 647 1686 647 1579 778 c 0,23,24
 1464 919 1464 919 1290 920 c 0,25,26
 1087 920 1087 920 936 657 c 0,27,28
 879 557 879 557 866 549 c 1,29,30
 807 621 807 621 766 669 c 128,-1,31
 725 717 725 717 702 745 c 0,32,33
 620 839 620 839 471 840 c 0,34,35
 301 840 301 840 182 725 c 0,36,37
 68 610 68 610 68 442 c 0,0,1
76 1049 m 1,38,-1
 1683 1049 l 1,39,-1
 1683 1147 l 1,40,-1
 76 1147 l 1,41,-1
 76 1049 l 1,38,-1
76 1290 m 1,42,-1
 1683 1290 l 1,43,-1
 1683 1389 l 1,44,-1
 76 1389 l 1,45,-1
 76 1290 l 1,42,-1
115 457 m 0,46,47
 115 594 115 594 209 680 c 128,-1,48
 303 766 303 766 442 766 c 0,49,50
 563 766 563 766 690 674 c 0,51,52
 825 572 825 572 825 455 c 0,53,54
 825 367 825 367 684 236 c 0,55,56
 547 105 547 105 457 104 c 0,57,58
 291 104 291 104 203 196.5 c 128,-1,59
 115 289 115 289 115 457 c 0,46,47
934 401 m 0,60,61
 934 507 934 507 1079.5 659 c 128,-1,62
 1225 811 1225 811 1331 811 c 0,63,64
 1462 811 1462 811 1559 702 c 0,65,66
 1653 596 1653 596 1653 459 c 0,67,68
 1653 318 1653 318 1565 217 c 0,69,70
 1473 111 1473 111 1333 111 c 0,71,72
 1259 111 1259 111 1203 122 c 128,-1,73
 1147 133 1147 133 1103 159.5 c 128,-1,74
 1059 186 1059 186 1023 229 c 128,-1,75
 987 272 987 272 956 336 c 0,76,77
 934 385 934 385 934 401 c 0,60,61
EndSplineSet
EndChar
StartChar: copyright
Encoding: 169 169 104
Width: 569
GlyphClass: 2
Flags: W
Fore
33 442 m 1,0,-1
 211 590 l 1,1,-1
 211 174 l 2,2,3
 211 94 211 94 180.5 65.5 c 128,-1,4
 150 37 150 37 70 37 c 1,5,-1
 70 0 l 1,6,-1
 518 0 l 1,7,-1
 518 37 l 1,8,9
 438 37 438 37 407.5 65.5 c 128,-1,10
 377 94 377 94 377 174 c 2,11,-1
 377 727 l 1,12,-1
 555 872 l 1,13,-1
 555 956 l 1,14,-1
 377 811 l 1,15,-1
 377 1421 l 1,16,-1
 332 1421 l 1,17,-1
 55 1309 l 1,18,-1
 70 1274 l 1,19,20
 113 1290 113 1290 139 1290 c 0,21,22
 211 1290 211 1290 211 1151 c 2,23,-1
 211 674 l 1,24,-1
 33 526 l 1,25,-1
 33 442 l 1,0,-1
EndSplineSet
EndChar
StartChar: ordfeminine
Encoding: 170 170 105
Width: 1478
GlyphClass: 2
Flags: W
Fore
37 672 m 1,0,-1
 231 672 l 1,1,-1
 231 260 l 2,2,3
 231 127 231 127 203 86 c 0,4,5
 168 37 168 37 39 37 c 1,6,-1
 39 0 l 1,7,-1
 670 0 l 2,8,9
 998 0 998 0 1196 176 c 0,10,11
 1403 358 1403 358 1403 684 c 0,12,13
 1403 1057 1403 1057 1159 1221 c 0,14,15
 956 1356 956 1356 563 1356 c 2,16,-1
 39 1356 l 1,17,-1
 39 1319 l 1,18,19
 170 1319 170 1319 205 1270 c 0,20,21
 232 1235 232 1235 231 1096 c 2,22,-1
 231 745 l 1,23,-1
 37 745 l 1,24,-1
 37 672 l 1,0,-1
424 100 m 1,25,-1
 424 672 l 1,26,-1
 817 672 l 1,27,-1
 817 745 l 1,28,-1
 424 745 l 1,29,-1
 424 1253 l 1,30,31
 528 1282 528 1282 629 1282 c 0,32,33
 893 1282 893 1282 1036 1108 c 0,34,35
 1173 946 1173 946 1174 678 c 0,36,37
 1174 414 1174 414 1038 252 c 0,38,39
 893 74 893 74 637 74 c 0,40,41
 533 73 533 73 424 100 c 1,25,-1
EndSplineSet
EndChar
StartChar: guillemotleft
Encoding: 171 171 106
Width: 1478
GlyphClass: 2
Flags: W
Fore
76 678 m 0,0,1
 76 369 76 369 276 162 c 1,2,-1
 145 0 l 1,3,-1
 205 -45 l 1,4,-1
 332 111 l 1,5,6
 508 -28 508 -28 739 -29 c 0,7,8
 1040 -29 1040 -29 1225 176 c 0,9,10
 1403 373 1403 373 1403 678 c 0,11,12
 1403 985 1403 985 1206 1192 c 1,13,-1
 1337 1356 l 1,14,-1
 1280 1399 l 1,15,-1
 1153 1241 l 1,16,17
 977 1386 977 1386 739 1386 c 0,18,19
 438 1386 438 1386 254 1180 c 0,20,21
 76 983 76 983 76 678 c 0,0,1
305 678 m 0,22,23
 305 938 305 938 391 1102 c 0,24,25
 502 1313 502 1313 739 1313 c 0,26,27
 964 1313 964 1313 1065 1133 c 1,28,-1
 379 287 l 1,29,30
 305 447 305 447 305 678 c 0,22,23
418 215 m 1,31,-1
 1102 1063 l 1,32,33
 1174 909 1174 909 1174 678 c 0,34,35
 1174 416 1174 416 1087 254 c 0,36,37
 976 43 976 43 739 43 c 0,38,39
 524 43 524 43 418 215 c 1,31,-1
EndSplineSet
EndChar
StartChar: uni00AD
Encoding: 173 173 107
Width: 669
GlyphClass: 2
Flags: W
Fore
82 381 m 1,0,-1
 600 381 l 1,1,-1
 600 539 l 1,2,-1
 82 539 l 1,3,-1
 82 381 l 1,0,-1
EndSplineSet
EndChar
StartChar: registered
Encoding: 174 174 108
Width: 1024
GlyphClass: 2
Flags: W
Fore
39 -20 m 1,0,-1
 86 -63 l 1,1,-1
 221 84 l 1,2,3
 340 -27 340 -27 500 -27 c 0,4,5
 707 -27 707 -27 834 125 c 0,6,7
 955 270 955 270 954 479 c 0,8,9
 954 657 954 657 848 784 c 1,10,-1
 985 938 l 1,11,-1
 938 981 l 1,12,-1
 805 831 l 1,13,14
 678 944 678 944 514 944 c 0,15,16
 317 944 317 944 188 793 c 0,17,18
 69 650 69 650 70 449 c 0,19,20
 70 265 70 265 178 131 c 1,21,-1
 39 -20 l 1,0,-1
256 537 m 0,22,23
 256 875 256 875 479 874 c 0,24,25
 622 874 622 874 700 715 c 1,26,-1
 301 268 l 1,27,28
 256 392 256 392 256 537 c 0,22,23
328 205 m 1,29,-1
 727 649 l 1,30,31
 768 526 768 526 768 393 c 0,32,33
 768 41 768 41 547 41 c 0,34,35
 406 41 406 41 328 205 c 1,29,-1
EndSplineSet
EndChar
StartChar: degree
Encoding: 176 176 109
Width: 1628
GlyphClass: 2
Flags: W
Fore
68 664 m 0,0,1
 68 357 68 357 285 145.5 c 128,-1,2
 502 -66 502 -66 811 -66 c 256,3,4
 1120 -66 1120 -66 1339 143 c 0,5,6
 1558 356 1558 356 1559 664 c 0,7,8
 1559 973 1559 973 1341 1178 c 0,9,10
 1126 1387 1126 1387 819 1386 c 0,11,12
 512 1386 512 1386 293 1180 c 0,13,14
 68 967 68 967 68 664 c 0,0,1
162 664 m 0,15,16
 162 932 162 932 354 1112 c 0,17,18
 549 1294 549 1294 815 1294 c 0,19,20
 1089 1294 1089 1294 1276 1114 c 0,21,22
 1464 932 1464 932 1464 664 c 0,23,24
 1464 394 1464 394 1273.5 209.5 c 128,-1,25
 1083 25 1083 25 811 25 c 0,26,27
 541 25 541 25 352 211 c 0,28,29
 162 398 162 398 162 664 c 0,15,16
303 621 m 1,30,-1
 760 621 l 1,31,-1
 760 170 l 1,32,-1
 850 170 l 1,33,-1
 850 621 l 1,34,-1
 1319 621 l 1,35,-1
 1319 709 l 1,36,-1
 850 709 l 1,37,-1
 850 1155 l 1,38,-1
 760 1155 l 1,39,-1
 760 709 l 1,40,-1
 303 709 l 1,41,-1
 303 621 l 1,30,-1
EndSplineSet
EndChar
StartChar: acute
Encoding: 180 180 112
Width: 1351
GlyphClass: 2
Flags: W
Fore
68 -94 m 1,0,-1
 68 1356 l 1,1,-1
 168 1356 l 1,2,-1
 168 0 l 1,3,-1
 1282 0 l 1,4,-1
 1282 -94 l 1,5,-1
 68 -94 l 1,0,-1
EndSplineSet
EndChar
StartChar: paragraph
Encoding: 182 182 113
Width: 1617
GlyphClass: 2
Flags: W
Fore
68 647 m 0,0,1
 68 334 68 334 287 133 c 0,2,3
 498 -60 498 -60 815 -59 c 0,4,5
 1122 -59 1122 -59 1335 143.5 c 128,-1,6
 1548 346 1548 346 1548 655 c 1,7,-1
 1454 655 l 1,8,9
 1454 379 1454 379 1274 198.5 c 128,-1,10
 1094 18 1094 18 819 18 c 0,11,12
 543 18 543 18 356 190 c 0,13,14
 161 368 161 368 162 641 c 0,15,16
 162 932 162 932 344 1110 c 0,17,18
 524 1288 524 1288 819 1288 c 0,19,20
 1130 1288 1130 1288 1325 1042 c 1,21,-1
 1122 995 l 1,22,-1
 1464 920 l 1,23,-1
 1464 1282 l 1,24,-1
 1364 1116 l 1,25,26
 1307 1235 1307 1235 1126 1309 c 0,27,28
 974 1372 974 1372 819 1372 c 0,29,30
 489 1372 489 1372 283 1174 c 0,31,32
 68 973 68 973 68 647 c 0,0,1
EndSplineSet
EndChar
StartChar: ordmasculine
Encoding: 186 186 115
Width: 770
GlyphClass: 2
Flags: W
Fore
51 -236 m 1,0,-1
 215 -236 l 1,1,-1
 696 659 l 1,2,-1
 215 1556 l 1,3,-1
 51 1556 l 1,4,-1
 481 659 l 1,5,-1
 51 -236 l 1,0,-1
EndSplineSet
EndChar
StartChar: guillemotright
Encoding: 187 187 116
Width: 1501
GlyphClass: 2
Flags: W
Fore
70 641 m 1,0,-1
 1432 641 l 1,1,-1
 1432 737 l 1,2,-1
 70 737 l 1,3,-1
 70 641 l 1,0,-1
EndSplineSet
EndChar
StartChar: questiondown
Encoding: 191 191 117
Width: 1632
GlyphClass: 2
Flags: W
Fore
68 -94 m 1,0,-1
 1563 -94 l 1,1,-1
 1563 1378 l 1,2,-1
 68 1378 l 1,3,-1
 68 -94 l 1,0,-1
168 0 m 1,4,-1
 168 1282 l 1,5,-1
 1464 1282 l 1,6,-1
 1464 0 l 1,7,-1
 168 0 l 1,4,-1
309 606 m 1,8,-1
 760 606 l 1,9,-1
 760 139 l 1,10,-1
 858 139 l 1,11,-1
 858 606 l 1,12,-1
 1325 606 l 1,13,-1
 1325 702 l 1,14,-1
 858 702 l 1,15,-1
 858 1141 l 1,16,-1
 760 1141 l 1,17,-1
 760 702 l 1,18,-1
 309 702 l 1,19,-1
 309 606 l 1,8,-1
EndSplineSet
EndChar
StartChar: Agrave
Encoding: 192 192 118
Width: 1024
GlyphClass: 2
Flags: W
Fore
70 424 m 0,0,1
 70 244 70 244 164 117 c 0,2,3
 268 -26 268 -26 440 -27 c 0,4,5
 585 -27 585 -27 713 102 c 1,6,-1
 713 -27 l 1,7,-1
 758 -27 l 1,8,-1
 1034 84 l 1,9,-1
 1020 119 l 1,10,11
 977 103 977 103 950 102 c 0,12,13
 878 102 878 102 879 242 c 2,14,-1
 879 1110 l 1,15,-1
 989 1110 l 1,16,-1
 989 1151 l 1,17,-1
 879 1151 l 1,18,-1
 879 1421 l 1,19,-1
 834 1421 l 1,20,-1
 557 1309 l 1,21,-1
 571 1274 l 1,22,23
 614 1290 614 1290 641 1290 c 0,24,25
 713 1290 713 1290 713 1151 c 1,26,-1
 508 1151 l 1,27,-1
 508 1110 l 1,28,-1
 713 1110 l 1,29,-1
 713 866 l 1,30,31
 639 944 639 944 510 944 c 0,32,33
 311 944 311 944 186 778 c 0,34,35
 70 627 70 627 70 424 c 0,0,1
256 496 m 0,36,37
 256 641 256 641 307 745 c 0,38,39
 370 882 370 882 500 883 c 0,40,41
 598 883 598 883 657 799 c 0,42,43
 712 721 712 721 713 621 c 2,44,-1
 713 174 l 1,45,46
 629 82 629 82 537 82 c 0,47,48
 394 82 394 82 317 225 c 0,49,50
 256 338 256 338 256 496 c 0,36,37
EndSplineSet
EndChar
StartChar: Aacute
Encoding: 193 193 119
Width: 1628
GlyphClass: 2
Flags: W
Fore
68 664 m 0,0,1
 68 357 68 357 285 145.5 c 128,-1,2
 502 -66 502 -66 811 -66 c 256,3,4
 1120 -66 1120 -66 1339 143 c 0,5,6
 1558 356 1558 356 1559 664 c 0,7,8
 1559 973 1559 973 1341 1178 c 0,9,10
 1126 1387 1126 1387 819 1386 c 0,11,12
 512 1386 512 1386 293 1180 c 0,13,14
 68 967 68 967 68 664 c 0,0,1
162 664 m 0,15,16
 162 932 162 932 354 1112 c 0,17,18
 549 1294 549 1294 815 1294 c 0,19,20
 1089 1294 1089 1294 1276 1114 c 0,21,22
 1464 932 1464 932 1464 664 c 0,23,24
 1464 394 1464 394 1273.5 209.5 c 128,-1,25
 1083 25 1083 25 811 25 c 0,26,27
 541 25 541 25 352 211 c 0,28,29
 162 398 162 398 162 664 c 0,15,16
EndSplineSet
EndChar
StartChar: Acircumflex
Encoding: 194 194 120
Width: 1628
GlyphClass: 2
Flags: W
Fore
68 664 m 0,0,1
 68 357 68 357 285 145.5 c 128,-1,2
 502 -66 502 -66 811 -66 c 256,3,4
 1120 -66 1120 -66 1339 143 c 0,5,6
 1558 356 1558 356 1559 664 c 0,7,8
 1559 973 1559 973 1341 1178 c 0,9,10
 1126 1387 1126 1387 819 1386 c 0,11,12
 512 1386 512 1386 293 1180 c 0,13,14
 68 967 68 967 68 664 c 0,0,1
162 664 m 0,15,16
 162 932 162 932 354 1112 c 0,17,18
 549 1294 549 1294 815 1294 c 0,19,20
 1089 1294 1089 1294 1276 1114 c 0,21,22
 1464 932 1464 932 1464 664 c 0,23,24
 1464 394 1464 394 1273.5 209.5 c 128,-1,25
 1083 25 1083 25 811 25 c 0,26,27
 541 25 541 25 352 211 c 0,28,29
 162 398 162 398 162 664 c 0,15,16
721 664 m 256,30,31
 721 629 721 629 746.5 604.5 c 128,-1,32
 772 580 772 580 807 580 c 0,33,34
 844 580 844 580 869.5 603.5 c 128,-1,35
 895 627 895 627 895 664 c 0,36,37
 895 752 895 752 807 752 c 0,38,39
 772 752 772 752 746.5 725.5 c 128,-1,40
 721 699 721 699 721 664 c 256,30,31
EndSplineSet
EndChar
StartChar: Atilde
Encoding: 195 195 121
Width: 770
GlyphClass: 2
Flags: W
Fore
72 659 m 1,0,-1
 553 -236 l 1,1,-1
 717 -236 l 1,2,-1
 287 659 l 1,3,-1
 717 1556 l 1,4,-1
 553 1556 l 1,5,-1
 72 659 l 1,0,-1
EndSplineSet
EndChar
StartChar: Adieresis
Encoding: 196 196 122
Width: 1892
GlyphClass: 2
Flags: W
Fore
68 0 m 1,0,-1
 1821 0 l 1,1,2
 1821 594 1821 594 1329 856 c 0,3,4
 1153 950 1153 950 924 950 c 0,5,6
 709 950 709 950 520 838 c 0,7,8
 68 569 68 569 68 0 c 1,0,-1
158 96 m 1,9,10
 158 403 158 403 387 639 c 0,11,12
 618 877 618 877 920 877 c 0,13,14
 1246 877 1246 877 1483 647 c 0,15,16
 1723 416 1723 416 1722 96 c 1,17,-1
 158 96 l 1,9,10
EndSplineSet
EndChar
StartChar: Aring
Encoding: 197 197 123
Width: 1710
GlyphClass: 2
Flags: W
Fore
68 -76 m 1,0,-1
 1640 -76 l 1,1,-1
 848 1520 l 1,2,-1
 68 -76 l 1,0,-1
203 0 m 1,3,-1
 848 1329 l 1,4,-1
 1505 0 l 1,5,-1
 203 0 l 1,3,-1
EndSplineSet
EndChar
StartChar: AE
Encoding: 198 198 124
Width: 16
GlyphClass: 2
Flags: W
Fore
199 1077 m 1,0,-1
 231 1077 l 1,1,-1
 481 1288 l 1,2,-1
 731 1077 l 1,3,-1
 764 1077 l 1,4,-1
 573 1407 l 1,5,-1
 389 1407 l 1,6,-1
 199 1077 l 1,0,-1
EndSplineSet
EndChar
StartChar: Ccedilla
Encoding: 199 199 125
Width: 16
GlyphClass: 2
Flags: W
Fore
442 1772 m 1,0,-1
 735 1425 l 1,1,-1
 770 1425 l 1,2,-1
 666 1772 l 1,3,-1
 442 1772 l 1,0,-1
EndSplineSet
EndChar
StartChar: Egrave
Encoding: 200 200 126
Width: 1882
GlyphClass: 2
Flags: W
Fore
72 737 m 0,0,1
 72 626 72 626 152 528 c 0,2,3
 199 471 199 471 236 428 c 2,4,-1
 297 356 l 2,5,6
 377 260 377 260 377 170 c 0,7,8
 377 139 377 139 350 84 c 0,9,10
 325 25 325 25 326 6 c 0,11,12
 326 -164 326 -164 942 -164 c 256,13,14
 1558 -164 1558 -164 1559 6 c 0,15,16
 1559 29 1559 29 1532 84 c 0,17,18
 1507 141 1507 141 1507 170 c 0,19,20
 1507 262 1507 262 1587 358 c 0,21,22
 1634 415 1634 415 1671 456.5 c 128,-1,23
 1708 498 1708 498 1733 526 c 0,24,25
 1813 626 1813 626 1812 737 c 0,26,27
 1812 903 1812 903 1716 997.5 c 128,-1,28
 1620 1092 1620 1092 1454 1092 c 0,29,30
 1259 1092 1259 1092 1116 942 c 1,31,32
 1132 1018 1132 1018 1133 1063 c 0,33,34
 1133 1188 1133 1188 987 1262 c 1,35,-1
 987 1356 l 1,36,-1
 1077 1356 l 1,37,-1
 1077 1446 l 1,38,-1
 987 1446 l 1,39,-1
 987 1536 l 1,40,-1
 897 1536 l 1,41,-1
 897 1446 l 1,42,-1
 807 1446 l 1,43,-1
 807 1356 l 1,44,-1
 897 1356 l 1,45,-1
 897 1262 l 1,46,47
 752 1188 752 1188 752 1065 c 0,48,49
 752 1018 752 1018 768 942 c 1,50,51
 631 1092 631 1092 438 1092 c 0,52,53
 270 1092 270 1092 171 997.5 c 128,-1,54
 72 903 72 903 72 737 c 0,0,1
143 745 m 0,55,56
 143 806 143 806 165.5 856.5 c 128,-1,57
 188 907 188 907 228 943 c 128,-1,58
 268 979 268 979 322.5 998.5 c 128,-1,59
 377 1018 377 1018 438 1018 c 0,60,61
 579 1018 579 1018 737 877 c 0,62,63
 897 738 897 738 897 598 c 2,64,-1
 897 465 l 1,65,66
 606 465 606 465 389 379 c 1,67,68
 323 447 323 447 283.5 487.5 c 128,-1,69
 244 528 244 528 231 545 c 0,70,71
 143 653 143 653 143 745 c 0,55,56
426 59 m 1,72,73
 459 110 459 110 459 178 c 256,74,75
 459 246 459 246 426 303 c 1,76,77
 653 381 653 381 942 381 c 256,78,79
 1231 381 1231 381 1458 303 c 1,80,81
 1423 250 1423 250 1423 178 c 0,82,83
 1423 119 1423 119 1458 59 c 1,84,85
 1270 133 1270 133 942 133 c 0,86,87
 612 133 612 133 426 59 c 1,72,73
451 -8 m 1,88,89
 584 55 584 55 942 55 c 0,90,91
 1304 55 1304 55 1434 -8 c 1,92,93
 1297 -84 1297 -84 942 -84 c 0,94,95
 584 -84 584 -84 451 -8 c 1,88,89
821 1051 m 0,96,97
 821 1106 821 1106 855 1146 c 128,-1,98
 889 1186 889 1186 942 1186 c 0,99,100
 997 1186 997 1186 1030 1147 c 128,-1,101
 1063 1108 1063 1108 1063 1053 c 0,102,103
 1063 971 1063 971 1020 866 c 0,104,105
 993 807 993 807 974.5 761 c 128,-1,106
 956 715 956 715 942 686 c 1,107,108
 821 969 821 969 821 1051 c 0,96,97
987 465 m 1,109,-1
 987 598 l 2,110,111
 987 737 987 737 1145 877 c 0,112,113
 1305 1018 1305 1018 1446 1018 c 0,114,115
 1571 1018 1571 1018 1655 946 c 0,116,117
 1741 868 1741 868 1741 745 c 0,118,119
 1741 659 1741 659 1651 545 c 0,120,121
 1635 525 1635 525 1597 483.5 c 128,-1,122
 1559 442 1559 442 1495 379 c 1,123,124
 1276 465 1276 465 987 465 c 1,109,-1
EndSplineSet
EndChar
StartChar: Eacute
Encoding: 201 201 127
Width: 16
GlyphClass: 2
Flags: W
Fore
209 1464 m 1,0,-1
 502 1118 l 1,1,-1
 537 1118 l 1,2,-1
 432 1464 l 1,3,-1
 209 1464 l 1,0,-1
EndSplineSet
EndChar
StartChar: Ecircumflex
Encoding: 202 202 128
Width: 1890
GlyphClass: 2
Flags: W
Fore
68 1120 m 0,0,1
 68 1077 68 1077 100.5 1042.5 c 128,-1,2
 133 1008 133 1008 176 1008 c 1,3,-1
 295 440 l 2,4,5
 299 420 299 420 318.5 382 c 128,-1,6
 338 344 338 344 373 289 c 0,7,8
 434 191 434 191 434 135 c 0,9,10
 434 110 434 110 408 59 c 0,11,12
 383 10 383 10 383 -10 c 0,13,14
 383 -35 383 -35 434 -72 c 0,15,16
 561 -162 561 -162 879 -162 c 0,17,18
 1510 -162 1510 -162 1509 -10 c 0,19,20
 1509 0 1509 0 1483 51 c 0,21,22
 1458 106 1458 106 1458 135 c 0,23,24
 1458 190 1458 190 1520 289 c 0,25,26
 1555 344 1555 344 1574 382 c 128,-1,27
 1593 420 1593 420 1597 440 c 2,28,-1
 1716 1008 l 1,29,30
 1759 1008 1759 1008 1792 1042.5 c 128,-1,31
 1825 1077 1825 1077 1825 1120 c 0,32,33
 1825 1169 1825 1169 1791 1203 c 128,-1,34
 1757 1237 1757 1237 1708 1237 c 256,35,36
 1659 1237 1659 1237 1625 1203 c 128,-1,37
 1591 1169 1591 1169 1591 1120 c 0,38,39
 1591 1065 1591 1065 1636 1026 c 1,40,-1
 1384 565 l 1,41,-1
 1372 1159 l 1,42,43
 1409 1167 1409 1167 1434.5 1201 c 128,-1,44
 1460 1235 1460 1235 1460 1274 c 0,45,46
 1460 1323 1460 1323 1426.5 1357 c 128,-1,47
 1393 1391 1393 1391 1343 1391 c 0,48,49
 1294 1391 1294 1391 1260.5 1357 c 128,-1,50
 1227 1323 1227 1323 1227 1274 c 0,51,52
 1227 1200 1227 1200 1284 1174 c 1,53,-1
 1092 614 l 1,54,-1
 991 1223 l 1,55,56
 1063 1260 1063 1260 1063 1331 c 0,57,58
 1063 1380 1063 1380 1029 1414 c 128,-1,59
 995 1448 995 1448 946 1448 c 256,60,61
 897 1448 897 1448 863 1414 c 128,-1,62
 829 1380 829 1380 829 1331 c 0,63,64
 829 1259 829 1259 901 1223 c 1,65,-1
 801 614 l 1,66,-1
 608 1174 l 1,67,68
 665 1205 665 1205 666 1274 c 0,69,70
 666 1323 666 1323 632 1357 c 128,-1,71
 598 1391 598 1391 549 1391 c 256,72,73
 500 1391 500 1391 466 1357 c 128,-1,74
 432 1323 432 1323 432 1274 c 0,75,76
 432 1180 432 1180 520 1159 c 1,77,-1
 508 565 l 1,78,-1
 256 1026 l 1,79,80
 301 1071 301 1071 301 1120 c 256,81,82
 301 1169 301 1169 267 1203 c 128,-1,83
 233 1237 233 1237 184 1237 c 256,84,85
 135 1237 135 1237 101.5 1203 c 128,-1,86
 68 1169 68 1169 68 1120 c 0,0,1
125 1120 m 0,87,88
 125 1140 125 1140 144.5 1160 c 128,-1,89
 164 1180 164 1180 184 1180 c 0,90,91
 243 1180 243 1180 244 1120 c 0,92,93
 244 1061 244 1061 184 1061 c 0,94,95
 125 1061 125 1061 125 1120 c 0,87,88
258 881 m 1,96,-1
 504 449 l 1,97,-1
 565 455 l 1,98,-1
 582 1038 l 1,99,-1
 772 479 l 1,100,-1
 846 487 l 1,101,-1
 946 1081 l 1,102,-1
 1044 487 l 1,103,-1
 1118 479 l 1,104,-1
 1305 1038 l 1,105,-1
 1325 455 l 1,106,-1
 1386 449 l 1,107,-1
 1632 881 l 1,108,109
 1538 328 1538 328 1452 303 c 1,110,111
 1219 391 1219 391 946 391 c 0,112,113
 704 391 704 391 434 303 c 1,114,115
 373 352 373 352 319 571 c 0,116,117
 313 598 313 598 298 675 c 128,-1,118
 283 752 283 752 258 881 c 1,96,-1
469 23 m 1,119,120
 510 64 510 64 510 150 c 0,121,122
 510 205 510 205 485 246 c 1,123,124
 628 328 628 328 946 328 c 0,125,126
 1249 328 1249 328 1413 244 c 1,127,128
 1380 205 1380 205 1380 139 c 0,129,130
 1380 78 1380 78 1417 23 c 1,131,132
 1186 97 1186 97 946 96 c 0,133,134
 686 97 686 97 469 23 c 1,119,120
489 1274 m 256,135,136
 489 1333 489 1333 549 1333 c 0,137,138
 608 1333 608 1333 608 1274 c 256,139,140
 608 1215 608 1215 549 1214 c 0,141,142
 489 1215 489 1215 489 1274 c 256,135,136
504 -35 m 1,143,144
 676 33 676 33 946 33 c 0,145,146
 1044 33 1044 33 1171 14 c 0,147,148
 1314 -4 1314 -4 1386 -35 c 1,149,150
 1265 -98 1265 -98 1022 -98 c 2,151,-1
 874 -98 l 2,152,153
 623 -98 623 -98 504 -35 c 1,143,144
887 1331 m 256,154,155
 887 1390 887 1390 946 1391 c 0,156,157
 1005 1391 1005 1391 1006 1331 c 0,158,159
 1006 1272 1006 1272 946 1272 c 0,160,161
 887 1272 887 1272 887 1331 c 256,154,155
1284 1274 m 256,162,163
 1284 1333 1284 1333 1343 1333 c 256,164,165
 1402 1333 1402 1333 1403 1274 c 0,166,167
 1403 1215 1403 1215 1343 1214 c 0,168,169
 1284 1215 1284 1215 1284 1274 c 256,162,163
1649 1120 m 256,170,171
 1649 1179 1649 1179 1708 1180 c 0,172,173
 1767 1180 1767 1180 1767 1120 c 0,174,175
 1767 1061 1767 1061 1708 1061 c 256,176,177
 1649 1061 1649 1061 1649 1120 c 256,170,171
EndSplineSet
EndChar
StartChar: Edieresis
Encoding: 203 203 129
Width: 1558
GlyphClass: 2
Flags: W
Fore
68 61 m 1,0,-1
 68 -152 l 1,1,-1
 1493 -152 l 1,2,-1
 1493 61 l 1,3,-1
 1360 61 l 1,4,-1
 1360 190 l 1,5,-1
 1200 350 l 1,6,-1
 1200 989 l 1,7,-1
 1384 1139 l 1,8,-1
 1384 1462 l 1,9,-1
 1110 1462 l 1,10,-1
 1110 1325 l 1,11,-1
 952 1325 l 1,12,-1
 952 1462 l 1,13,-1
 608 1462 l 1,14,-1
 608 1323 l 1,15,-1
 451 1323 l 1,16,-1
 451 1462 l 1,17,-1
 176 1462 l 1,18,-1
 176 1139 l 1,19,-1
 360 989 l 1,20,-1
 360 348 l 1,21,-1
 201 188 l 1,22,-1
 201 61 l 1,23,-1
 68 61 l 1,0,-1
141 -10 m 1,24,-1
 1419 -10 l 1,25,-1
 1419 -78 l 1,26,-1
 141 -78 l 1,27,-1
 141 -10 l 1,24,-1
250 1176 m 1,28,-1
 250 1389 l 1,29,-1
 377 1389 l 1,30,-1
 377 1249 l 1,31,-1
 682 1249 l 1,32,-1
 682 1389 l 1,33,-1
 879 1389 l 1,34,-1
 879 1249 l 1,35,-1
 1184 1249 l 1,36,-1
 1184 1389 l 1,37,-1
 1311 1389 l 1,38,-1
 1311 1176 l 1,39,-1
 1126 1028 l 1,40,-1
 434 1028 l 1,41,-1
 250 1176 l 1,28,-1
274 61 m 1,42,-1
 274 156 l 1,43,-1
 434 315 l 1,44,-1
 1126 315 l 1,45,-1
 1286 156 l 1,46,-1
 1286 61 l 1,47,-1
 274 61 l 1,42,-1
434 389 m 1,48,-1
 434 954 l 1,49,-1
 1126 954 l 1,50,-1
 1126 389 l 1,51,-1
 434 389 l 1,48,-1
EndSplineSet
EndChar
StartChar: Igrave
Encoding: 204 204 130
Width: 1873
GlyphClass: 2
Flags: W
Fore
68 23 m 1,0,-1
 199 -164 l 1,1,2
 277 -111 277 -111 399 -111 c 0,3,4
 419 -111 419 -111 447 -114 c 128,-1,5
 475 -117 475 -117 514 -121 c 0,6,7
 590 -133 590 -133 631 -133 c 0,8,9
 838 -133 838 -133 938 10 c 1,10,11
 1038 -133 1038 -133 1245 -133 c 0,12,13
 1282 -133 1282 -133 1360 -121 c 0,14,15
 1399 -117 1399 -117 1427.5 -114 c 128,-1,16
 1456 -111 1456 -111 1477 -111 c 0,17,18
 1600 -111 1600 -111 1677 -164 c 1,19,-1
 1808 23 l 1,20,21
 1697 138 1697 138 1542 137 c 0,22,23
 1519 137 1519 137 1482.5 134 c 128,-1,24
 1446 131 1446 131 1399 123 c 0,25,26
 1303 111 1303 111 1255 111 c 0,27,28
 1210 111 1210 111 1167 131 c 0,29,30
 1114 156 1114 156 1114 193 c 1,31,32
 1233 224 1233 224 1239 223 c 1,33,34
 1329 254 1329 254 1329 297 c 1,35,-1
 1247 514 l 1,36,37
 1407 686 1407 686 1407 831 c 0,38,39
 1407 1103 1407 1103 991 1276 c 1,40,41
 1085 1358 1085 1358 1085 1413 c 0,42,43
 1085 1476 1085 1476 1043 1516 c 128,-1,44
 1001 1556 1001 1556 938 1556 c 256,45,46
 875 1556 875 1556 833 1516.5 c 128,-1,47
 791 1477 791 1477 791 1413 c 0,48,49
 791 1358 791 1358 885 1276 c 1,50,51
 469 1092 469 1092 469 831 c 0,52,53
 469 688 469 688 629 514 c 1,54,55
 600 442 600 442 580.5 387 c 128,-1,56
 561 332 561 332 547 297 c 1,57,58
 547 254 547 254 637 223 c 0,59,60
 641 221 641 221 673 214 c 128,-1,61
 705 207 705 207 762 193 c 1,62,63
 762 156 762 156 709 131 c 0,64,65
 666 111 666 111 621 111 c 0,66,67
 572 111 572 111 477 123 c 0,68,69
 430 131 430 131 393 134 c 128,-1,70
 356 137 356 137 334 137 c 0,71,72
 179 138 179 138 68 23 c 1,0,-1
166 10 m 1,73,74
 244 61 244 61 352 61 c 0,75,76
 401 61 401 61 485 47 c 0,77,78
 573 35 573 35 618 35 c 0,79,80
 690 35 690 35 758 72 c 0,81,82
 836 115 836 115 836 180 c 1,83,-1
 899 180 l 1,84,85
 899 69 899 69 825.5 6 c 128,-1,86
 752 -57 752 -57 639 -57 c 0,87,88
 600 -57 600 -57 530 -45 c 0,89,90
 495 -41 495 -41 467.5 -38 c 128,-1,91
 440 -35 440 -35 422 -35 c 0,92,93
 305 -35 305 -35 223 -72 c 1,94,-1
 166 10 l 1,73,74
547 811 m 0,95,96
 547 1081 547 1081 938 1241 c 1,97,98
 993 1218 993 1218 1059 1180 c 0,99,100
 1077 1170 1077 1170 1105 1150 c 128,-1,101
 1133 1130 1133 1130 1169 1104 c 0,102,103
 1255 1043 1255 1043 1292 977 c 128,-1,104
 1329 911 1329 911 1329 811 c 0,105,106
 1329 719 1329 719 1186 563 c 1,107,108
 1075 600 1075 600 938 600 c 256,109,110
 801 600 801 600 690 563 c 1,111,112
 547 719 547 719 547 811 c 0,95,96
635 315 m 1,113,-1
 698 489 l 1,114,115
 778 522 778 522 938 522 c 0,116,117
 1094 522 1094 522 1178 489 c 1,118,-1
 1243 313 l 1,119,120
 1161 256 1161 256 938 256 c 0,121,122
 713 256 713 256 635 315 c 1,113,-1
745 844 m 1,123,-1
 901 844 l 1,124,-1
 901 688 l 1,125,-1
 975 688 l 1,126,-1
 975 844 l 1,127,-1
 1130 844 l 1,128,-1
 1130 918 l 1,129,-1
 975 918 l 1,130,-1
 975 1067 l 1,131,-1
 901 1067 l 1,132,-1
 901 918 l 1,133,-1
 745 918 l 1,134,-1
 745 844 l 1,123,-1
862 1413 m 0,135,136
 862 1442 862 1442 885.5 1468.5 c 128,-1,137
 909 1495 909 1495 938 1495 c 0,138,139
 971 1495 971 1495 992.5 1470.5 c 128,-1,140
 1014 1446 1014 1446 1014 1413 c 256,141,142
 1014 1380 1014 1380 992.5 1352.5 c 128,-1,143
 971 1325 971 1325 938 1325 c 256,144,145
 905 1325 905 1325 883.5 1352.5 c 128,-1,146
 862 1380 862 1380 862 1413 c 0,135,136
977 180 m 1,147,-1
 1040 180 l 1,148,149
 1040 114 1040 114 1118 72 c 0,150,151
 1186 35 1186 35 1257 35 c 0,152,153
 1300 35 1300 35 1391 47 c 0,154,155
 1475 61 1475 61 1524 61 c 0,156,157
 1628 61 1628 61 1710 10 c 1,158,-1
 1653 -72 l 1,159,160
 1567 -35 1567 -35 1454 -35 c 0,161,162
 1436 -35 1436 -35 1408 -38 c 128,-1,163
 1380 -41 1380 -41 1346 -45 c 0,164,165
 1274 -57 1274 -57 1237 -57 c 0,166,167
 1124 -57 1124 -57 1050.5 6 c 128,-1,168
 977 69 977 69 977 180 c 1,147,-1
EndSplineSet
EndChar
StartChar: Iacute
Encoding: 205 205 131
Width: 1794
GlyphClass: 2
Flags: W
Fore
68 397 m 0,0,1
 68 356 68 356 145 266 c 0,2,3
 221 178 221 178 262 178 c 0,4,5
 295 178 295 178 301 209 c 1,6,7
 332 152 332 152 377 152 c 0,8,9
 397 152 397 152 498 276 c 0,10,11
 527 311 527 311 582 355 c 128,-1,12
 637 399 637 399 719 453 c 0,13,14
 881 551 881 551 901 588 c 1,15,-1
 915 588 l 1,16,17
 915 484 915 484 811 354 c 0,18,19
 754 286 754 286 710 236 c 128,-1,20
 666 186 666 186 637 154 c 0,21,22
 539 37 539 37 539 -152 c 1,23,-1
 1726 -152 l 1,24,25
 1726 407 1726 407 1595 731 c 0,26,27
 1409 1192 1409 1192 950 1276 c 1,28,29
 940 1305 940 1305 925.5 1333.5 c 128,-1,30
 911 1362 911 1362 891 1391 c 0,31,32
 838 1469 838 1469 801 1468 c 1,33,34
 740 1427 740 1427 692 1272 c 1,35,-1
 662 1272 l 1,36,37
 631 1325 631 1325 567 1386 c 0,38,39
 491 1462 491 1462 449 1462 c 0,40,41
 400 1462 400 1462 399 1362 c 0,42,43
 399 1309 399 1309 436 1208 c 1,44,45
 409 1173 409 1173 383.5 1128 c 128,-1,46
 358 1083 358 1083 336 1028 c 2,47,-1
 299 930 l 2,48,49
 281 881 281 881 262 834 c 0,50,51
 166 666 166 666 141 623 c 0,52,53
 68 489 68 489 68 397 c 0,0,1
131 403 m 0,54,55
 131 466 131 466 289 741 c 0,56,57
 322 798 322 798 393 969 c 0,58,59
 454 1114 454 1114 514 1192 c 1,60,-1
 471 1389 l 1,61,62
 559 1326 559 1326 606 1233 c 1,63,64
 522 1149 522 1149 522 1118 c 0,65,66
 522 1083 522 1083 547 1087 c 1,67,68
 670 1185 670 1185 709 1186 c 1,69,-1
 745 1174 l 1,70,71
 745 1299 745 1299 815 1393 c 1,72,73
 858 1340 858 1340 870 1278 c 0,74,75
 876 1243 876 1243 877 1151 c 1,76,-1
 930 1151 l 1,77,-1
 950 1223 l 1,78,79
 1589 1084 1589 1084 1589 143 c 2,80,-1
 1589 -84 l 1,81,-1
 623 -84 l 1,82,83
 623 33 623 33 719 152 c 0,84,85
 782 230 782 230 826 283 c 128,-1,86
 870 336 870 336 895 365 c 0,87,88
 991 486 991 486 991 662 c 1,89,90
 1024 725 1024 725 1024 881 c 1,91,-1
 954 881 l 1,92,93
 954 695 954 695 807 600 c 0,94,95
 703 534 703 534 632 490 c 128,-1,96
 561 446 561 446 520 424 c 0,97,98
 475 395 475 395 373 242 c 1,99,-1
 340 250 l 1,100,101
 373 322 373 322 391 348 c 1,102,-1
 391 354 l 2,103,104
 391 381 391 381 362 381 c 0,105,106
 339 381 339 381 254 276 c 1,107,108
 231 276 231 276 180 328 c 0,109,110
 131 378 131 378 131 403 c 0,54,55
190 430 m 0,111,112
 190 391 190 391 219 391 c 0,113,114
 242 391 242 391 268 430 c 0,115,116
 299 469 299 469 299 494 c 0,117,118
 299 525 299 525 264 524 c 0,119,120
 252 524 252 524 238.5 514 c 128,-1,121
 225 504 225 504 215 489.5 c 128,-1,122
 205 475 205 475 197.5 458.5 c 128,-1,123
 190 442 190 442 190 430 c 0,111,112
414 872 m 1,124,125
 426 849 426 849 467 840 c 1,126,-1
 481 854 l 1,127,128
 473 872 473 872 471 893 c 1,129,-1
 487 915 l 1,130,131
 530 892 530 892 545 883 c 1,132,133
 582 883 582 883 582 918 c 0,134,135
 582 924 582 924 576.5 932 c 128,-1,136
 571 940 571 940 564 949 c 128,-1,137
 557 958 557 958 551 965.5 c 128,-1,138
 545 973 545 973 545 977 c 1,139,140
 551 985 551 985 571.5 990 c 128,-1,141
 592 995 592 995 598 1004 c 1,142,-1
 584 1018 l 1,143,-1
 547 1020 l 2,144,145
 502 1022 502 1022 457 971 c 0,146,147
 414 917 414 917 414 872 c 1,124,125
EndSplineSet
EndChar
StartChar: Icircumflex
Encoding: 206 206 132
Width: 1370
GlyphClass: 2
Flags: W
Fore
68 -152 m 1,0,-1
 1300 -152 l 1,1,2
 1300 131 1300 131 1237 266 c 0,3,4
 1155 446 1155 446 926 545 c 1,5,6
 1082 639 1082 639 1081 780 c 0,7,8
 1081 993 1081 993 834 1079 c 1,9,10
 902 1134 902 1134 901 1233 c 0,11,12
 901 1325 901 1325 838.5 1380.5 c 128,-1,13
 776 1436 776 1436 684 1436 c 256,14,15
 592 1436 592 1436 529.5 1380.5 c 128,-1,16
 467 1325 467 1325 467 1233 c 0,17,18
 467 1135 467 1135 535 1079 c 1,19,20
 287 991 287 991 287 780 c 0,21,22
 287 637 287 637 442 545 c 1,23,24
 213 447 213 447 131 266 c 0,25,26
 68 127 68 127 68 -152 c 1,0,-1
145 -72 m 1,27,28
 145 166 145 166 233 285 c 0,29,30
 309 387 309 387 535 502 c 1,31,-1
 535 580 l 1,32,33
 363 686 363 686 362 793 c 0,34,35
 362 940 362 940 614 1036 c 1,36,-1
 614 1114 l 1,37,38
 542 1167 542 1167 543 1233 c 0,39,40
 543 1290 543 1290 584 1325 c 128,-1,41
 625 1360 625 1360 684 1360 c 0,42,43
 825 1360 825 1360 825 1233 c 0,44,45
 825 1167 825 1167 754 1114 c 1,46,-1
 754 1036 l 1,47,48
 1006 940 1006 940 1006 793 c 0,49,50
 1006 687 1006 687 834 580 c 1,51,-1
 834 502 l 1,52,53
 1057 389 1057 389 1133 285 c 0,54,55
 1223 160 1223 160 1223 -72 c 1,56,-1
 145 -72 l 1,27,28
EndSplineSet
EndChar
StartChar: Idieresis
Encoding: 207 207 133
Width: 1617
GlyphClass: 2
Flags: W
Fore
68 0 m 1,0,-1
 68 -96 l 1,1,-1
 1548 -96 l 1,2,-1
 1548 0 l 1,3,-1
 858 0 l 1,4,-1
 858 1475 l 1,5,-1
 760 1475 l 1,6,-1
 760 0 l 1,7,-1
 68 0 l 1,0,-1
EndSplineSet
EndChar
StartChar: Ntilde
Encoding: 209 209 134
Width: 1767
GlyphClass: 2
Flags: W
Fore
68 590 m 1,0,-1
 1696 590 l 1,1,-1
 1696 801 l 1,2,-1
 68 801 l 1,3,-1
 68 590 l 1,0,-1
EndSplineSet
EndChar
StartChar: Ograve
Encoding: 210 210 135
Width: 2000
GlyphClass: 2
Flags: W
Fore
68 0 m 1,0,-1
 1282 0 l 1,1,-1
 1282 295 l 1,2,-1
 1929 295 l 1,3,-1
 1929 1155 l 1,4,-1
 702 1155 l 1,5,-1
 702 858 l 1,6,-1
 68 858 l 1,7,-1
 68 0 l 1,0,-1
168 96 m 1,8,-1
 168 760 l 1,9,-1
 702 760 l 1,10,-1
 702 295 l 1,11,-1
 1184 295 l 1,12,-1
 1184 96 l 1,13,-1
 168 96 l 1,8,-1
801 393 m 1,14,-1
 801 760 l 1,15,-1
 1184 760 l 1,16,-1
 1184 393 l 1,17,-1
 801 393 l 1,14,-1
801 858 m 1,18,-1
 801 1055 l 1,19,-1
 1831 1055 l 1,20,-1
 1831 393 l 1,21,-1
 1282 393 l 1,22,-1
 1282 858 l 1,23,-1
 801 858 l 1,18,-1
EndSplineSet
EndChar
StartChar: Oacute
Encoding: 211 211 136
Width: 2000
GlyphClass: 2
Flags: W
Fore
68 0 m 1,0,-1
 1282 0 l 1,1,-1
 1282 295 l 1,2,-1
 1929 295 l 1,3,-1
 1929 1155 l 1,4,-1
 702 1155 l 1,5,-1
 702 858 l 1,6,-1
 68 858 l 1,7,-1
 68 0 l 1,0,-1
168 96 m 1,8,-1
 168 760 l 1,9,-1
 702 760 l 1,10,-1
 702 295 l 1,11,-1
 1184 295 l 1,12,-1
 1184 96 l 1,13,-1
 168 96 l 1,8,-1
EndSplineSet
EndChar
StartChar: Ocircumflex
Encoding: 212 212 137
Width: 2000
GlyphClass: 2
Flags: W
Fore
68 0 m 1,0,-1
 1282 0 l 1,1,-1
 1282 295 l 1,2,-1
 1929 295 l 1,3,-1
 1929 1155 l 1,4,-1
 702 1155 l 1,5,-1
 702 858 l 1,6,-1
 68 858 l 1,7,-1
 68 0 l 1,0,-1
EndSplineSet
EndChar
StartChar: Otilde
Encoding: 213 213 138
Width: 1755
GlyphClass: 2
Flags: W
Fore
68 514 m 0,0,1
 68 364 68 364 180 240 c 0,2,3
 295 107 295 107 440 106 c 0,4,5
 553 106 553 106 631 156 c 0,6,7
 682 189 682 189 770 295 c 0,8,9
 805 340 805 340 832.5 366.5 c 128,-1,10
 860 393 860 393 879 403 c 1,11,12
 920 366 920 366 989 248 c 0,13,14
 1024 191 1024 191 1053.5 152 c 128,-1,15
 1083 113 1083 113 1110 92 c 0,16,17
 1182 33 1182 33 1303 33 c 0,18,19
 1500 33 1500 33 1602 193 c 0,20,21
 1686 326 1686 326 1686 537 c 0,22,23
 1686 715 1686 715 1579 846 c 0,24,25
 1464 987 1464 987 1290 987 c 0,26,27
 1081 987 1081 987 932 721 c 0,28,29
 879 629 879 629 866 616 c 1,30,-1
 702 813 l 2,31,32
 622 909 622 909 471 909 c 0,33,34
 297 909 297 909 182 797 c 0,35,36
 68 686 68 686 68 514 c 0,0,1
115 528 m 0,37,38
 115 665 115 665 209 751.5 c 128,-1,39
 303 838 303 838 442 838 c 0,40,41
 565 838 565 838 690 743 c 0,42,43
 825 641 825 641 825 526 c 0,44,45
 825 442 825 442 684 307 c 0,46,47
 541 174 541 174 457 174 c 0,48,49
 289 174 289 174 202 267 c 128,-1,50
 115 360 115 360 115 528 c 0,37,38
934 471 m 0,51,52
 934 577 934 577 1079.5 729 c 128,-1,53
 1225 881 1225 881 1331 881 c 0,54,55
 1462 881 1462 881 1559 772 c 0,56,57
 1653 666 1653 666 1653 530 c 0,58,59
 1653 387 1653 387 1565 287 c 0,60,61
 1475 185 1475 185 1337 184 c 0,62,63
 1190 184 1190 184 1108 227 c 0,64,65
 1016 276 1016 276 956 403 c 0,66,67
 934 453 934 453 934 471 c 0,51,52
EndSplineSet
EndChar
StartChar: Odieresis
Encoding: 214 214 139
Width: 16
GlyphClass: 2
Flags: W
Fore
293 1112 m 1,0,-1
 326 1112 l 1,1,-1
 547 1458 l 1,2,-1
 358 1458 l 1,3,-1
 293 1112 l 1,0,-1
606 1112 m 1,4,-1
 639 1112 l 1,5,-1
 860 1458 l 1,6,-1
 672 1458 l 1,7,-1
 606 1112 l 1,4,-1
EndSplineSet
EndChar
StartChar: Oslash
Encoding: 216 216 140
Width: 569
GlyphClass: 2
Flags: W
Fore
168 -408 m 1,0,-1
 512 -408 l 1,1,-1
 512 -326 l 1,2,-1
 270 -326 l 1,3,-1
 270 1710 l 1,4,-1
 512 1710 l 1,5,-1
 512 1792 l 1,6,-1
 168 1792 l 1,7,-1
 168 -408 l 1,0,-1
EndSplineSet
EndChar
StartChar: Ugrave
Encoding: 217 217 141
Width: 1937
GlyphClass: 2
Flags: W
Fore
68 487 m 256,0,1
 68 317 68 317 190 188 c 0,2,3
 313 61 313 61 483 61 c 0,4,5
 651 61 651 61 770 193 c 0,6,7
 887 318 887 318 887 487 c 0,8,9
 887 657 887 657 768 782 c 0,10,11
 647 909 647 909 483 909 c 0,12,13
 311 909 311 909 188 784 c 0,14,15
 68 657 68 657 68 487 c 256,0,1
150 485 m 0,16,17
 150 630 150 630 244 731 c 0,18,19
 340 833 340 833 483 834 c 0,20,21
 626 834 626 834 717 735 c 0,22,23
 809 637 809 637 809 492 c 0,24,25
 809 349 809 349 719 246 c 0,26,27
 627 140 627 140 483 139 c 0,28,29
 340 139 340 139 246 240 c 0,30,31
 150 342 150 342 150 485 c 0,16,17
1049 487 m 0,32,33
 1049 321 1049 321 1169 190 c 0,34,35
 1288 61 1288 61 1458 61 c 0,36,37
 1624 61 1624 61 1745 190 c 0,38,39
 1866 321 1866 321 1866 487 c 0,40,41
 1866 655 1866 655 1745 782 c 128,-1,42
 1624 909 1624 909 1458 909 c 256,43,44
 1292 909 1292 909 1169 782 c 0,45,46
 1049 655 1049 655 1049 487 c 0,32,33
1130 485 m 256,47,48
 1130 628 1130 628 1223 731 c 0,49,50
 1319 833 1319 833 1458 834 c 0,51,52
 1601 834 1601 834 1694 735 c 0,53,54
 1788 639 1788 639 1788 492 c 0,55,56
 1788 342 1788 342 1696 242 c 0,57,58
 1604 140 1604 140 1458 139 c 0,59,60
 1319 139 1319 139 1223 242 c 0,61,62
 1130 342 1130 342 1130 485 c 256,47,48
EndSplineSet
EndChar
StartChar: Uacute
Encoding: 218 218 142
Width: 956
GlyphClass: 2
Flags: W
Fore
68 111 m 0,0,1
 68 -57 68 -57 188 -184 c 0,2,3
 311 -309 311 -309 483 -309 c 0,4,5
 647 -309 647 -309 768 -182 c 0,6,7
 887 -57 887 -57 887 111 c 0,8,9
 887 281 887 281 768 406 c 0,10,11
 647 535 647 535 483 535 c 0,12,13
 311 535 311 535 188 408 c 0,14,15
 68 281 68 281 68 111 c 0,0,1
68 1069 m 256,16,17
 68 897 68 897 188 770 c 0,18,19
 311 645 311 645 483 645 c 0,20,21
 651 645 651 645 768 772 c 0,22,23
 887 899 887 899 887 1069 c 256,24,25
 887 1239 887 1239 768 1364 c 0,26,27
 647 1491 647 1491 483 1491 c 0,28,29
 311 1491 311 1491 188 1366 c 0,30,31
 68 1241 68 1241 68 1069 c 256,16,17
150 109 m 0,32,33
 150 254 150 254 244 354 c 0,34,35
 340 456 340 456 483 457 c 0,36,37
 630 457 630 457 719 356 c 0,38,39
 809 256 809 256 809 113 c 256,40,41
 809 -30 809 -30 717 -131 c 0,42,43
 627 -233 627 -233 483 -233 c 0,44,45
 342 -233 342 -233 246 -130.5 c 128,-1,46
 150 -28 150 -28 150 109 c 0,32,33
150 1067 m 0,47,48
 150 1208 150 1208 246 1310.5 c 128,-1,49
 342 1413 342 1413 483 1413 c 0,50,51
 628 1413 628 1413 719 1315 c 0,52,53
 809 1219 809 1219 809 1073 c 0,54,55
 809 930 809 930 719 827 c 0,56,57
 623 718 623 718 483 719 c 0,58,59
 340 719 340 719 244 821 c 0,60,61
 150 922 150 922 150 1067 c 0,47,48
EndSplineSet
EndChar
StartChar: Ucircumflex
Encoding: 219 219 143
Width: 2463
GlyphClass: 2
Flags: W
Fore
68 500 m 0,0,1
 68 328 68 328 188 201 c 0,2,3
 311 74 311 74 483 74 c 0,4,5
 651 74 651 74 770 205 c 0,6,7
 887 330 887 330 887 500 c 0,8,9
 887 668 887 668 768 793 c 0,10,11
 647 922 647 922 483 922 c 0,12,13
 311 922 311 922 188 797 c 0,14,15
 68 670 68 670 68 500 c 0,0,1
150 498 m 0,16,17
 150 639 150 639 246 741.5 c 128,-1,18
 342 844 342 844 483 844 c 0,19,20
 626 844 626 844 717 745 c 0,21,22
 809 647 809 647 809 502 c 0,23,24
 809 359 809 359 719 256 c 0,25,26
 627 150 627 150 483 150 c 0,27,28
 340 150 340 150 244 252 c 0,29,30
 150 353 150 353 150 498 c 0,16,17
1004 502 m 256,31,32
 1004 467 1004 467 1029.5 442.5 c 128,-1,33
 1055 418 1055 418 1090 418 c 0,34,35
 1123 418 1123 418 1150.5 443.5 c 128,-1,36
 1178 469 1178 469 1178 502 c 0,37,38
 1178 537 1178 537 1154 564.5 c 128,-1,39
 1130 592 1130 592 1098 592 c 0,40,41
 1063 592 1063 592 1033.5 564.5 c 128,-1,42
 1004 537 1004 537 1004 502 c 256,31,32
1286 502 m 256,43,44
 1286 469 1286 469 1313.5 443.5 c 128,-1,45
 1341 418 1341 418 1374 418 c 0,46,47
 1409 418 1409 418 1433.5 442.5 c 128,-1,48
 1458 467 1458 467 1458 502 c 256,49,50
 1458 537 1458 537 1428.5 564.5 c 128,-1,51
 1399 592 1399 592 1364 592 c 0,52,53
 1331 592 1331 592 1308.5 563.5 c 128,-1,54
 1286 535 1286 535 1286 502 c 256,43,44
1577 500 m 0,55,56
 1577 328 1577 328 1696 201 c 0,57,58
 1817 74 1817 74 1982 74 c 0,59,60
 2150 74 2150 74 2271 201 c 0,61,62
 2394 330 2394 330 2394 500 c 0,63,64
 2394 668 2394 668 2271 795 c 0,65,66
 2150 922 2150 922 1982 922 c 0,67,68
 1816 922 1816 922 1696 795 c 0,69,70
 1577 670 1577 670 1577 500 c 0,55,56
1655 502 m 256,71,72
 1655 645 1655 645 1745 745 c 0,73,74
 1837 843 1837 843 1982 844 c 0,75,76
 2121 844 2121 844 2218 739 c 0,77,78
 2314 637 2314 637 2314 498 c 256,79,80
 2314 359 2314 359 2218 252 c 0,81,82
 2122 150 2122 150 1982 150 c 0,83,84
 1839 150 1839 150 1747 254.5 c 128,-1,85
 1655 359 1655 359 1655 502 c 256,71,72
EndSplineSet
EndChar
StartChar: Udieresis
Encoding: 220 220 144
Width: 16
GlyphClass: 2
Flags: W
Fore
223 1458 m 1,0,-1
 414 1128 l 1,1,-1
 598 1128 l 1,2,-1
 788 1458 l 1,3,-1
 756 1458 l 1,4,-1
 506 1247 l 1,5,-1
 256 1458 l 1,6,-1
 223 1458 l 1,0,-1
EndSplineSet
EndChar
StartChar: germandbls
Encoding: 223 223 146
Width: 595
GlyphClass: 2
Flags: W
Fore
68 -143 m 1,0,-1
 172 -143 l 1,1,-1
 172 1456 l 1,2,-1
 68 1456 l 1,3,-1
 68 -143 l 1,0,-1
422 -143 m 1,4,-1
 526 -143 l 1,5,-1
 526 1456 l 1,6,-1
 422 1456 l 1,7,-1
 422 -143 l 1,4,-1
EndSplineSet
EndChar
StartChar: agrave
Encoding: 224 224 147
Width: 16
GlyphClass: 2
Flags: W
Fore
653 1620 m 256,0,1
 653 1573 653 1573 685 1541 c 128,-1,2
 717 1509 717 1509 764 1509 c 256,3,4
 811 1509 811 1509 842.5 1541 c 128,-1,5
 874 1573 874 1573 874 1620 c 256,6,7
 874 1667 874 1667 842.5 1699 c 128,-1,8
 811 1731 811 1731 764 1731 c 256,9,10
 717 1731 717 1731 685 1699 c 128,-1,11
 653 1667 653 1667 653 1620 c 256,0,1
EndSplineSet
EndChar
StartChar: aacute
Encoding: 225 225 148
Width: 1644
GlyphClass: 2
Flags: W
Fore
133 1296 m 1,0,-1
 150 1268 l 1,1,2
 199 1288 199 1288 217 1288 c 0,3,4
 252 1288 252 1288 252 1155 c 2,5,-1
 252 778 l 2,6,7
 252 737 252 737 238 711 c 1,8,9
 218 707 218 707 196 703.5 c 128,-1,10
 174 700 174 700 150 700 c 1,11,-1
 150 664 l 1,12,-1
 479 664 l 1,13,-1
 479 700 l 1,14,15
 454 700 454 700 433 703.5 c 128,-1,16
 412 707 412 707 391 711 c 1,17,18
 366 760 366 760 367 973 c 0,19,20
 367 1008 367 1008 368 1059 c 128,-1,21
 369 1110 369 1110 371 1178 c 0,22,23
 377 1315 377 1315 377 1384 c 1,24,-1
 338 1384 l 1,25,-1
 133 1296 l 1,0,-1
244 -51 m 1,26,-1
 334 -51 l 1,27,-1
 1268 1384 l 1,28,-1
 1180 1384 l 1,29,-1
 244 -51 l 1,26,-1
942 0 m 1,30,-1
 1436 0 l 1,31,-1
 1495 152 l 1,32,-1
 1452 152 l 1,33,34
 1419 95 1419 95 1311 94 c 2,35,-1
 1100 94 l 1,36,37
 1180 162 1180 162 1233 211 c 128,-1,38
 1286 260 1286 260 1315 289 c 0,39,40
 1444 426 1444 426 1444 532 c 0,41,42
 1444 618 1444 618 1366 672 c 0,43,44
 1294 721 1294 721 1206 721 c 0,45,46
 993 721 993 721 963 512 c 1,47,-1
 1008 512 l 1,48,49
 1045 627 1045 627 1174 627 c 0,50,51
 1235 627 1235 627 1277 587 c 128,-1,52
 1319 547 1319 547 1319 485 c 0,53,54
 1319 376 1319 376 1176 233 c 0,55,56
 1110 167 1110 167 942 37 c 1,57,-1
 942 0 l 1,30,-1
EndSplineSet
EndChar
StartChar: acircumflex
Encoding: 226 226 149
Width: 16
GlyphClass: 2
Flags: W
Fore
432 1468 m 1,0,-1
 463 1468 l 1,1,2
 481 1607 481 1607 559 1608 c 0,3,4
 584 1608 584 1608 704.5 1538 c 128,-1,5
 825 1468 825 1468 881 1468 c 0,6,7
 981 1468 981 1468 1030 1554 c 0,8,9
 1071 1626 1071 1626 1071 1731 c 1,10,-1
 1040 1731 l 1,11,12
 1022 1592 1022 1592 944 1591 c 0,13,14
 919 1591 919 1591 798.5 1661 c 128,-1,15
 678 1731 678 1731 623 1731 c 0,16,17
 523 1731 523 1731 473 1645 c 0,18,19
 432 1572 432 1572 432 1468 c 1,0,-1
EndSplineSet
EndChar
StartChar: atilde
Encoding: 227 227 150
Width: 569
GlyphClass: 2
Flags: W
Fore
55 831 m 1,0,-1
 70 797 l 1,1,2
 113 813 113 813 139 813 c 0,3,4
 211 813 211 813 211 674 c 2,5,-1
 211 174 l 2,6,7
 211 94 211 94 180.5 65.5 c 128,-1,8
 150 37 150 37 70 37 c 1,9,-1
 70 0 l 1,10,-1
 518 0 l 1,11,-1
 518 37 l 1,12,13
 438 37 438 37 407.5 65.5 c 128,-1,14
 377 94 377 94 377 174 c 2,15,-1
 377 944 l 1,16,-1
 332 944 l 1,17,-1
 55 831 l 1,0,-1
180 1051 m 1,18,-1
 215 1051 l 1,19,-1
 508 1397 l 1,20,-1
 285 1397 l 1,21,-1
 180 1051 l 1,18,-1
EndSplineSet
EndChar
StartChar: adieresis
Encoding: 228 228 151
Width: 16
GlyphClass: 2
Flags: W
Fore
479 1757 m 1,0,1
 479 1640 479 1640 563 1556 c 0,2,3
 645 1476 645 1476 766 1477 c 0,4,5
 885 1477 885 1477 969 1556 c 0,6,7
 1053 1640 1053 1640 1053 1757 c 1,8,-1
 1020 1757 l 1,9,10
 961 1628 961 1628 766 1628 c 0,11,12
 567 1628 567 1628 512 1757 c 1,13,-1
 479 1757 l 1,0,1
EndSplineSet
EndChar
StartChar: aring
Encoding: 229 229 152
Width: 16
GlyphClass: 2
Flags: W
Fore
500 1630 m 256,0,1
 500 1583 500 1583 531.5 1551.5 c 128,-1,2
 563 1520 563 1520 610 1520 c 256,3,4
 657 1520 657 1520 689 1551.5 c 128,-1,5
 721 1583 721 1583 721 1630 c 256,6,7
 721 1677 721 1677 689 1709 c 128,-1,8
 657 1741 657 1741 610 1741 c 256,9,10
 563 1741 563 1741 531.5 1709 c 128,-1,11
 500 1677 500 1677 500 1630 c 256,0,1
850 1630 m 256,12,13
 850 1583 850 1583 881.5 1551.5 c 128,-1,14
 913 1520 913 1520 961 1520 c 0,15,16
 1008 1520 1008 1520 1039.5 1551.5 c 128,-1,17
 1071 1583 1071 1583 1071 1630 c 256,18,19
 1071 1677 1071 1677 1039.5 1709 c 128,-1,20
 1008 1741 1008 1741 961 1741 c 256,21,22
 914 1741 914 1741 882 1709 c 128,-1,23
 850 1677 850 1677 850 1630 c 256,12,13
EndSplineSet
EndChar
StartChar: ae
Encoding: 230 230 153
Width: 16
GlyphClass: 2
Flags: W
Fore
416 1118 m 1,0,-1
 451 1118 l 1,1,-1
 743 1464 l 1,2,-1
 520 1464 l 1,3,-1
 416 1118 l 1,0,-1
EndSplineSet
EndChar
StartChar: ccedilla
Encoding: 231 231 154
Width: 16
GlyphClass: 2
Flags: W
Fore
582 1665 m 0,0,1
 582 1624 582 1624 597 1589 c 128,-1,2
 612 1554 612 1554 638 1528.5 c 128,-1,3
 664 1503 664 1503 698.5 1488 c 128,-1,4
 733 1473 733 1473 774 1473 c 0,5,6
 813 1473 813 1473 849 1488 c 128,-1,7
 885 1503 885 1503 910.5 1528.5 c 128,-1,8
 936 1554 936 1554 951.5 1589 c 128,-1,9
 967 1624 967 1624 967 1665 c 0,10,11
 967 1704 967 1704 951.5 1740 c 128,-1,12
 936 1776 936 1776 910.5 1801.5 c 128,-1,13
 885 1827 885 1827 849 1842.5 c 128,-1,14
 813 1858 813 1858 774 1858 c 0,15,16
 733 1858 733 1858 698.5 1842.5 c 128,-1,17
 664 1827 664 1827 638 1801.5 c 128,-1,18
 612 1776 612 1776 597 1740 c 128,-1,19
 582 1704 582 1704 582 1665 c 0,0,1
651 1665 m 256,20,21
 651 1716 651 1716 687 1752 c 128,-1,22
 723 1788 723 1788 774 1788 c 256,23,24
 825 1788 825 1788 861 1752 c 128,-1,25
 897 1716 897 1716 897 1665 c 256,26,27
 897 1614 897 1614 861 1578 c 128,-1,28
 825 1542 825 1542 774 1542 c 256,29,30
 723 1542 723 1542 687 1578 c 128,-1,31
 651 1614 651 1614 651 1665 c 256,20,21
EndSplineSet
EndChar
StartChar: egrave
Encoding: 232 232 155
Width: 16
GlyphClass: 2
Flags: W
Fore
477 1839 m 1,0,-1
 668 1509 l 1,1,-1
 852 1509 l 1,2,-1
 1042 1839 l 1,3,-1
 1010 1839 l 1,4,-1
 760 1628 l 1,5,-1
 510 1839 l 1,6,-1
 477 1839 l 1,0,-1
EndSplineSet
EndChar
StartChar: eacute
Encoding: 233 233 156
Width: 16
GlyphClass: 2
Flags: W
Fore
471 1452 m 1,0,-1
 504 1452 l 1,1,-1
 754 1663 l 1,2,-1
 1004 1452 l 1,3,-1
 1036 1452 l 1,4,-1
 846 1782 l 1,5,-1
 662 1782 l 1,6,-1
 471 1452 l 1,0,-1
EndSplineSet
EndChar
StartChar: ecircumflex
Encoding: 234 234 157
Width: 16
GlyphClass: 2
Flags: W
Fore
532 -362 m 1,0,1
 602 -378 602 -378 657 -379 c 0,2,3
 747 -379 747 -379 821 -330 c 0,4,5
 905 -275 905 -275 905 -188 c 0,6,7
 905 -47 905 -47 735 -47 c 1,8,-1
 602 -119 l 1,9,10
 657 -119 657 -119 701 -149.5 c 128,-1,11
 745 -180 745 -180 745 -233 c 0,12,13
 745 -278 745 -278 705.5 -310 c 128,-1,14
 666 -342 666 -342 618 -342 c 0,15,16
 595 -342 595 -342 541 -324 c 1,17,-1
 532 -362 l 1,0,1
EndSplineSet
EndChar
StartChar: edieresis
Encoding: 235 235 158
Width: 16
GlyphClass: 2
Flags: W
Fore
565 1454 m 1,0,-1
 598 1454 l 1,1,-1
 819 1800 l 1,2,-1
 631 1800 l 1,3,-1
 565 1454 l 1,0,-1
879 1454 m 1,4,-1
 911 1454 l 1,5,-1
 1133 1800 l 1,6,-1
 944 1800 l 1,7,-1
 879 1454 l 1,4,-1
EndSplineSet
EndChar
StartChar: igrave
Encoding: 236 236 159
Width: 1632
GlyphClass: 2
Flags: W
Fore
68 -94 m 1,0,-1
 1563 -94 l 1,1,-1
 1563 1352 l 1,2,-1
 68 1352 l 1,3,-1
 68 -94 l 1,0,-1
168 0 m 1,4,-1
 168 1253 l 1,5,-1
 1464 1253 l 1,6,-1
 1464 0 l 1,7,-1
 168 0 l 1,4,-1
EndSplineSet
EndChar
StartChar: iacute
Encoding: 237 237 160
Width: 1558
GlyphClass: 2
Flags: W
Fore
70 678 m 256,0,1
 70 373 70 373 270 172 c 0,2,3
 475 -29 475 -29 778 -29 c 0,4,5
 1083 -29 1083 -29 1284 172 c 0,6,7
 1487 373 1487 373 1487 678 c 256,8,9
 1487 983 1487 983 1284 1184 c 0,10,11
 1083 1387 1083 1387 778 1386 c 0,12,13
 473 1386 473 1386 270 1184 c 0,14,15
 70 983 70 983 70 678 c 256,0,1
131 678 m 256,16,17
 131 957 131 957 315.5 1141 c 128,-1,18
 500 1325 500 1325 778 1325 c 0,19,20
 1059 1325 1059 1325 1241 1141 c 0,21,22
 1425 959 1425 959 1425 678 c 256,23,24
 1425 397 1425 397 1241 213 c 0,25,26
 1059 31 1059 31 778 31 c 0,27,28
 499 31 499 31 313 213 c 0,29,30
 131 399 131 399 131 678 c 256,16,17
319 666 m 0,31,32
 319 473 319 473 450.5 350 c 128,-1,33
 582 227 582 227 778 227 c 0,34,35
 1032 227 1032 227 1167 430 c 1,36,-1
 1128 451 l 1,37,38
 1022 289 1022 289 819 289 c 0,39,40
 485 289 485 289 485 700 c 0,41,42
 485 866 485 866 563 973 c 0,43,44
 649 1090 649 1090 811 1090 c 0,45,46
 1049 1090 1049 1090 1110 854 c 1,47,-1
 1149 854 l 1,48,-1
 1128 1135 l 1,49,-1
 1090 1135 l 1,50,-1
 1069 1102 l 1,51,-1
 1040 1090 l 1,52,53
 1020 1094 1020 1094 992.5 1101 c 128,-1,54
 965 1108 965 1108 930 1116 c 0,55,56
 858 1134 858 1134 821 1135 c 0,57,58
 610 1135 610 1135 467 1008 c 0,59,60
 319 875 319 875 319 666 c 0,31,32
EndSplineSet
EndChar
StartChar: icircumflex
Encoding: 238 238 161
Width: 768
GlyphClass: 2
Flags: W
Fore
68 999 m 1,0,-1
 92 973 l 1,1,-1
 291 1241 l 1,2,-1
 315 1255 l 1,3,4
 342 1257 342 1257 342 1227 c 2,5,-1
 342 -119 l 1,6,-1
 428 -119 l 1,7,-1
 428 1227 l 2,8,9
 428 1256 428 1256 455 1255 c 0,10,11
 482 1255 482 1255 676 973 c 1,12,-1
 698 999 l 1,13,-1
 379 1495 l 1,14,-1
 68 999 l 1,0,-1
EndSplineSet
EndChar
StartChar: idieresis
Encoding: 239 239 162
Width: 1759
GlyphClass: 2
Flags: W
Fore
68 520 m 1,0,-1
 1421 520 l 2,1,2
 1448 520 1448 520 1448 494 c 1,3,-1
 1436 473 l 1,4,-1
 1169 276 l 1,5,-1
 1192 250 l 1,6,-1
 1690 573 l 1,7,-1
 1192 881 l 1,8,-1
 1169 856 l 1,9,-1
 1436 659 l 1,10,-1
 1448 639 l 1,11,12
 1448 610 1448 610 1421 610 c 2,13,-1
 68 608 l 1,14,-1
 68 520 l 1,0,-1
EndSplineSet
EndChar
StartChar: ntilde
Encoding: 241 241 163
Width: 569
GlyphClass: 2
Flags: W
Fore
55 831 m 1,0,-1
 70 797 l 1,1,2
 113 813 113 813 139 813 c 0,3,4
 211 813 211 813 211 674 c 2,5,-1
 211 174 l 2,6,7
 211 94 211 94 180.5 65.5 c 128,-1,8
 150 37 150 37 70 37 c 1,9,-1
 70 0 l 1,10,-1
 518 0 l 1,11,-1
 518 37 l 1,12,13
 438 37 438 37 407.5 65.5 c 128,-1,14
 377 94 377 94 377 174 c 2,15,-1
 377 944 l 1,16,-1
 332 944 l 1,17,-1
 55 831 l 1,0,-1
EndSplineSet
EndChar
StartChar: ograve
Encoding: 242 242 164
Width: 16
GlyphClass: 2
Flags: W
Fore
350 1231 m 256,0,1
 350 1184 350 1184 382 1152 c 128,-1,2
 414 1120 414 1120 461 1120 c 256,3,4
 508 1120 508 1120 539.5 1152 c 128,-1,5
 571 1184 571 1184 571 1231 c 256,6,7
 571 1278 571 1278 539.5 1309.5 c 128,-1,8
 508 1341 508 1341 461 1341 c 256,9,10
 414 1341 414 1341 382 1309.5 c 128,-1,11
 350 1278 350 1278 350 1231 c 256,0,1
EndSplineSet
EndChar
StartChar: oacute
Encoding: 243 243 165
Width: 1024
GlyphClass: 2
Flags: W
Fore
82 262 m 1,0,-1
 942 262 l 1,1,-1
 942 1122 l 1,2,-1
 82 1122 l 1,3,-1
 82 262 l 1,0,-1
EndSplineSet
EndChar
StartChar: ocircumflex
Encoding: 244 244 166
Width: 16
GlyphClass: 2
Flags: W
Fore
205 1102 m 1,0,-1
 236 1102 l 1,1,2
 254 1241 254 1241 332 1241 c 0,3,4
 357 1241 357 1241 477.5 1171.5 c 128,-1,5
 598 1102 598 1102 653 1102 c 0,6,7
 753 1102 753 1102 803 1188 c 0,8,9
 844 1260 844 1260 844 1364 c 1,10,-1
 813 1364 l 1,11,12
 795 1225 795 1225 717 1225 c 0,13,14
 692 1225 692 1225 571.5 1294.5 c 128,-1,15
 451 1364 451 1364 395 1364 c 0,16,17
 295 1364 295 1364 246 1278 c 0,18,19
 205 1206 205 1206 205 1102 c 1,0,-1
EndSplineSet
EndChar
StartChar: otilde
Encoding: 245 245 167
Width: 1697
GlyphClass: 2
Flags: W
Fore
137 0 m 1,0,-1
 1638 657 l 1,1,-1
 137 1315 l 1,2,-1
 137 0 l 1,0,-1
EndSplineSet
EndChar
StartChar: odieresis
Encoding: 246 246 168
Width: 16
GlyphClass: 2
Flags: W
Fore
225 1372 m 1,0,1
 225 1255 225 1255 309 1171 c 0,2,3
 391 1091 391 1091 512 1092 c 0,4,5
 631 1092 631 1092 715 1171 c 0,6,7
 799 1255 799 1255 799 1372 c 1,8,-1
 766 1372 l 1,9,10
 707 1243 707 1243 512 1243 c 0,11,12
 313 1243 313 1243 258 1372 c 1,13,-1
 225 1372 l 1,0,1
EndSplineSet
EndChar
StartChar: oslash
Encoding: 248 248 169
Width: 569
GlyphClass: 2
Flags: W
Fore
57 -326 m 1,0,-1
 57 -408 l 1,1,-1
 401 -408 l 1,2,-1
 401 1792 l 1,3,-1
 57 1792 l 1,4,-1
 57 1710 l 1,5,-1
 299 1710 l 1,6,-1
 299 -326 l 1,7,-1
 57 -326 l 1,0,-1
EndSplineSet
EndChar
StartChar: ugrave
Encoding: 249 249 170
Width: 16
GlyphClass: 2
Flags: W
Fore
268 1239 m 0,0,1
 268 1198 268 1198 283.5 1163 c 128,-1,2
 299 1128 299 1128 324.5 1102.5 c 128,-1,3
 350 1077 350 1077 385 1062 c 128,-1,4
 420 1047 420 1047 461 1047 c 0,5,6
 500 1047 500 1047 535.5 1062 c 128,-1,7
 571 1077 571 1077 597 1102.5 c 128,-1,8
 623 1128 623 1128 638 1163 c 128,-1,9
 653 1198 653 1198 653 1239 c 0,10,11
 653 1278 653 1278 638 1314 c 128,-1,12
 623 1350 623 1350 597 1375.5 c 128,-1,13
 571 1401 571 1401 535.5 1416.5 c 128,-1,14
 500 1432 500 1432 461 1432 c 0,15,16
 420 1432 420 1432 385 1416.5 c 128,-1,17
 350 1401 350 1401 324.5 1375.5 c 128,-1,18
 299 1350 299 1350 283.5 1314 c 128,-1,19
 268 1278 268 1278 268 1239 c 0,0,1
338 1239 m 256,20,21
 338 1290 338 1290 374 1326 c 128,-1,22
 410 1362 410 1362 461 1362 c 256,23,24
 512 1362 512 1362 548 1326 c 128,-1,25
 584 1290 584 1290 584 1239 c 256,26,27
 584 1188 584 1188 548 1152 c 128,-1,28
 512 1116 512 1116 461 1116 c 256,29,30
 410 1116 410 1116 374 1152 c 128,-1,31
 338 1188 338 1188 338 1239 c 256,20,21
EndSplineSet
EndChar
StartChar: uacute
Encoding: 250 250 171
Width: 1200
GlyphClass: 2
Flags: W
Fore
63 477 m 1,0,-1
 1139 477 l 1,1,-1
 1139 559 l 1,2,-1
 63 559 l 1,3,-1
 63 477 l 1,0,-1
63 801 m 1,4,-1
 1139 801 l 1,5,-1
 1139 883 l 1,6,-1
 63 883 l 1,7,-1
 63 801 l 1,4,-1
EndSplineSet
EndChar
StartChar: ucircumflex
Encoding: 251 251 172
Width: 16
GlyphClass: 2
Flags: W
Fore
186 1231 m 256,0,1
 186 1184 186 1184 218 1152 c 128,-1,2
 250 1120 250 1120 297 1120 c 256,3,4
 344 1120 344 1120 376 1152 c 128,-1,5
 408 1184 408 1184 408 1231 c 256,6,7
 408 1278 408 1278 376 1309.5 c 128,-1,8
 344 1341 344 1341 297 1341 c 256,9,10
 250 1341 250 1341 218 1309.5 c 128,-1,11
 186 1278 186 1278 186 1231 c 256,0,1
537 1231 m 256,12,13
 537 1184 537 1184 568.5 1152 c 128,-1,14
 600 1120 600 1120 647 1120 c 256,15,16
 694 1120 694 1120 726 1152 c 128,-1,17
 758 1184 758 1184 758 1231 c 256,18,19
 758 1278 758 1278 726 1309.5 c 128,-1,20
 694 1341 694 1341 647 1341 c 256,21,22
 600 1341 600 1341 568.5 1309.5 c 128,-1,23
 537 1278 537 1278 537 1231 c 256,12,13
EndSplineSet
EndChar
StartChar: udieresis
Encoding: 252 252 173
Width: 16
GlyphClass: 2
Flags: W
Fore
725 1425 m 1,0,-1
 760 1425 l 1,1,-1
 1053 1772 l 1,2,-1
 829 1772 l 1,3,-1
 725 1425 l 1,0,-1
EndSplineSet
EndChar
StartChar: ydieresis
Encoding: 255 255 175
Width: 16
GlyphClass: 2
Flags: W
Fore
262 -360 m 1,0,1
 332 -376 332 -376 387 -377 c 0,2,3
 477 -377 477 -377 551 -328 c 0,4,5
 635 -273 635 -273 635 -186 c 0,6,7
 635 -45 635 -45 465 -45 c 1,8,-1
 332 -117 l 1,9,10
 387 -117 387 -117 431 -147.5 c 128,-1,11
 475 -178 475 -178 475 -231 c 0,12,13
 475 -276 475 -276 435 -308 c 128,-1,14
 395 -340 395 -340 348 -340 c 0,15,16
 325 -340 325 -340 270 -322 c 1,17,-1
 262 -360 l 1,0,1
EndSplineSet
EndChar
StartChar: uni2010
Encoding: 8208 8208 191
Width: 669
GlyphClass: 2
Flags: W
Fore
82 381 m 1,0,-1
 600 381 l 1,1,-1
 600 539 l 1,2,-1
 82 539 l 1,3,-1
 82 381 l 1,0,-1
EndSplineSet
EndChar
StartChar: uni2011
Encoding: 8209 8209 192
Width: 669
GlyphClass: 2
Flags: W
Fore
82 381 m 1,0,-1
 600 381 l 1,1,-1
 600 539 l 1,2,-1
 82 539 l 1,3,-1
 82 381 l 1,0,-1
EndSplineSet
EndChar
StartChar: figuredash
Encoding: 8210 8210 193
Width: 669
GlyphClass: 2
Flags: W
Fore
82 381 m 1,0,-1
 600 381 l 1,1,-1
 600 539 l 1,2,-1
 82 539 l 1,3,-1
 82 381 l 1,0,-1
EndSplineSet
EndChar
StartChar: endash
Encoding: 8211 8211 194
Width: 1024
GlyphClass: 2
Flags: W
Fore
82 381 m 1,0,-1
 82 539 l 1,1,-1
 954 539 l 1,2,-1
 954 381 l 1,3,-1
 82 381 l 1,0,-1
EndSplineSet
EndChar
StartChar: emdash
Encoding: 8212 8212 195
Width: 2048
GlyphClass: 2
Flags: W
Fore
82 381 m 1,0,-1
 82 539 l 1,1,-1
 1978 539 l 1,2,-1
 1978 381 l 1,3,-1
 82 381 l 1,0,-1
EndSplineSet
EndChar
StartChar: quoteleft
Encoding: 8216 8216 196
Width: 1351
GlyphClass: 2
Flags: W
Fore
68 -92 m 1,0,-1
 1282 -92 l 1,1,-1
 1282 0 l 1,2,-1
 168 0 l 1,3,-1
 168 1356 l 1,4,-1
 68 1356 l 1,5,-1
 68 -92 l 1,0,-1
EndSplineSet
EndChar
StartChar: quoteright
Encoding: 8217 8217 197
Width: 681
GlyphClass: 2
Flags: W
Fore
188 1270 m 0,0,1
 188 1227 188 1227 219 1196 c 128,-1,2
 250 1165 250 1165 293 1165 c 0,3,4
 305 1165 305 1165 327.5 1173.5 c 128,-1,5
 350 1182 350 1182 362 1182 c 0,6,7
 399 1182 399 1182 399 1120 c 0,8,9
 399 1054 399 1054 346 997 c 0,10,11
 315 966 315 966 233 915 c 1,12,-1
 233 868 l 1,13,14
 350 903 350 903 422 987 c 128,-1,15
 494 1071 494 1071 494 1188 c 0,16,17
 494 1227 494 1227 481.5 1262.5 c 128,-1,18
 469 1298 469 1298 446.5 1326 c 128,-1,19
 424 1354 424 1354 392 1370 c 128,-1,20
 360 1386 360 1386 324 1386 c 0,21,22
 269 1386 269 1386 228.5 1354.5 c 128,-1,23
 188 1323 188 1323 188 1270 c 0,0,1
EndSplineSet
EndChar
StartChar: uniE000
Encoding: 57344 57344 206
Width: 915
GlyphClass: 2
Flags: W
Fore
0 915 m 1,0,-1
 915 915 l 1,1,-1
 915 0 l 1,2,-1
 0 0 l 1,3,-1
 0 915 l 1,0,-1
EndSplineSet
EndChar
